<svg width="407" height="333" viewBox="0 0 407 333" fill="none" xmlns="http://www.w3.org/2000/svg">
<rect x="0.5" y="0.5" width="308" height="66" rx="4.5" fill="white" stroke="#B0B0B0"/>
<path d="M31.512 14.48L27.928 26H26.24L23.536 17.728C23.504 17.6373 23.472 17.5387 23.44 17.432C23.4133 17.3253 23.3867 17.2107 23.36 17.088C23.3333 17.2107 23.304 17.3253 23.272 17.432C23.2453 17.5387 23.216 17.6373 23.184 17.728L20.456 26H18.768L15.184 14.48H16.752C16.912 14.48 17.0453 14.52 17.152 14.6C17.264 14.6747 17.3387 14.7787 17.376 14.912L19.536 22.296C19.5787 22.456 19.6187 22.6293 19.656 22.816C19.6933 23.0027 19.7307 23.1973 19.768 23.4C19.8053 23.1973 19.8453 23.0027 19.888 22.816C19.936 22.624 19.9867 22.4507 20.04 22.296L22.512 14.912C22.5493 14.8053 22.624 14.7067 22.736 14.616C22.848 14.5253 22.9813 14.48 23.136 14.48H23.68C23.8453 14.48 23.9787 14.5227 24.08 14.608C24.1813 14.688 24.2587 14.7893 24.312 14.912L26.776 22.296C26.8293 22.4507 26.8773 22.6187 26.92 22.8C26.968 22.976 27.0107 23.1627 27.048 23.36C27.0853 23.1627 27.12 22.976 27.152 22.8C27.1893 22.6187 27.2293 22.4507 27.272 22.296L29.424 14.912C29.456 14.7947 29.528 14.6933 29.64 14.608C29.7573 14.5227 29.8933 14.48 30.048 14.48H31.512ZM38.4328 21.68L36.8488 17.472C36.7208 17.1467 36.5901 16.7333 36.4568 16.232C36.3981 16.4827 36.3341 16.7147 36.2648 16.928C36.1954 17.136 36.1314 17.32 36.0728 17.48L34.4888 21.68H38.4328ZM41.9768 26H40.5288C40.3634 26 40.2301 25.96 40.1288 25.88C40.0274 25.7947 39.9501 25.6907 39.8968 25.568L38.9368 23.024H33.9768L33.0168 25.568C32.9741 25.6747 32.8994 25.7733 32.7928 25.864C32.6861 25.9547 32.5528 26 32.3928 26H30.9447L35.5128 14.48H37.4088L41.9768 26ZM46.6651 20C47.0918 20 47.4651 19.9493 47.7851 19.848C48.1051 19.7413 48.3718 19.5947 48.5851 19.408C48.7985 19.2213 48.9585 19 49.0651 18.744C49.1718 18.4827 49.2251 18.1947 49.2251 17.88C49.2251 17.2507 49.0171 16.7707 48.6011 16.44C48.1851 16.1093 47.5558 15.944 46.7131 15.944H45.1931V20H46.6651ZM52.0891 26H50.4171C50.0865 26 49.8465 25.872 49.6971 25.616L47.0091 21.736C46.9185 21.6027 46.8198 21.5067 46.7131 21.448C46.6065 21.3893 46.4465 21.36 46.2331 21.36H45.1931V26H43.3211V14.48H46.7131C47.4705 14.48 48.1211 14.5573 48.6651 14.712C49.2145 14.8667 49.6651 15.088 50.0171 15.376C50.3691 15.6587 50.6278 16 50.7931 16.4C50.9638 16.8 51.0491 17.2453 51.0491 17.736C51.0491 18.136 50.9878 18.5093 50.8651 18.856C50.7478 19.2027 50.5745 19.5173 50.3451 19.8C50.1211 20.0827 49.8438 20.328 49.5131 20.536C49.1825 20.744 48.8065 20.9067 48.3851 21.024C48.6145 21.1627 48.8118 21.3573 48.9771 21.608L52.0891 26ZM59.5014 16.448C59.4427 16.544 59.3814 16.616 59.3174 16.664C59.2534 16.7067 59.1734 16.728 59.0774 16.728C58.976 16.728 58.8614 16.6853 58.7334 16.6C58.6107 16.5147 58.456 16.4213 58.2694 16.32C58.088 16.2133 57.872 16.1173 57.6214 16.032C57.3707 15.9413 57.072 15.896 56.7254 15.896C56.4054 15.896 56.1227 15.936 55.8774 16.016C55.6374 16.096 55.4347 16.208 55.2694 16.352C55.104 16.496 54.9787 16.6667 54.8934 16.864C54.8134 17.056 54.7734 17.2667 54.7734 17.496C54.7734 17.7893 54.8507 18.0347 55.0054 18.232C55.16 18.424 55.3627 18.5893 55.6134 18.728C55.8694 18.8667 56.16 18.9893 56.4854 19.096C56.8107 19.1973 57.1414 19.3067 57.4774 19.424C57.8187 19.5413 58.152 19.6747 58.4774 19.824C58.8027 19.9733 59.0907 20.1627 59.3414 20.392C59.5974 20.6213 59.8027 20.9013 59.9574 21.232C60.112 21.5627 60.1894 21.9653 60.1894 22.44C60.1894 22.952 60.1014 23.432 59.9254 23.88C59.7494 24.328 59.4934 24.72 59.1574 25.056C58.8267 25.3867 58.416 25.648 57.9254 25.84C57.44 26.032 56.8854 26.128 56.2614 26.128C55.8934 26.128 55.5334 26.0907 55.1814 26.016C54.8347 25.9467 54.5014 25.848 54.1814 25.72C53.8667 25.5867 53.5707 25.4267 53.2934 25.24C53.016 25.0533 52.768 24.8453 52.5494 24.616L53.0934 23.72C53.1414 23.6453 53.2027 23.5867 53.2774 23.544C53.352 23.5013 53.4347 23.48 53.5254 23.48C53.648 23.48 53.784 23.5387 53.9334 23.656C54.0827 23.768 54.2614 23.8933 54.4694 24.032C54.6827 24.1653 54.9387 24.2907 55.2374 24.408C55.536 24.52 55.8934 24.576 56.3094 24.576C56.9867 24.576 57.5094 24.4107 57.8774 24.08C58.2507 23.7493 58.4374 23.2933 58.4374 22.712C58.4374 22.3867 58.36 22.1227 58.2054 21.92C58.0507 21.712 57.8454 21.5387 57.5894 21.4C57.3387 21.2613 57.0507 21.144 56.7254 21.048C56.4 20.952 56.0694 20.8507 55.7334 20.744C55.3974 20.632 55.0667 20.504 54.7414 20.36C54.416 20.2107 54.1254 20.0187 53.8694 19.784C53.6187 19.544 53.416 19.2507 53.2614 18.904C53.1067 18.552 53.0294 18.1147 53.0294 17.592C53.0294 17.176 53.1094 16.7733 53.2694 16.384C53.4347 15.9947 53.672 15.6507 53.9814 15.352C54.296 15.048 54.6827 14.8053 55.1414 14.624C55.6 14.4427 56.1227 14.352 56.7094 14.352C57.3707 14.352 57.976 14.456 58.5254 14.664C59.08 14.872 59.5574 15.168 59.9574 15.552L59.5014 16.448ZM68.089 21.68L66.505 17.472C66.377 17.1467 66.2463 16.7333 66.113 16.232C66.0543 16.4827 65.9903 16.7147 65.921 16.928C65.8517 17.136 65.7877 17.32 65.729 17.48L64.145 21.68H68.089ZM71.633 26H70.185C70.0197 26 69.8863 25.96 69.785 25.88C69.6837 25.7947 69.6063 25.6907 69.553 25.568L68.593 23.024H63.633L62.673 25.568C62.6303 25.6747 62.5557 25.7733 62.449 25.864C62.3423 25.9547 62.209 26 62.049 26H60.601L65.169 14.48H67.065L71.633 26ZM87.387 14.48L83.803 26H82.115L79.411 17.728C79.379 17.6373 79.347 17.5387 79.315 17.432C79.2883 17.3253 79.2617 17.2107 79.235 17.088C79.2083 17.2107 79.179 17.3253 79.147 17.432C79.1203 17.5387 79.091 17.6373 79.059 17.728L76.331 26H74.643L71.059 14.48H72.627C72.787 14.48 72.9203 14.52 73.027 14.6C73.139 14.6747 73.2137 14.7787 73.251 14.912L75.411 22.296C75.4537 22.456 75.4937 22.6293 75.531 22.816C75.5683 23.0027 75.6057 23.1973 75.643 23.4C75.6803 23.1973 75.7203 23.0027 75.763 22.816C75.811 22.624 75.8617 22.4507 75.915 22.296L78.387 14.912C78.4243 14.8053 78.499 14.7067 78.611 14.616C78.723 14.5253 78.8563 14.48 79.011 14.48H79.555C79.7203 14.48 79.8537 14.5227 79.955 14.608C80.0563 14.688 80.1337 14.7893 80.187 14.912L82.651 22.296C82.7043 22.4507 82.7523 22.6187 82.795 22.8C82.843 22.976 82.8857 23.1627 82.923 23.36C82.9603 23.1627 82.995 22.976 83.027 22.8C83.0643 22.6187 83.1043 22.4507 83.147 22.296L85.299 14.912C85.331 14.7947 85.403 14.6933 85.515 14.608C85.6323 14.5227 85.7683 14.48 85.923 14.48H87.387ZM100.774 23.432C100.876 23.432 100.964 23.472 101.038 23.552L101.782 24.36C101.313 24.9253 100.737 25.3627 100.054 25.672C99.3716 25.976 98.5556 26.128 97.6063 26.128C96.7636 26.128 96.0009 25.984 95.3183 25.696C94.6409 25.4027 94.0623 24.9973 93.5823 24.48C93.1023 23.9573 92.7316 23.336 92.4703 22.616C92.2143 21.896 92.0863 21.104 92.0863 20.24C92.0863 19.376 92.2223 18.584 92.4943 17.864C92.7716 17.1387 93.1583 16.5173 93.6543 16C94.1556 15.4773 94.7529 15.072 95.4462 14.784C96.1449 14.496 96.9129 14.352 97.7503 14.352C98.5823 14.352 99.3156 14.488 99.9503 14.76C100.59 15.0267 101.145 15.384 101.614 15.832L100.998 16.704C100.956 16.7627 100.905 16.8133 100.846 16.856C100.788 16.8987 100.708 16.92 100.606 16.92C100.5 16.92 100.377 16.872 100.238 16.776C100.105 16.6747 99.9316 16.5653 99.7183 16.448C99.5103 16.3253 99.2463 16.216 98.9263 16.12C98.6116 16.0187 98.2169 15.968 97.7423 15.968C97.1929 15.968 96.6889 16.064 96.2303 16.256C95.7716 16.448 95.3769 16.728 95.0463 17.096C94.7156 17.464 94.4569 17.912 94.2703 18.44C94.0889 18.968 93.9983 19.568 93.9983 20.24C93.9983 20.9173 94.0943 21.5227 94.2863 22.056C94.4783 22.584 94.7423 23.032 95.0783 23.4C95.4143 23.7627 95.8089 24.04 96.2623 24.232C96.7156 24.424 97.2036 24.52 97.7263 24.52C98.0463 24.52 98.3316 24.504 98.5823 24.472C98.8383 24.4347 99.0729 24.3787 99.2863 24.304C99.4996 24.224 99.6996 24.1253 99.8863 24.008C100.078 23.8907 100.268 23.7467 100.454 23.576C100.561 23.48 100.668 23.432 100.774 23.432ZM112.935 14.48V26H111.063V20.872H105.279V26H103.399V14.48H105.279V19.52H111.063V14.48H112.935ZM126.505 20.24C126.505 21.0933 126.366 21.88 126.089 22.6C125.811 23.32 125.419 23.9413 124.913 24.464C124.411 24.9813 123.806 25.3867 123.097 25.68C122.393 25.9733 121.609 26.12 120.745 26.12C119.886 26.12 119.102 25.9733 118.393 25.68C117.689 25.3867 117.083 24.9813 116.577 24.464C116.07 23.9413 115.678 23.32 115.401 22.6C115.123 21.88 114.985 21.0933 114.985 20.24C114.985 19.3867 115.123 18.6 115.401 17.88C115.678 17.16 116.07 16.5387 116.577 16.016C117.083 15.4933 117.689 15.0853 118.393 14.792C119.102 14.4987 119.886 14.352 120.745 14.352C121.609 14.352 122.393 14.4987 123.097 14.792C123.806 15.0853 124.411 15.4933 124.913 16.016C125.419 16.5387 125.811 17.16 126.089 17.88C126.366 18.6 126.505 19.3867 126.505 20.24ZM124.593 20.24C124.593 19.5787 124.502 18.984 124.321 18.456C124.145 17.928 123.889 17.48 123.553 17.112C123.222 16.744 122.819 16.4613 122.345 16.264C121.87 16.0667 121.337 15.968 120.745 15.968C120.158 15.968 119.627 16.0667 119.153 16.264C118.678 16.4613 118.273 16.744 117.937 17.112C117.601 17.48 117.342 17.928 117.161 18.456C116.979 18.984 116.889 19.5787 116.889 20.24C116.889 20.9067 116.979 21.504 117.161 22.032C117.342 22.56 117.601 23.008 117.937 23.376C118.273 23.7387 118.678 24.0187 119.153 24.216C119.627 24.408 120.158 24.504 120.745 24.504C121.337 24.504 121.87 24.408 122.345 24.216C122.819 24.0187 123.222 23.7387 123.553 23.376C123.889 23.008 124.145 22.56 124.321 22.032C124.502 21.504 124.593 20.9067 124.593 20.24ZM132.14 20.352C132.556 20.352 132.921 20.2987 133.236 20.192C133.556 20.0853 133.82 19.936 134.028 19.744C134.241 19.5467 134.401 19.3093 134.508 19.032C134.614 18.7547 134.668 18.4453 134.668 18.104C134.668 17.768 134.614 17.4667 134.508 17.2C134.406 16.9333 134.252 16.7067 134.044 16.52C133.836 16.3333 133.572 16.192 133.252 16.096C132.937 15.9947 132.566 15.944 132.14 15.944H130.428V20.352H132.14ZM132.14 14.48C132.892 14.48 133.542 14.568 134.092 14.744C134.646 14.92 135.102 15.168 135.46 15.488C135.822 15.8027 136.092 16.184 136.268 16.632C136.444 17.0747 136.532 17.5653 136.532 18.104C136.532 18.6533 136.438 19.1573 136.252 19.616C136.065 20.0693 135.788 20.4613 135.42 20.792C135.052 21.1173 134.593 21.3733 134.044 21.56C133.5 21.7413 132.865 21.832 132.14 21.832H130.428V26H128.556V14.48H132.14ZM140.201 26H138.321V14.48H140.201V26ZM152.467 14.48V26H151.515C151.371 26 151.248 25.976 151.147 25.928C151.045 25.8747 150.949 25.7893 150.859 25.672L144.531 17.544C144.547 17.6987 144.557 17.8533 144.563 18.008C144.573 18.1573 144.579 18.296 144.579 18.424V26H142.931V14.48H143.907C143.987 14.48 144.053 14.4853 144.107 14.496C144.165 14.5013 144.219 14.5147 144.267 14.536C144.315 14.5573 144.36 14.5893 144.403 14.632C144.445 14.6747 144.491 14.728 144.539 14.792L150.875 22.928C150.859 22.7627 150.845 22.6 150.835 22.44C150.829 22.28 150.827 22.1307 150.827 21.992V14.48H152.467Z" fill="black"/>
<path d="M28.624 39.48V51H26.976V43.104C26.976 42.976 26.9787 42.8373 26.984 42.688C26.9947 42.5333 27.008 42.3787 27.024 42.224L23.32 49.064C23.176 49.3467 22.9547 49.488 22.656 49.488H22.392C22.088 49.488 21.8667 49.3467 21.728 49.064L17.968 42.208C17.984 42.3627 17.9947 42.5173 18 42.672C18.0107 42.8267 18.016 42.9707 18.016 43.104V51H16.368V39.48H17.768C17.9333 39.48 18.0613 39.496 18.152 39.528C18.2427 39.5547 18.3253 39.6427 18.4 39.792L22.096 46.488C22.176 46.6427 22.2507 46.8027 22.32 46.968C22.3947 47.128 22.4613 47.2933 22.52 47.464C22.584 47.2933 22.6507 47.1253 22.72 46.96C22.7947 46.7893 22.872 46.6267 22.952 46.472L26.592 39.792C26.6667 39.6427 26.7493 39.5547 26.84 39.528C26.9307 39.496 27.0587 39.48 27.224 39.48H28.624ZM37.4484 46.68L35.8644 42.472C35.7364 42.1467 35.6057 41.7333 35.4724 41.232C35.4137 41.4827 35.3497 41.7147 35.2804 41.928C35.211 42.136 35.147 42.32 35.0884 42.48L33.5044 46.68H37.4484ZM40.9924 51H39.5444C39.379 51 39.2457 50.96 39.1444 50.88C39.043 50.7947 38.9657 50.6907 38.9124 50.568L37.9524 48.024H32.9924L32.0324 50.568C31.9897 50.6747 31.915 50.7733 31.8084 50.864C31.7017 50.9547 31.5684 51 31.4084 51H29.9604L34.5284 39.48H36.4244L40.9924 51ZM48.9928 49.432V51H42.3368V39.48H44.2088V49.432H48.9928ZM57.0616 41.04H53.4696V51H51.6056V41.04H48.0056V39.48H57.0616V41.04ZM63.6359 46.68L62.0519 42.472C61.9239 42.1467 61.7932 41.7333 61.6599 41.232C61.6012 41.4827 61.5372 41.7147 61.4679 41.928C61.3985 42.136 61.3345 42.32 61.2759 42.48L59.6919 46.68H63.6359ZM67.1799 51H65.7319C65.5665 51 65.4332 50.96 65.3319 50.88C65.2305 50.7947 65.1532 50.6907 65.0999 50.568L64.1399 48.024H59.1799L58.2199 50.568C58.1772 50.6747 58.1025 50.7733 57.9959 50.864C57.8892 50.9547 57.7559 51 57.5959 51H56.1479L60.7159 39.48H62.6119L67.1799 51Z" fill="black"/>
<path d="M271.347 20.864V22.576C271.347 23.088 271.294 23.504 271.187 23.824C271.08 24.1333 270.974 24.3947 270.867 24.608L262.099 42.656C261.918 43.0293 261.662 43.3493 261.331 43.616C261 43.872 260.558 44 260.003 44H257.139L266.083 26.32C266.286 25.9573 266.483 25.6267 266.675 25.328C266.878 25.0187 267.102 24.7253 267.347 24.448H256.275C256.03 24.448 255.816 24.3573 255.635 24.176C255.454 23.9947 255.363 23.7813 255.363 23.536V20.864H271.347ZM277.718 27.808C277.718 29.0987 278.048 30.0853 278.71 30.768C279.382 31.44 280.331 31.776 281.558 31.776C282.198 31.776 282.768 31.6747 283.27 31.472C283.771 31.2693 284.192 30.992 284.534 30.64C284.875 30.288 285.131 29.872 285.302 29.392C285.483 28.912 285.574 28.3947 285.574 27.84C285.574 27.2107 285.478 26.6507 285.286 26.16C285.094 25.6587 284.822 25.2373 284.47 24.896C284.118 24.5547 283.696 24.2933 283.206 24.112C282.726 23.9307 282.198 23.84 281.622 23.84C281.024 23.84 280.486 23.9413 280.006 24.144C279.526 24.336 279.115 24.608 278.774 24.96C278.432 25.312 278.171 25.7333 277.99 26.224C277.808 26.704 277.718 27.232 277.718 27.808ZM282.966 35.024C283.147 34.8 283.318 34.5813 283.478 34.368C283.638 34.1547 283.792 33.9413 283.942 33.728C283.408 34.0693 282.822 34.3307 282.182 34.512C281.542 34.6827 280.87 34.768 280.166 34.768C279.366 34.768 278.582 34.6293 277.814 34.352C277.046 34.0747 276.363 33.6587 275.766 33.104C275.168 32.5387 274.683 31.8453 274.31 31.024C273.947 30.192 273.766 29.2213 273.766 28.112C273.766 27.0773 273.958 26.1067 274.342 25.2C274.726 24.2933 275.264 23.4987 275.958 22.816C276.651 22.1333 277.483 21.5947 278.454 21.2C279.424 20.8053 280.496 20.608 281.67 20.608C282.854 20.608 283.915 20.7947 284.854 21.168C285.803 21.5413 286.608 22.064 287.27 22.736C287.942 23.408 288.454 24.2133 288.806 25.152C289.168 26.0907 289.35 27.12 289.35 28.24C289.35 28.9547 289.286 29.632 289.158 30.272C289.04 30.912 288.87 31.5307 288.646 32.128C288.422 32.7147 288.15 33.2907 287.83 33.856C287.51 34.4213 287.152 34.9813 286.758 35.536L281.462 43.088C281.28 43.344 281.008 43.5627 280.646 43.744C280.283 43.9147 279.872 44 279.414 44H275.782L282.966 35.024Z" fill="#FFC300"/>
<g opacity="0.2">
<rect x="0.5" y="76.5" width="308" height="66" rx="4.5" fill="white" stroke="#B0B0B0"/>
<path d="M31.512 90.48L27.928 102H26.24L23.536 93.728C23.504 93.6373 23.472 93.5387 23.44 93.432C23.4133 93.3253 23.3867 93.2107 23.36 93.088C23.3333 93.2107 23.304 93.3253 23.272 93.432C23.2453 93.5387 23.216 93.6373 23.184 93.728L20.456 102H18.768L15.184 90.48H16.752C16.912 90.48 17.0453 90.52 17.152 90.6C17.264 90.6747 17.3387 90.7787 17.376 90.912L19.536 98.296C19.5787 98.456 19.6187 98.6293 19.656 98.816C19.6933 99.0027 19.7307 99.1973 19.768 99.4C19.8053 99.1973 19.8453 99.0027 19.888 98.816C19.936 98.624 19.9867 98.4507 20.04 98.296L22.512 90.912C22.5493 90.8053 22.624 90.7067 22.736 90.616C22.848 90.5253 22.9813 90.48 23.136 90.48H23.68C23.8453 90.48 23.9787 90.5227 24.08 90.608C24.1813 90.688 24.2587 90.7893 24.312 90.912L26.776 98.296C26.8293 98.4507 26.8773 98.6187 26.92 98.8C26.968 98.976 27.0107 99.1627 27.048 99.36C27.0853 99.1627 27.12 98.976 27.152 98.8C27.1893 98.6187 27.2293 98.4507 27.272 98.296L29.424 90.912C29.456 90.7947 29.528 90.6933 29.64 90.608C29.7573 90.5227 29.8933 90.48 30.048 90.48H31.512ZM38.4328 97.68L36.8488 93.472C36.7208 93.1467 36.5901 92.7333 36.4568 92.232C36.3981 92.4827 36.3341 92.7147 36.2648 92.928C36.1954 93.136 36.1314 93.32 36.0728 93.48L34.4888 97.68H38.4328ZM41.9768 102H40.5288C40.3634 102 40.2301 101.96 40.1288 101.88C40.0274 101.795 39.9501 101.691 39.8968 101.568L38.9368 99.024H33.9768L33.0168 101.568C32.9741 101.675 32.8994 101.773 32.7928 101.864C32.6861 101.955 32.5528 102 32.3928 102H30.9447L35.5128 90.48H37.4088L41.9768 102ZM46.6651 96C47.0918 96 47.4651 95.9493 47.7851 95.848C48.1051 95.7413 48.3718 95.5947 48.5851 95.408C48.7985 95.2213 48.9585 95 49.0651 94.744C49.1718 94.4827 49.2251 94.1947 49.2251 93.88C49.2251 93.2507 49.0171 92.7707 48.6011 92.44C48.1851 92.1093 47.5558 91.944 46.7131 91.944H45.1931V96H46.6651ZM52.0891 102H50.4171C50.0865 102 49.8465 101.872 49.6971 101.616L47.0091 97.736C46.9185 97.6027 46.8198 97.5067 46.7131 97.448C46.6065 97.3893 46.4465 97.36 46.2331 97.36H45.1931V102H43.3211V90.48H46.7131C47.4705 90.48 48.1211 90.5573 48.6651 90.712C49.2145 90.8667 49.6651 91.088 50.0171 91.376C50.3691 91.6587 50.6278 92 50.7931 92.4C50.9638 92.8 51.0491 93.2453 51.0491 93.736C51.0491 94.136 50.9878 94.5093 50.8651 94.856C50.7478 95.2027 50.5745 95.5173 50.3451 95.8C50.1211 96.0827 49.8438 96.328 49.5131 96.536C49.1825 96.744 48.8065 96.9067 48.3851 97.024C48.6145 97.1627 48.8118 97.3573 48.9771 97.608L52.0891 102ZM59.5014 92.448C59.4427 92.544 59.3814 92.616 59.3174 92.664C59.2534 92.7067 59.1734 92.728 59.0774 92.728C58.976 92.728 58.8614 92.6853 58.7334 92.6C58.6107 92.5147 58.456 92.4213 58.2694 92.32C58.088 92.2133 57.872 92.1173 57.6214 92.032C57.3707 91.9413 57.072 91.896 56.7254 91.896C56.4054 91.896 56.1227 91.936 55.8774 92.016C55.6374 92.096 55.4347 92.208 55.2694 92.352C55.104 92.496 54.9787 92.6667 54.8934 92.864C54.8134 93.056 54.7734 93.2667 54.7734 93.496C54.7734 93.7893 54.8507 94.0347 55.0054 94.232C55.16 94.424 55.3627 94.5893 55.6134 94.728C55.8694 94.8667 56.16 94.9893 56.4854 95.096C56.8107 95.1973 57.1414 95.3067 57.4774 95.424C57.8187 95.5413 58.152 95.6747 58.4774 95.824C58.8027 95.9733 59.0907 96.1627 59.3414 96.392C59.5974 96.6213 59.8027 96.9013 59.9574 97.232C60.112 97.5627 60.1894 97.9653 60.1894 98.44C60.1894 98.952 60.1014 99.432 59.9254 99.88C59.7494 100.328 59.4934 100.72 59.1574 101.056C58.8267 101.387 58.416 101.648 57.9254 101.84C57.44 102.032 56.8854 102.128 56.2614 102.128C55.8934 102.128 55.5334 102.091 55.1814 102.016C54.8347 101.947 54.5014 101.848 54.1814 101.72C53.8667 101.587 53.5707 101.427 53.2934 101.24C53.016 101.053 52.768 100.845 52.5494 100.616L53.0934 99.72C53.1414 99.6453 53.2027 99.5867 53.2774 99.544C53.352 99.5013 53.4347 99.48 53.5254 99.48C53.648 99.48 53.784 99.5387 53.9334 99.656C54.0827 99.768 54.2614 99.8933 54.4694 100.032C54.6827 100.165 54.9387 100.291 55.2374 100.408C55.536 100.52 55.8934 100.576 56.3094 100.576C56.9867 100.576 57.5094 100.411 57.8774 100.08C58.2507 99.7493 58.4374 99.2933 58.4374 98.712C58.4374 98.3867 58.36 98.1227 58.2054 97.92C58.0507 97.712 57.8454 97.5387 57.5894 97.4C57.3387 97.2613 57.0507 97.144 56.7254 97.048C56.4 96.952 56.0694 96.8507 55.7334 96.744C55.3974 96.632 55.0667 96.504 54.7414 96.36C54.416 96.2107 54.1254 96.0187 53.8694 95.784C53.6187 95.544 53.416 95.2507 53.2614 94.904C53.1067 94.552 53.0294 94.1147 53.0294 93.592C53.0294 93.176 53.1094 92.7733 53.2694 92.384C53.4347 91.9947 53.672 91.6507 53.9814 91.352C54.296 91.048 54.6827 90.8053 55.1414 90.624C55.6 90.4427 56.1227 90.352 56.7094 90.352C57.3707 90.352 57.976 90.456 58.5254 90.664C59.08 90.872 59.5574 91.168 59.9574 91.552L59.5014 92.448ZM68.089 97.68L66.505 93.472C66.377 93.1467 66.2463 92.7333 66.113 92.232C66.0543 92.4827 65.9903 92.7147 65.921 92.928C65.8517 93.136 65.7877 93.32 65.729 93.48L64.145 97.68H68.089ZM71.633 102H70.185C70.0197 102 69.8863 101.96 69.785 101.88C69.6837 101.795 69.6063 101.691 69.553 101.568L68.593 99.024H63.633L62.673 101.568C62.6303 101.675 62.5557 101.773 62.449 101.864C62.3423 101.955 62.209 102 62.049 102H60.601L65.169 90.48H67.065L71.633 102ZM87.387 90.48L83.803 102H82.115L79.411 93.728C79.379 93.6373 79.347 93.5387 79.315 93.432C79.2883 93.3253 79.2617 93.2107 79.235 93.088C79.2083 93.2107 79.179 93.3253 79.147 93.432C79.1203 93.5387 79.091 93.6373 79.059 93.728L76.331 102H74.643L71.059 90.48H72.627C72.787 90.48 72.9203 90.52 73.027 90.6C73.139 90.6747 73.2137 90.7787 73.251 90.912L75.411 98.296C75.4537 98.456 75.4937 98.6293 75.531 98.816C75.5683 99.0027 75.6057 99.1973 75.643 99.4C75.6803 99.1973 75.7203 99.0027 75.763 98.816C75.811 98.624 75.8617 98.4507 75.915 98.296L78.387 90.912C78.4243 90.8053 78.499 90.7067 78.611 90.616C78.723 90.5253 78.8563 90.48 79.011 90.48H79.555C79.7203 90.48 79.8537 90.5227 79.955 90.608C80.0563 90.688 80.1337 90.7893 80.187 90.912L82.651 98.296C82.7043 98.4507 82.7523 98.6187 82.795 98.8C82.843 98.976 82.8857 99.1627 82.923 99.36C82.9603 99.1627 82.995 98.976 83.027 98.8C83.0643 98.6187 83.1043 98.4507 83.147 98.296L85.299 90.912C85.331 90.7947 85.403 90.6933 85.515 90.608C85.6323 90.5227 85.7683 90.48 85.923 90.48H87.387ZM100.774 99.432C100.876 99.432 100.964 99.472 101.038 99.552L101.782 100.36C101.313 100.925 100.737 101.363 100.054 101.672C99.3716 101.976 98.5556 102.128 97.6063 102.128C96.7636 102.128 96.0009 101.984 95.3183 101.696C94.6409 101.403 94.0623 100.997 93.5823 100.48C93.1023 99.9573 92.7316 99.336 92.4703 98.616C92.2143 97.896 92.0863 97.104 92.0863 96.24C92.0863 95.376 92.2223 94.584 92.4943 93.864C92.7716 93.1387 93.1583 92.5173 93.6543 92C94.1556 91.4773 94.7529 91.072 95.4462 90.784C96.1449 90.496 96.9129 90.352 97.7503 90.352C98.5823 90.352 99.3156 90.488 99.9503 90.76C100.59 91.0267 101.145 91.384 101.614 91.832L100.998 92.704C100.956 92.7627 100.905 92.8133 100.846 92.856C100.788 92.8987 100.708 92.92 100.606 92.92C100.5 92.92 100.377 92.872 100.238 92.776C100.105 92.6747 99.9316 92.5653 99.7183 92.448C99.5103 92.3253 99.2463 92.216 98.9263 92.12C98.6116 92.0187 98.2169 91.968 97.7423 91.968C97.1929 91.968 96.6889 92.064 96.2303 92.256C95.7716 92.448 95.3769 92.728 95.0463 93.096C94.7156 93.464 94.4569 93.912 94.2703 94.44C94.0889 94.968 93.9983 95.568 93.9983 96.24C93.9983 96.9173 94.0943 97.5227 94.2863 98.056C94.4783 98.584 94.7423 99.032 95.0783 99.4C95.4143 99.7627 95.8089 100.04 96.2623 100.232C96.7156 100.424 97.2036 100.52 97.7263 100.52C98.0463 100.52 98.3316 100.504 98.5823 100.472C98.8383 100.435 99.0729 100.379 99.2863 100.304C99.4996 100.224 99.6996 100.125 99.8863 100.008C100.078 99.8907 100.268 99.7467 100.454 99.576C100.561 99.48 100.668 99.432 100.774 99.432ZM112.935 90.48V102H111.063V96.872H105.279V102H103.399V90.48H105.279V95.52H111.063V90.48H112.935ZM126.505 96.24C126.505 97.0933 126.366 97.88 126.089 98.6C125.811 99.32 125.419 99.9413 124.913 100.464C124.411 100.981 123.806 101.387 123.097 101.68C122.393 101.973 121.609 102.12 120.745 102.12C119.886 102.12 119.102 101.973 118.393 101.68C117.689 101.387 117.083 100.981 116.577 100.464C116.07 99.9413 115.678 99.32 115.401 98.6C115.123 97.88 114.985 97.0933 114.985 96.24C114.985 95.3867 115.123 94.6 115.401 93.88C115.678 93.16 116.07 92.5387 116.577 92.016C117.083 91.4933 117.689 91.0853 118.393 90.792C119.102 90.4987 119.886 90.352 120.745 90.352C121.609 90.352 122.393 90.4987 123.097 90.792C123.806 91.0853 124.411 91.4933 124.913 92.016C125.419 92.5387 125.811 93.16 126.089 93.88C126.366 94.6 126.505 95.3867 126.505 96.24ZM124.593 96.24C124.593 95.5787 124.502 94.984 124.321 94.456C124.145 93.928 123.889 93.48 123.553 93.112C123.222 92.744 122.819 92.4613 122.345 92.264C121.87 92.0667 121.337 91.968 120.745 91.968C120.158 91.968 119.627 92.0667 119.153 92.264C118.678 92.4613 118.273 92.744 117.937 93.112C117.601 93.48 117.342 93.928 117.161 94.456C116.979 94.984 116.889 95.5787 116.889 96.24C116.889 96.9067 116.979 97.504 117.161 98.032C117.342 98.56 117.601 99.008 117.937 99.376C118.273 99.7387 118.678 100.019 119.153 100.216C119.627 100.408 120.158 100.504 120.745 100.504C121.337 100.504 121.87 100.408 122.345 100.216C122.819 100.019 123.222 99.7387 123.553 99.376C123.889 99.008 124.145 98.56 124.321 98.032C124.502 97.504 124.593 96.9067 124.593 96.24ZM132.14 96.352C132.556 96.352 132.921 96.2987 133.236 96.192C133.556 96.0853 133.82 95.936 134.028 95.744C134.241 95.5467 134.401 95.3093 134.508 95.032C134.614 94.7547 134.668 94.4453 134.668 94.104C134.668 93.768 134.614 93.4667 134.508 93.2C134.406 92.9333 134.252 92.7067 134.044 92.52C133.836 92.3333 133.572 92.192 133.252 92.096C132.937 91.9947 132.566 91.944 132.14 91.944H130.428V96.352H132.14ZM132.14 90.48C132.892 90.48 133.542 90.568 134.092 90.744C134.646 90.92 135.102 91.168 135.46 91.488C135.822 91.8027 136.092 92.184 136.268 92.632C136.444 93.0747 136.532 93.5653 136.532 94.104C136.532 94.6533 136.438 95.1573 136.252 95.616C136.065 96.0693 135.788 96.4613 135.42 96.792C135.052 97.1173 134.593 97.3733 134.044 97.56C133.5 97.7413 132.865 97.832 132.14 97.832H130.428V102H128.556V90.48H132.14ZM140.201 102H138.321V90.48H140.201V102ZM152.467 90.48V102H151.515C151.371 102 151.248 101.976 151.147 101.928C151.045 101.875 150.949 101.789 150.859 101.672L144.531 93.544C144.547 93.6987 144.557 93.8533 144.563 94.008C144.573 94.1573 144.579 94.296 144.579 94.424V102H142.931V90.48H143.907C143.987 90.48 144.053 90.4853 144.107 90.496C144.165 90.5013 144.219 90.5147 144.267 90.536C144.315 90.5573 144.36 90.5893 144.403 90.632C144.445 90.6747 144.491 90.728 144.539 90.792L150.875 98.928C150.859 98.7627 150.845 98.6 150.835 98.44C150.829 98.28 150.827 98.1307 150.827 97.992V90.48H152.467Z" fill="black"/>
<path d="M28.624 115.48V127H26.976V119.104C26.976 118.976 26.9787 118.837 26.984 118.688C26.9947 118.533 27.008 118.379 27.024 118.224L23.32 125.064C23.176 125.347 22.9547 125.488 22.656 125.488H22.392C22.088 125.488 21.8667 125.347 21.728 125.064L17.968 118.208C17.984 118.363 17.9947 118.517 18 118.672C18.0107 118.827 18.016 118.971 18.016 119.104V127H16.368V115.48H17.768C17.9333 115.48 18.0613 115.496 18.152 115.528C18.2427 115.555 18.3253 115.643 18.4 115.792L22.096 122.488C22.176 122.643 22.2507 122.803 22.32 122.968C22.3947 123.128 22.4613 123.293 22.52 123.464C22.584 123.293 22.6507 123.125 22.72 122.96C22.7947 122.789 22.872 122.627 22.952 122.472L26.592 115.792C26.6667 115.643 26.7493 115.555 26.84 115.528C26.9307 115.496 27.0587 115.48 27.224 115.48H28.624ZM37.4484 122.68L35.8644 118.472C35.7364 118.147 35.6057 117.733 35.4724 117.232C35.4137 117.483 35.3497 117.715 35.2804 117.928C35.211 118.136 35.147 118.32 35.0884 118.48L33.5044 122.68H37.4484ZM40.9924 127H39.5444C39.379 127 39.2457 126.96 39.1444 126.88C39.043 126.795 38.9657 126.691 38.9124 126.568L37.9524 124.024H32.9924L32.0324 126.568C31.9897 126.675 31.915 126.773 31.8084 126.864C31.7017 126.955 31.5684 127 31.4084 127H29.9604L34.5284 115.48H36.4244L40.9924 127ZM48.9928 125.432V127H42.3368V115.48H44.2088V125.432H48.9928ZM57.0616 117.04H53.4696V127H51.6056V117.04H48.0056V115.48H57.0616V117.04ZM63.6359 122.68L62.0519 118.472C61.9239 118.147 61.7932 117.733 61.6599 117.232C61.6012 117.483 61.5372 117.715 61.4679 117.928C61.3985 118.136 61.3345 118.32 61.2759 118.48L59.6919 122.68H63.6359ZM67.1799 127H65.7319C65.5665 127 65.4332 126.96 65.3319 126.88C65.2305 126.795 65.1532 126.691 65.0999 126.568L64.1399 124.024H59.1799L58.2199 126.568C58.1772 126.675 58.1025 126.773 57.9959 126.864C57.8892 126.955 57.7559 127 57.5959 127H56.1479L60.7159 115.48H62.6119L67.1799 127Z" fill="black"/>
<path d="M243.665 105.264L242.865 106.256C243.313 106.032 243.793 105.861 244.305 105.744C244.827 105.616 245.387 105.552 245.985 105.552C246.859 105.552 247.707 105.696 248.529 105.984C249.361 106.272 250.091 106.709 250.721 107.296C251.35 107.872 251.857 108.592 252.241 109.456C252.625 110.32 252.817 111.328 252.817 112.48C252.817 113.557 252.619 114.571 252.225 115.52C251.83 116.459 251.275 117.28 250.561 117.984C249.846 118.688 248.982 119.243 247.969 119.648C246.966 120.053 245.857 120.256 244.641 120.256C243.403 120.256 242.294 120.059 241.313 119.664C240.331 119.269 239.494 118.72 238.801 118.016C238.107 117.301 237.574 116.448 237.201 115.456C236.838 114.453 236.657 113.344 236.657 112.128C236.657 111.04 236.875 109.925 237.312 108.784C237.761 107.632 238.449 106.437 239.377 105.2L244.897 97.792C245.089 97.536 245.366 97.3173 245.729 97.136C246.102 96.9547 246.529 96.864 247.009 96.864H250.529L243.665 105.264ZM244.561 117.024C245.19 117.024 245.766 116.917 246.289 116.704C246.822 116.491 247.275 116.192 247.649 115.808C248.033 115.424 248.331 114.976 248.545 114.464C248.758 113.941 248.865 113.376 248.865 112.768C248.865 112.107 248.763 111.515 248.561 110.992C248.358 110.459 248.07 110.011 247.697 109.648C247.323 109.275 246.875 108.992 246.353 108.8C245.83 108.608 245.254 108.512 244.625 108.512C243.995 108.512 243.425 108.619 242.913 108.832C242.401 109.045 241.963 109.344 241.601 109.728C241.238 110.101 240.955 110.549 240.753 111.072C240.55 111.584 240.449 112.139 240.449 112.736C240.449 113.376 240.534 113.963 240.705 114.496C240.886 115.019 241.147 115.467 241.489 115.84C241.841 116.213 242.273 116.507 242.785 116.72C243.297 116.923 243.889 117.024 244.561 117.024ZM271.347 96.864V98.576C271.347 99.088 271.294 99.504 271.187 99.824C271.08 100.133 270.974 100.395 270.867 100.608L262.099 118.656C261.918 119.029 261.662 119.349 261.331 119.616C261 119.872 260.558 120 260.003 120H257.139L266.083 102.32C266.286 101.957 266.483 101.627 266.675 101.328C266.878 101.019 267.102 100.725 267.347 100.448H256.275C256.03 100.448 255.816 100.357 255.635 100.176C255.454 99.9947 255.363 99.7813 255.363 99.536V96.864H271.347ZM277.718 103.808C277.718 105.099 278.048 106.085 278.71 106.768C279.382 107.44 280.331 107.776 281.558 107.776C282.198 107.776 282.768 107.675 283.27 107.472C283.771 107.269 284.192 106.992 284.534 106.64C284.875 106.288 285.131 105.872 285.302 105.392C285.483 104.912 285.574 104.395 285.574 103.84C285.574 103.211 285.478 102.651 285.286 102.16C285.094 101.659 284.822 101.237 284.47 100.896C284.118 100.555 283.696 100.293 283.206 100.112C282.726 99.9307 282.198 99.84 281.622 99.84C281.024 99.84 280.486 99.9413 280.006 100.144C279.526 100.336 279.115 100.608 278.774 100.96C278.432 101.312 278.171 101.733 277.99 102.224C277.808 102.704 277.718 103.232 277.718 103.808ZM282.966 111.024C283.147 110.8 283.318 110.581 283.478 110.368C283.638 110.155 283.792 109.941 283.942 109.728C283.408 110.069 282.822 110.331 282.182 110.512C281.542 110.683 280.87 110.768 280.166 110.768C279.366 110.768 278.582 110.629 277.814 110.352C277.046 110.075 276.363 109.659 275.766 109.104C275.168 108.539 274.683 107.845 274.31 107.024C273.947 106.192 273.766 105.221 273.766 104.112C273.766 103.077 273.958 102.107 274.342 101.2C274.726 100.293 275.264 99.4987 275.958 98.816C276.651 98.1333 277.483 97.5947 278.454 97.2C279.424 96.8053 280.496 96.608 281.67 96.608C282.854 96.608 283.915 96.7947 284.854 97.168C285.803 97.5413 286.608 98.064 287.27 98.736C287.942 99.408 288.454 100.213 288.806 101.152C289.168 102.091 289.35 103.12 289.35 104.24C289.35 104.955 289.286 105.632 289.158 106.272C289.04 106.912 288.87 107.531 288.646 108.128C288.422 108.715 288.15 109.291 287.83 109.856C287.51 110.421 287.152 110.981 286.758 111.536L281.462 119.088C281.28 119.344 281.008 119.563 280.646 119.744C280.283 119.915 279.872 120 279.414 120H275.782L282.966 111.024Z" fill="#FFC300"/>
</g>
<rect x="98.5" y="124.5" width="308" height="66" rx="4.5" fill="white" stroke="#B0B0B0"/>
<path d="M126.624 138.48V150H124.976V142.104C124.976 141.976 124.979 141.837 124.984 141.688C124.995 141.533 125.008 141.379 125.024 141.224L121.32 148.064C121.176 148.347 120.955 148.488 120.656 148.488H120.392C120.088 148.488 119.867 148.347 119.728 148.064L115.968 141.208C115.984 141.363 115.995 141.517 116 141.672C116.011 141.827 116.016 141.971 116.016 142.104V150H114.368V138.48H115.768C115.933 138.48 116.061 138.496 116.152 138.528C116.243 138.555 116.325 138.643 116.4 138.792L120.096 145.488C120.176 145.643 120.251 145.803 120.32 145.968C120.395 146.128 120.461 146.293 120.52 146.464C120.584 146.293 120.651 146.125 120.72 145.96C120.795 145.789 120.872 145.627 120.952 145.472L124.592 138.792C124.667 138.643 124.749 138.555 124.84 138.528C124.931 138.496 125.059 138.48 125.224 138.48H126.624ZM135.448 145.68L133.864 141.472C133.736 141.147 133.606 140.733 133.472 140.232C133.414 140.483 133.35 140.715 133.28 140.928C133.211 141.136 133.147 141.32 133.088 141.48L131.504 145.68H135.448ZM138.992 150H137.544C137.379 150 137.246 149.96 137.144 149.88C137.043 149.795 136.966 149.691 136.912 149.568L135.952 147.024H130.992L130.032 149.568C129.99 149.675 129.915 149.773 129.808 149.864C129.702 149.955 129.568 150 129.408 150H127.96L132.528 138.48H134.424L138.992 150ZM146.993 148.432V150H140.337V138.48H142.209V148.432H146.993ZM155.062 140.04H151.47V150H149.606V140.04H146.006V138.48H155.062V140.04ZM161.636 145.68L160.052 141.472C159.924 141.147 159.793 140.733 159.66 140.232C159.601 140.483 159.537 140.715 159.468 140.928C159.399 141.136 159.335 141.32 159.276 141.48L157.692 145.68H161.636ZM165.18 150H163.732C163.567 150 163.433 149.96 163.332 149.88C163.231 149.795 163.153 149.691 163.1 149.568L162.14 147.024H157.18L156.22 149.568C156.177 149.675 156.103 149.773 155.996 149.864C155.889 149.955 155.756 150 155.596 150H154.148L158.716 138.48H160.612L165.18 150Z" fill="black"/>
<path d="M121.024 173.432V175H114.368V163.48H116.24V173.432H121.024ZM128.73 170.68L127.146 166.472C127.018 166.147 126.887 165.733 126.754 165.232C126.695 165.483 126.631 165.715 126.562 165.928C126.492 166.136 126.428 166.32 126.37 166.48L124.786 170.68H128.73ZM132.274 175H130.826C130.66 175 130.527 174.96 130.426 174.88C130.324 174.795 130.247 174.691 130.194 174.568L129.234 172.024H124.274L123.314 174.568C123.271 174.675 123.196 174.773 123.09 174.864C122.983 174.955 122.85 175 122.69 175H121.242L125.81 163.48H127.706L132.274 175ZM136.962 169C137.389 169 137.762 168.949 138.082 168.848C138.402 168.741 138.669 168.595 138.882 168.408C139.095 168.221 139.255 168 139.362 167.744C139.469 167.483 139.522 167.195 139.522 166.88C139.522 166.251 139.314 165.771 138.898 165.44C138.482 165.109 137.853 164.944 137.01 164.944H135.49V169H136.962ZM142.386 175H140.714C140.383 175 140.143 174.872 139.994 174.616L137.306 170.736C137.215 170.603 137.117 170.507 137.01 170.448C136.903 170.389 136.743 170.36 136.53 170.36H135.49V175H133.618V163.48H137.01C137.767 163.48 138.418 163.557 138.962 163.712C139.511 163.867 139.962 164.088 140.314 164.376C140.666 164.659 140.925 165 141.09 165.4C141.261 165.8 141.346 166.245 141.346 166.736C141.346 167.136 141.285 167.509 141.162 167.856C141.045 168.203 140.871 168.517 140.642 168.8C140.418 169.083 140.141 169.328 139.81 169.536C139.479 169.744 139.103 169.907 138.682 170.024C138.911 170.163 139.109 170.357 139.274 170.608L142.386 175ZM153.31 163.48V175H152.358C152.214 175 152.092 174.976 151.99 174.928C151.889 174.875 151.793 174.789 151.702 174.672L145.374 166.544C145.39 166.699 145.401 166.853 145.406 167.008C145.417 167.157 145.422 167.296 145.422 167.424V175H143.774V163.48H144.75C144.83 163.48 144.897 163.485 144.95 163.496C145.009 163.501 145.062 163.515 145.11 163.536C145.158 163.557 145.204 163.589 145.246 163.632C145.289 163.675 145.334 163.728 145.382 163.792L151.718 171.928C151.702 171.763 151.689 171.6 151.678 171.44C151.673 171.28 151.67 171.131 151.67 170.992V163.48H153.31ZM162.152 170.68L160.568 166.472C160.44 166.147 160.309 165.733 160.176 165.232C160.117 165.483 160.053 165.715 159.984 165.928C159.914 166.136 159.85 166.32 159.792 166.48L158.208 170.68H162.152ZM165.696 175H164.248C164.082 175 163.949 174.96 163.848 174.88C163.746 174.795 163.669 174.691 163.616 174.568L162.656 172.024H157.696L156.736 174.568C156.693 174.675 156.618 174.773 156.512 174.864C156.405 174.955 156.272 175 156.112 175H154.663L159.232 163.48H161.128L165.696 175ZM174.727 172.432C174.829 172.432 174.917 172.472 174.991 172.552L175.735 173.36C175.266 173.925 174.69 174.363 174.007 174.672C173.325 174.976 172.509 175.128 171.559 175.128C170.717 175.128 169.954 174.984 169.271 174.696C168.594 174.403 168.015 173.997 167.535 173.48C167.055 172.957 166.685 172.336 166.423 171.616C166.167 170.896 166.039 170.104 166.039 169.24C166.039 168.376 166.175 167.584 166.447 166.864C166.725 166.139 167.111 165.517 167.607 165C168.109 164.477 168.706 164.072 169.399 163.784C170.098 163.496 170.866 163.352 171.703 163.352C172.535 163.352 173.269 163.488 173.903 163.76C174.543 164.027 175.098 164.384 175.567 164.832L174.951 165.704C174.909 165.763 174.858 165.813 174.799 165.856C174.741 165.899 174.661 165.92 174.559 165.92C174.453 165.92 174.33 165.872 174.191 165.776C174.058 165.675 173.885 165.565 173.671 165.448C173.463 165.325 173.199 165.216 172.879 165.12C172.565 165.019 172.17 164.968 171.695 164.968C171.146 164.968 170.642 165.064 170.183 165.256C169.725 165.448 169.33 165.728 168.999 166.096C168.669 166.464 168.41 166.912 168.223 167.44C168.042 167.968 167.951 168.568 167.951 169.24C167.951 169.917 168.047 170.523 168.239 171.056C168.431 171.584 168.695 172.032 169.031 172.4C169.367 172.763 169.762 173.04 170.215 173.232C170.669 173.424 171.157 173.52 171.679 173.52C171.999 173.52 172.285 173.504 172.535 173.472C172.791 173.435 173.026 173.379 173.239 173.304C173.453 173.224 173.653 173.125 173.839 173.008C174.031 172.891 174.221 172.747 174.407 172.576C174.514 172.48 174.621 172.432 174.727 172.432ZM183.448 170.68L181.864 166.472C181.736 166.147 181.606 165.733 181.472 165.232C181.414 165.483 181.35 165.715 181.28 165.928C181.211 166.136 181.147 166.32 181.088 166.48L179.504 170.68H183.448ZM186.992 175H185.544C185.379 175 185.246 174.96 185.144 174.88C185.043 174.795 184.966 174.691 184.912 174.568L183.952 172.024H178.992L178.032 174.568C177.99 174.675 177.915 174.773 177.808 174.864C177.702 174.955 177.568 175 177.408 175H175.96L180.528 163.48H182.424L186.992 175Z" fill="black"/>
<path d="M369.347 144.864V146.576C369.347 147.088 369.294 147.504 369.187 147.824C369.08 148.133 368.974 148.395 368.867 148.608L360.099 166.656C359.918 167.029 359.662 167.349 359.331 167.616C359 167.872 358.558 168 358.003 168H355.139L364.083 150.32C364.286 149.957 364.483 149.627 364.675 149.328C364.878 149.019 365.102 148.725 365.347 148.448H354.275C354.03 148.448 353.816 148.357 353.635 148.176C353.454 147.995 353.363 147.781 353.363 147.536V144.864H369.347ZM375.718 151.808C375.718 153.099 376.048 154.085 376.71 154.768C377.382 155.44 378.331 155.776 379.558 155.776C380.198 155.776 380.768 155.675 381.27 155.472C381.771 155.269 382.192 154.992 382.534 154.64C382.875 154.288 383.131 153.872 383.302 153.392C383.483 152.912 383.574 152.395 383.574 151.84C383.574 151.211 383.478 150.651 383.286 150.16C383.094 149.659 382.822 149.237 382.47 148.896C382.118 148.555 381.696 148.293 381.206 148.112C380.726 147.931 380.198 147.84 379.622 147.84C379.024 147.84 378.486 147.941 378.006 148.144C377.526 148.336 377.115 148.608 376.774 148.96C376.432 149.312 376.171 149.733 375.99 150.224C375.808 150.704 375.718 151.232 375.718 151.808ZM380.966 159.024C381.147 158.8 381.318 158.581 381.478 158.368C381.638 158.155 381.792 157.941 381.942 157.728C381.408 158.069 380.822 158.331 380.182 158.512C379.542 158.683 378.87 158.768 378.166 158.768C377.366 158.768 376.582 158.629 375.814 158.352C375.046 158.075 374.363 157.659 373.766 157.104C373.168 156.539 372.683 155.845 372.31 155.024C371.947 154.192 371.766 153.221 371.766 152.112C371.766 151.077 371.958 150.107 372.342 149.2C372.726 148.293 373.264 147.499 373.958 146.816C374.651 146.133 375.483 145.595 376.454 145.2C377.424 144.805 378.496 144.608 379.67 144.608C380.854 144.608 381.915 144.795 382.854 145.168C383.803 145.541 384.608 146.064 385.27 146.736C385.942 147.408 386.454 148.213 386.806 149.152C387.168 150.091 387.35 151.12 387.35 152.24C387.35 152.955 387.286 153.632 387.158 154.272C387.04 154.912 386.87 155.531 386.646 156.128C386.422 156.715 386.15 157.291 385.83 157.856C385.51 158.421 385.152 158.981 384.758 159.536L379.462 167.088C379.28 167.344 379.008 167.563 378.646 167.744C378.283 167.915 377.872 168 377.414 168H373.782L380.966 159.024Z" fill="#FFC300"/>
<rect x="98.5" y="200.5" width="308" height="66" rx="4.5" fill="white" stroke="#B0B0B0"/>
<path d="M121.024 224.432V226H114.368V214.48H116.24V224.432H121.024ZM128.73 221.68L127.146 217.472C127.018 217.147 126.887 216.733 126.754 216.232C126.695 216.483 126.631 216.715 126.562 216.928C126.492 217.136 126.428 217.32 126.37 217.48L124.786 221.68H128.73ZM132.274 226H130.826C130.66 226 130.527 225.96 130.426 225.88C130.324 225.795 130.247 225.691 130.194 225.568L129.234 223.024H124.274L123.314 225.568C123.271 225.675 123.196 225.773 123.09 225.864C122.983 225.955 122.85 226 122.69 226H121.242L125.81 214.48H127.706L132.274 226ZM136.962 220C137.389 220 137.762 219.949 138.082 219.848C138.402 219.741 138.669 219.595 138.882 219.408C139.095 219.221 139.255 219 139.362 218.744C139.469 218.483 139.522 218.195 139.522 217.88C139.522 217.251 139.314 216.771 138.898 216.44C138.482 216.109 137.853 215.944 137.01 215.944H135.49V220H136.962ZM142.386 226H140.714C140.383 226 140.143 225.872 139.994 225.616L137.306 221.736C137.215 221.603 137.117 221.507 137.01 221.448C136.903 221.389 136.743 221.36 136.53 221.36H135.49V226H133.618V214.48H137.01C137.767 214.48 138.418 214.557 138.962 214.712C139.511 214.867 139.962 215.088 140.314 215.376C140.666 215.659 140.925 216 141.09 216.4C141.261 216.8 141.346 217.245 141.346 217.736C141.346 218.136 141.285 218.509 141.162 218.856C141.045 219.203 140.871 219.517 140.642 219.8C140.418 220.083 140.141 220.328 139.81 220.536C139.479 220.744 139.103 220.907 138.682 221.024C138.911 221.163 139.109 221.357 139.274 221.608L142.386 226ZM153.31 214.48V226H152.358C152.214 226 152.092 225.976 151.99 225.928C151.889 225.875 151.793 225.789 151.702 225.672L145.374 217.544C145.39 217.699 145.401 217.853 145.406 218.008C145.417 218.157 145.422 218.296 145.422 218.424V226H143.774V214.48H144.75C144.83 214.48 144.897 214.485 144.95 214.496C145.009 214.501 145.062 214.515 145.11 214.536C145.158 214.557 145.204 214.589 145.246 214.632C145.289 214.675 145.334 214.728 145.382 214.792L151.718 222.928C151.702 222.763 151.689 222.6 151.678 222.44C151.673 222.28 151.67 222.131 151.67 221.992V214.48H153.31ZM162.152 221.68L160.568 217.472C160.44 217.147 160.309 216.733 160.176 216.232C160.117 216.483 160.053 216.715 159.984 216.928C159.914 217.136 159.85 217.32 159.792 217.48L158.208 221.68H162.152ZM165.696 226H164.248C164.082 226 163.949 225.96 163.848 225.88C163.746 225.795 163.669 225.691 163.616 225.568L162.656 223.024H157.696L156.736 225.568C156.693 225.675 156.618 225.773 156.512 225.864C156.405 225.955 156.272 226 156.112 226H154.663L159.232 214.48H161.128L165.696 226ZM174.727 223.432C174.829 223.432 174.917 223.472 174.991 223.552L175.735 224.36C175.266 224.925 174.69 225.363 174.007 225.672C173.325 225.976 172.509 226.128 171.559 226.128C170.717 226.128 169.954 225.984 169.271 225.696C168.594 225.403 168.015 224.997 167.535 224.48C167.055 223.957 166.685 223.336 166.423 222.616C166.167 221.896 166.039 221.104 166.039 220.24C166.039 219.376 166.175 218.584 166.447 217.864C166.725 217.139 167.111 216.517 167.607 216C168.109 215.477 168.706 215.072 169.399 214.784C170.098 214.496 170.866 214.352 171.703 214.352C172.535 214.352 173.269 214.488 173.903 214.76C174.543 215.027 175.098 215.384 175.567 215.832L174.951 216.704C174.909 216.763 174.858 216.813 174.799 216.856C174.741 216.899 174.661 216.92 174.559 216.92C174.453 216.92 174.33 216.872 174.191 216.776C174.058 216.675 173.885 216.565 173.671 216.448C173.463 216.325 173.199 216.216 172.879 216.12C172.565 216.019 172.17 215.968 171.695 215.968C171.146 215.968 170.642 216.064 170.183 216.256C169.725 216.448 169.33 216.728 168.999 217.096C168.669 217.464 168.41 217.912 168.223 218.44C168.042 218.968 167.951 219.568 167.951 220.24C167.951 220.917 168.047 221.523 168.239 222.056C168.431 222.584 168.695 223.032 169.031 223.4C169.367 223.763 169.762 224.04 170.215 224.232C170.669 224.424 171.157 224.52 171.679 224.52C171.999 224.52 172.285 224.504 172.535 224.472C172.791 224.435 173.026 224.379 173.239 224.304C173.453 224.224 173.653 224.125 173.839 224.008C174.031 223.891 174.221 223.747 174.407 223.576C174.514 223.48 174.621 223.432 174.727 223.432ZM183.448 221.68L181.864 217.472C181.736 217.147 181.606 216.733 181.472 216.232C181.414 216.483 181.35 216.715 181.28 216.928C181.211 217.136 181.147 217.32 181.088 217.48L179.504 221.68H183.448ZM186.992 226H185.544C185.379 226 185.246 225.96 185.144 225.88C185.043 225.795 184.966 225.691 184.912 225.568L183.952 223.024H178.992L178.032 225.568C177.99 225.675 177.915 225.773 177.808 225.864C177.702 225.955 177.568 226 177.408 226H175.96L180.528 214.48H182.424L186.992 226Z" fill="black"/>
<path d="M129.512 239.48L125.928 251H124.24L121.536 242.728C121.504 242.637 121.472 242.539 121.44 242.432C121.413 242.325 121.387 242.211 121.36 242.088C121.333 242.211 121.304 242.325 121.272 242.432C121.245 242.539 121.216 242.637 121.184 242.728L118.456 251H116.768L113.184 239.48H114.752C114.912 239.48 115.045 239.52 115.152 239.6C115.264 239.675 115.339 239.779 115.376 239.912L117.536 247.296C117.579 247.456 117.619 247.629 117.656 247.816C117.693 248.003 117.731 248.197 117.768 248.4C117.805 248.197 117.845 248.003 117.888 247.816C117.936 247.624 117.987 247.451 118.04 247.296L120.512 239.912C120.549 239.805 120.624 239.707 120.736 239.616C120.848 239.525 120.981 239.48 121.136 239.48H121.68C121.845 239.48 121.979 239.523 122.08 239.608C122.181 239.688 122.259 239.789 122.312 239.912L124.776 247.296C124.829 247.451 124.877 247.619 124.92 247.8C124.968 247.976 125.011 248.163 125.048 248.36C125.085 248.163 125.12 247.976 125.152 247.8C125.189 247.619 125.229 247.451 125.272 247.296L127.424 239.912C127.456 239.795 127.528 239.693 127.64 239.608C127.757 239.523 127.893 239.48 128.048 239.48H129.512ZM136.433 246.68L134.849 242.472C134.721 242.147 134.59 241.733 134.457 241.232C134.398 241.483 134.334 241.715 134.265 241.928C134.195 242.136 134.131 242.32 134.073 242.48L132.489 246.68H136.433ZM139.977 251H138.529C138.363 251 138.23 250.96 138.129 250.88C138.027 250.795 137.95 250.691 137.897 250.568L136.937 248.024H131.977L131.017 250.568C130.974 250.675 130.899 250.773 130.793 250.864C130.686 250.955 130.553 251 130.393 251H128.945L133.513 239.48H135.409L139.977 251ZM144.665 245C145.092 245 145.465 244.949 145.785 244.848C146.105 244.741 146.372 244.595 146.585 244.408C146.798 244.221 146.958 244 147.065 243.744C147.172 243.483 147.225 243.195 147.225 242.88C147.225 242.251 147.017 241.771 146.601 241.44C146.185 241.109 145.556 240.944 144.713 240.944H143.193V245H144.665ZM150.089 251H148.417C148.086 251 147.846 250.872 147.697 250.616L145.009 246.736C144.918 246.603 144.82 246.507 144.713 246.448C144.606 246.389 144.446 246.36 144.233 246.36H143.193V251H141.321V239.48H144.713C145.47 239.48 146.121 239.557 146.665 239.712C147.214 239.867 147.665 240.088 148.017 240.376C148.369 240.659 148.628 241 148.793 241.4C148.964 241.8 149.049 242.245 149.049 242.736C149.049 243.136 148.988 243.509 148.865 243.856C148.748 244.203 148.574 244.517 148.345 244.8C148.121 245.083 147.844 245.328 147.513 245.536C147.182 245.744 146.806 245.907 146.385 246.024C146.614 246.163 146.812 246.357 146.977 246.608L150.089 251ZM157.501 241.448C157.443 241.544 157.381 241.616 157.317 241.664C157.253 241.707 157.173 241.728 157.077 241.728C156.976 241.728 156.861 241.685 156.733 241.6C156.611 241.515 156.456 241.421 156.269 241.32C156.088 241.213 155.872 241.117 155.621 241.032C155.371 240.941 155.072 240.896 154.725 240.896C154.405 240.896 154.123 240.936 153.877 241.016C153.637 241.096 153.435 241.208 153.269 241.352C153.104 241.496 152.979 241.667 152.893 241.864C152.813 242.056 152.773 242.267 152.773 242.496C152.773 242.789 152.851 243.035 153.005 243.232C153.16 243.424 153.363 243.589 153.613 243.728C153.869 243.867 154.16 243.989 154.485 244.096C154.811 244.197 155.141 244.307 155.477 244.424C155.819 244.541 156.152 244.675 156.477 244.824C156.803 244.973 157.091 245.163 157.341 245.392C157.597 245.621 157.803 245.901 157.957 246.232C158.112 246.563 158.189 246.965 158.189 247.44C158.189 247.952 158.101 248.432 157.925 248.88C157.749 249.328 157.493 249.72 157.157 250.056C156.827 250.387 156.416 250.648 155.925 250.84C155.44 251.032 154.885 251.128 154.261 251.128C153.893 251.128 153.533 251.091 153.181 251.016C152.835 250.947 152.501 250.848 152.181 250.72C151.867 250.587 151.571 250.427 151.293 250.24C151.016 250.053 150.768 249.845 150.549 249.616L151.093 248.72C151.141 248.645 151.203 248.587 151.277 248.544C151.352 248.501 151.435 248.48 151.525 248.48C151.648 248.48 151.784 248.539 151.933 248.656C152.083 248.768 152.261 248.893 152.469 249.032C152.683 249.165 152.939 249.291 153.237 249.408C153.536 249.52 153.893 249.576 154.309 249.576C154.987 249.576 155.509 249.411 155.877 249.08C156.251 248.749 156.437 248.293 156.437 247.712C156.437 247.387 156.36 247.123 156.205 246.92C156.051 246.712 155.845 246.539 155.589 246.4C155.339 246.261 155.051 246.144 154.725 246.048C154.4 245.952 154.069 245.851 153.733 245.744C153.397 245.632 153.067 245.504 152.741 245.36C152.416 245.211 152.125 245.019 151.869 244.784C151.619 244.544 151.416 244.251 151.261 243.904C151.107 243.552 151.029 243.115 151.029 242.592C151.029 242.176 151.109 241.773 151.269 241.384C151.435 240.995 151.672 240.651 151.981 240.352C152.296 240.048 152.683 239.805 153.141 239.624C153.6 239.443 154.123 239.352 154.709 239.352C155.371 239.352 155.976 239.456 156.525 239.664C157.08 239.872 157.557 240.168 157.957 240.552L157.501 241.448ZM166.089 246.68L164.505 242.472C164.377 242.147 164.246 241.733 164.113 241.232C164.054 241.483 163.99 241.715 163.921 241.928C163.852 242.136 163.788 242.32 163.729 242.48L162.145 246.68H166.089ZM169.633 251H168.185C168.02 251 167.886 250.96 167.785 250.88C167.684 250.795 167.606 250.691 167.553 250.568L166.593 248.024H161.633L160.673 250.568C160.63 250.675 160.556 250.773 160.449 250.864C160.342 250.955 160.209 251 160.049 251H158.601L163.169 239.48H165.065L169.633 251ZM185.387 239.48L181.803 251H180.115L177.411 242.728C177.379 242.637 177.347 242.539 177.315 242.432C177.288 242.325 177.262 242.211 177.235 242.088C177.208 242.211 177.179 242.325 177.147 242.432C177.12 242.539 177.091 242.637 177.059 242.728L174.331 251H172.643L169.059 239.48H170.627C170.787 239.48 170.92 239.52 171.027 239.6C171.139 239.675 171.214 239.779 171.251 239.912L173.411 247.296C173.454 247.456 173.494 247.629 173.531 247.816C173.568 248.003 173.606 248.197 173.643 248.4C173.68 248.197 173.72 248.003 173.763 247.816C173.811 247.624 173.862 247.451 173.915 247.296L176.387 239.912C176.424 239.805 176.499 239.707 176.611 239.616C176.723 239.525 176.856 239.48 177.011 239.48H177.555C177.72 239.48 177.854 239.523 177.955 239.608C178.056 239.688 178.134 239.789 178.187 239.912L180.651 247.296C180.704 247.451 180.752 247.619 180.795 247.8C180.843 247.976 180.886 248.163 180.923 248.36C180.96 248.163 180.995 247.976 181.027 247.8C181.064 247.619 181.104 247.451 181.147 247.296L183.299 239.912C183.331 239.795 183.403 239.693 183.515 239.608C183.632 239.523 183.768 239.48 183.923 239.48H185.387ZM198.774 248.432C198.876 248.432 198.964 248.472 199.038 248.552L199.782 249.36C199.313 249.925 198.737 250.363 198.054 250.672C197.372 250.976 196.556 251.128 195.606 251.128C194.764 251.128 194.001 250.984 193.318 250.696C192.641 250.403 192.062 249.997 191.582 249.48C191.102 248.957 190.732 248.336 190.47 247.616C190.214 246.896 190.086 246.104 190.086 245.24C190.086 244.376 190.222 243.584 190.494 242.864C190.772 242.139 191.158 241.517 191.654 241C192.156 240.477 192.753 240.072 193.446 239.784C194.145 239.496 194.913 239.352 195.75 239.352C196.582 239.352 197.316 239.488 197.95 239.76C198.59 240.027 199.145 240.384 199.614 240.832L198.998 241.704C198.956 241.763 198.905 241.813 198.846 241.856C198.788 241.899 198.708 241.92 198.606 241.92C198.5 241.92 198.377 241.872 198.238 241.776C198.105 241.675 197.932 241.565 197.718 241.448C197.51 241.325 197.246 241.216 196.926 241.12C196.612 241.019 196.217 240.968 195.742 240.968C195.193 240.968 194.689 241.064 194.23 241.256C193.772 241.448 193.377 241.728 193.046 242.096C192.716 242.464 192.457 242.912 192.27 243.44C192.089 243.968 191.998 244.568 191.998 245.24C191.998 245.917 192.094 246.523 192.286 247.056C192.478 247.584 192.742 248.032 193.078 248.4C193.414 248.763 193.809 249.04 194.262 249.232C194.716 249.424 195.204 249.52 195.726 249.52C196.046 249.52 196.332 249.504 196.582 249.472C196.838 249.435 197.073 249.379 197.286 249.304C197.5 249.224 197.7 249.125 197.886 249.008C198.078 248.891 198.268 248.747 198.454 248.576C198.561 248.48 198.668 248.432 198.774 248.432ZM210.935 239.48V251H209.063V245.872H203.279V251H201.399V239.48H203.279V244.52H209.063V239.48H210.935ZM224.505 245.24C224.505 246.093 224.366 246.88 224.089 247.6C223.811 248.32 223.419 248.941 222.913 249.464C222.411 249.981 221.806 250.387 221.097 250.68C220.393 250.973 219.609 251.12 218.745 251.12C217.886 251.12 217.102 250.973 216.393 250.68C215.689 250.387 215.083 249.981 214.577 249.464C214.07 248.941 213.678 248.32 213.401 247.6C213.123 246.88 212.985 246.093 212.985 245.24C212.985 244.387 213.123 243.6 213.401 242.88C213.678 242.16 214.07 241.539 214.577 241.016C215.083 240.493 215.689 240.085 216.393 239.792C217.102 239.499 217.886 239.352 218.745 239.352C219.609 239.352 220.393 239.499 221.097 239.792C221.806 240.085 222.411 240.493 222.913 241.016C223.419 241.539 223.811 242.16 224.089 242.88C224.366 243.6 224.505 244.387 224.505 245.24ZM222.593 245.24C222.593 244.579 222.502 243.984 222.321 243.456C222.145 242.928 221.889 242.48 221.553 242.112C221.222 241.744 220.819 241.461 220.345 241.264C219.87 241.067 219.337 240.968 218.745 240.968C218.158 240.968 217.627 241.067 217.153 241.264C216.678 241.461 216.273 241.744 215.937 242.112C215.601 242.48 215.342 242.928 215.161 243.456C214.979 243.984 214.889 244.579 214.889 245.24C214.889 245.907 214.979 246.504 215.161 247.032C215.342 247.56 215.601 248.008 215.937 248.376C216.273 248.739 216.678 249.019 217.153 249.216C217.627 249.408 218.158 249.504 218.745 249.504C219.337 249.504 219.87 249.408 220.345 249.216C220.819 249.019 221.222 248.739 221.553 248.376C221.889 248.008 222.145 247.56 222.321 247.032C222.502 246.504 222.593 245.907 222.593 245.24ZM230.14 245.352C230.556 245.352 230.921 245.299 231.236 245.192C231.556 245.085 231.82 244.936 232.028 244.744C232.241 244.547 232.401 244.309 232.508 244.032C232.614 243.755 232.668 243.445 232.668 243.104C232.668 242.768 232.614 242.467 232.508 242.2C232.406 241.933 232.252 241.707 232.044 241.52C231.836 241.333 231.572 241.192 231.252 241.096C230.937 240.995 230.566 240.944 230.14 240.944H228.428V245.352H230.14ZM230.14 239.48C230.892 239.48 231.542 239.568 232.092 239.744C232.646 239.92 233.102 240.168 233.46 240.488C233.822 240.803 234.092 241.184 234.268 241.632C234.444 242.075 234.532 242.565 234.532 243.104C234.532 243.653 234.438 244.157 234.252 244.616C234.065 245.069 233.788 245.461 233.42 245.792C233.052 246.117 232.593 246.373 232.044 246.56C231.5 246.741 230.865 246.832 230.14 246.832H228.428V251H226.556V239.48H230.14ZM238.201 251H236.321V239.48H238.201V251ZM250.467 239.48V251H249.515C249.371 251 249.248 250.976 249.147 250.928C249.045 250.875 248.949 250.789 248.859 250.672L242.531 242.544C242.547 242.699 242.557 242.853 242.563 243.008C242.573 243.157 242.579 243.296 242.579 243.424V251H240.931V239.48H241.907C241.987 239.48 242.053 239.485 242.107 239.496C242.165 239.501 242.219 239.515 242.267 239.536C242.315 239.557 242.36 239.589 242.403 239.632C242.445 239.675 242.491 239.728 242.539 239.792L248.875 247.928C248.859 247.763 248.845 247.6 248.835 247.44C248.829 247.28 248.827 247.131 248.827 246.992V239.48H250.467Z" fill="black"/>
<path d="M353.603 227.312C353.763 226.203 354.072 225.232 354.531 224.4C354.99 223.557 355.56 222.859 356.243 222.304C356.936 221.739 357.726 221.317 358.611 221.04C359.507 220.752 360.467 220.608 361.491 220.608C362.558 220.608 363.518 220.763 364.371 221.072C365.235 221.371 365.971 221.792 366.579 222.336C367.187 222.869 367.651 223.499 367.971 224.224C368.302 224.949 368.467 225.733 368.467 226.576C368.467 227.312 368.382 227.963 368.211 228.528C368.051 229.083 367.816 229.568 367.507 229.984C367.198 230.4 366.814 230.752 366.355 231.04C365.896 231.328 365.379 231.568 364.803 231.76C366.19 232.197 367.224 232.864 367.907 233.76C368.59 234.656 368.931 235.781 368.931 237.136C368.931 238.288 368.718 239.307 368.291 240.192C367.864 241.077 367.288 241.824 366.563 242.432C365.838 243.029 364.995 243.483 364.035 243.792C363.086 244.101 362.078 244.256 361.011 244.256C359.848 244.256 358.835 244.123 357.971 243.856C357.107 243.589 356.355 243.195 355.715 242.672C355.075 242.149 354.531 241.509 354.083 240.752C353.635 239.995 353.251 239.12 352.931 238.128L354.675 237.408C355.134 237.216 355.56 237.168 355.955 237.264C356.36 237.349 356.654 237.563 356.835 237.904C357.027 238.277 357.235 238.645 357.459 239.008C357.694 239.371 357.971 239.696 358.291 239.984C358.611 240.261 358.984 240.491 359.411 240.672C359.848 240.843 360.366 240.928 360.963 240.928C361.635 240.928 362.222 240.821 362.723 240.608C363.224 240.384 363.64 240.096 363.971 239.744C364.312 239.392 364.563 239.003 364.723 238.576C364.894 238.139 364.979 237.701 364.979 237.264C364.979 236.709 364.92 236.208 364.803 235.76C364.686 235.301 364.44 234.912 364.067 234.592C363.694 234.272 363.155 234.021 362.451 233.84C361.758 233.659 360.824 233.568 359.651 233.568V230.752C360.622 230.741 361.427 230.651 362.067 230.48C362.707 230.309 363.214 230.075 363.587 229.776C363.971 229.467 364.238 229.099 364.387 228.672C364.536 228.245 364.611 227.776 364.611 227.264C364.611 226.176 364.307 225.349 363.699 224.784C363.091 224.219 362.28 223.936 361.267 223.936C360.798 223.936 360.366 224.005 359.971 224.144C359.576 224.272 359.219 224.459 358.899 224.704C358.59 224.939 358.328 225.216 358.115 225.536C357.902 225.856 357.742 226.208 357.635 226.592C357.454 227.083 357.214 227.408 356.915 227.568C356.627 227.728 356.216 227.765 355.683 227.68L353.603 227.312ZM375.718 227.808C375.718 229.099 376.048 230.085 376.71 230.768C377.382 231.44 378.331 231.776 379.558 231.776C380.198 231.776 380.768 231.675 381.27 231.472C381.771 231.269 382.192 230.992 382.534 230.64C382.875 230.288 383.131 229.872 383.302 229.392C383.483 228.912 383.574 228.395 383.574 227.84C383.574 227.211 383.478 226.651 383.286 226.16C383.094 225.659 382.822 225.237 382.47 224.896C382.118 224.555 381.696 224.293 381.206 224.112C380.726 223.931 380.198 223.84 379.622 223.84C379.024 223.84 378.486 223.941 378.006 224.144C377.526 224.336 377.115 224.608 376.774 224.96C376.432 225.312 376.171 225.733 375.99 226.224C375.808 226.704 375.718 227.232 375.718 227.808ZM380.966 235.024C381.147 234.8 381.318 234.581 381.478 234.368C381.638 234.155 381.792 233.941 381.942 233.728C381.408 234.069 380.822 234.331 380.182 234.512C379.542 234.683 378.87 234.768 378.166 234.768C377.366 234.768 376.582 234.629 375.814 234.352C375.046 234.075 374.363 233.659 373.766 233.104C373.168 232.539 372.683 231.845 372.31 231.024C371.947 230.192 371.766 229.221 371.766 228.112C371.766 227.077 371.958 226.107 372.342 225.2C372.726 224.293 373.264 223.499 373.958 222.816C374.651 222.133 375.483 221.595 376.454 221.2C377.424 220.805 378.496 220.608 379.67 220.608C380.854 220.608 381.915 220.795 382.854 221.168C383.803 221.541 384.608 222.064 385.27 222.736C385.942 223.408 386.454 224.213 386.806 225.152C387.168 226.091 387.35 227.12 387.35 228.24C387.35 228.955 387.286 229.632 387.158 230.272C387.04 230.912 386.87 231.531 386.646 232.128C386.422 232.715 386.15 233.291 385.83 233.856C385.51 234.421 385.152 234.981 384.758 235.536L379.462 243.088C379.28 243.344 379.008 243.563 378.646 243.744C378.283 243.915 377.872 244 377.414 244H373.782L380.966 235.024Z" fill="#FFC300"/>
<path d="M74.7845 302.864V304.576C74.7845 305.088 74.7312 305.504 74.6245 305.824C74.5178 306.133 74.4112 306.395 74.3045 306.608L65.5365 324.656C65.3552 325.029 65.0992 325.349 64.7685 325.616C64.4378 325.872 63.9952 326 63.4405 326H60.5765L69.5205 308.32C69.7232 307.957 69.9205 307.627 70.1125 307.328C70.3152 307.019 70.5392 306.725 70.7845 306.448H59.7125C59.4672 306.448 59.2538 306.357 59.0725 306.176C58.8912 305.995 58.8005 305.781 58.8005 305.536V302.864H74.7845ZM82.371 311.264C82.883 311.157 83.3737 311.083 83.843 311.04C84.3123 310.987 84.7657 310.96 85.203 310.96C86.419 310.96 87.491 311.141 88.419 311.504C89.347 311.867 90.1257 312.368 90.755 313.008C91.3843 313.648 91.859 314.4 92.179 315.264C92.499 316.117 92.659 317.04 92.659 318.032C92.659 319.259 92.4403 320.379 92.003 321.392C91.5763 322.405 90.979 323.275 90.211 324C89.443 324.715 88.531 325.269 87.475 325.664C86.4297 326.059 85.2883 326.256 84.051 326.256C83.3257 326.256 82.6377 326.181 81.987 326.032C81.3363 325.883 80.723 325.685 80.147 325.44C79.5817 325.184 79.0537 324.896 78.563 324.576C78.083 324.245 77.651 323.899 77.267 323.536L78.483 321.856C78.739 321.493 79.075 321.312 79.491 321.312C79.7577 321.312 80.0297 321.397 80.307 321.568C80.5843 321.739 80.899 321.925 81.251 322.128C81.6137 322.331 82.035 322.517 82.515 322.688C83.0057 322.859 83.5923 322.944 84.275 322.944C85.0003 322.944 85.6403 322.827 86.195 322.592C86.7497 322.357 87.2083 322.032 87.571 321.616C87.9443 321.189 88.2217 320.688 88.403 320.112C88.595 319.525 88.691 318.891 88.691 318.208C88.691 316.949 88.323 315.968 87.587 315.264C86.8617 314.549 85.7843 314.192 84.355 314.192C83.2563 314.192 82.131 314.395 80.979 314.8L78.515 314.096L80.435 302.864H91.859V304.544C91.859 305.109 91.683 305.568 91.331 305.92C90.979 306.272 90.3817 306.448 89.539 306.448H83.187L82.371 311.264ZM103.718 323.168C104.368 323.168 104.939 323.077 105.43 322.896C105.92 322.704 106.331 322.443 106.662 322.112C107.003 321.781 107.259 321.387 107.43 320.928C107.6 320.469 107.686 319.973 107.686 319.44C107.686 318.171 107.334 317.211 106.63 316.56C105.926 315.909 104.955 315.584 103.718 315.584C102.48 315.584 101.51 315.909 100.806 316.56C100.102 317.211 99.7495 318.171 99.7495 319.44C99.7495 319.973 99.8348 320.469 100.006 320.928C100.176 321.387 100.427 321.781 100.758 322.112C101.099 322.443 101.515 322.704 102.006 322.896C102.496 323.077 103.067 323.168 103.718 323.168ZM103.718 305.584C103.131 305.584 102.624 305.675 102.198 305.856C101.771 306.037 101.414 306.283 101.126 306.592C100.848 306.891 100.64 307.237 100.502 307.632C100.374 308.027 100.31 308.443 100.31 308.88C100.31 309.339 100.363 309.787 100.47 310.224C100.587 310.651 100.779 311.035 101.046 311.376C101.312 311.707 101.664 311.973 102.102 312.176C102.539 312.379 103.078 312.48 103.718 312.48C104.358 312.48 104.896 312.379 105.334 312.176C105.771 311.973 106.123 311.707 106.39 311.376C106.656 311.035 106.843 310.651 106.95 310.224C107.067 309.787 107.126 309.339 107.126 308.88C107.126 308.443 107.056 308.027 106.918 307.632C106.779 307.237 106.571 306.891 106.294 306.592C106.016 306.283 105.664 306.037 105.238 305.856C104.811 305.675 104.304 305.584 103.718 305.584ZM107.622 313.936C109.03 314.395 110.07 315.099 110.742 316.048C111.414 316.987 111.75 318.139 111.75 319.504C111.75 320.528 111.552 321.456 111.158 322.288C110.774 323.12 110.23 323.829 109.526 324.416C108.822 325.003 107.974 325.456 106.982 325.776C106 326.096 104.912 326.256 103.718 326.256C102.523 326.256 101.43 326.096 100.438 325.776C99.4562 325.456 98.6135 325.003 97.9095 324.416C97.2055 323.829 96.6562 323.12 96.2615 322.288C95.8775 321.456 95.6855 320.528 95.6855 319.504C95.6855 318.139 96.0215 316.987 96.6935 316.048C97.3655 315.099 98.4055 314.395 99.8135 313.936C98.6935 313.467 97.8508 312.8 97.2855 311.936C96.7308 311.072 96.4535 310.032 96.4535 308.816C96.4535 307.941 96.6295 307.125 96.9815 306.368C97.3442 305.611 97.8455 304.955 98.4855 304.4C99.1255 303.835 99.8882 303.397 100.774 303.088C101.67 302.768 102.651 302.608 103.718 302.608C104.784 302.608 105.76 302.768 106.646 303.088C107.542 303.397 108.31 303.835 108.95 304.4C109.59 304.955 110.086 305.611 110.438 306.368C110.8 307.125 110.982 307.941 110.982 308.816C110.982 310.032 110.699 311.072 110.134 311.936C109.579 312.8 108.742 313.467 107.622 313.936Z" fill="#B0B0B0"/>
<path d="M203.873 323.04V326H191.073V323.04H195.76V309.552C195.76 309.019 195.777 308.469 195.809 307.904L192.481 310.688C192.289 310.837 192.097 310.933 191.905 310.976C191.723 311.008 191.547 311.008 191.377 310.976C191.217 310.944 191.073 310.891 190.945 310.816C190.817 310.731 190.721 310.64 190.657 310.544L189.409 308.832L196.465 302.832H199.713V323.04H203.873ZM211.155 309.808C211.155 311.099 211.486 312.085 212.147 312.768C212.819 313.44 213.768 313.776 214.995 313.776C215.635 313.776 216.206 313.675 216.707 313.472C217.208 313.269 217.63 312.992 217.971 312.64C218.312 312.288 218.568 311.872 218.739 311.392C218.92 310.912 219.011 310.395 219.011 309.84C219.011 309.211 218.915 308.651 218.723 308.16C218.531 307.659 218.259 307.237 217.907 306.896C217.555 306.555 217.134 306.293 216.643 306.112C216.163 305.931 215.635 305.84 215.059 305.84C214.462 305.84 213.923 305.941 213.443 306.144C212.963 306.336 212.552 306.608 212.211 306.96C211.87 307.312 211.608 307.733 211.427 308.224C211.246 308.704 211.155 309.232 211.155 309.808ZM216.403 317.024C216.584 316.8 216.755 316.581 216.915 316.368C217.075 316.155 217.23 315.941 217.379 315.728C216.846 316.069 216.259 316.331 215.619 316.512C214.979 316.683 214.307 316.768 213.603 316.768C212.803 316.768 212.019 316.629 211.251 316.352C210.483 316.075 209.8 315.659 209.203 315.104C208.606 314.539 208.12 313.845 207.747 313.024C207.384 312.192 207.203 311.221 207.203 310.112C207.203 309.077 207.395 308.107 207.779 307.2C208.163 306.293 208.702 305.499 209.395 304.816C210.088 304.133 210.92 303.595 211.891 303.2C212.862 302.805 213.934 302.608 215.107 302.608C216.291 302.608 217.352 302.795 218.291 303.168C219.24 303.541 220.046 304.064 220.707 304.736C221.379 305.408 221.891 306.213 222.243 307.152C222.606 308.091 222.787 309.12 222.787 310.24C222.787 310.955 222.723 311.632 222.595 312.272C222.478 312.912 222.307 313.531 222.083 314.128C221.859 314.715 221.587 315.291 221.267 315.856C220.947 316.421 220.59 316.981 220.195 317.536L214.899 325.088C214.718 325.344 214.446 325.563 214.083 325.744C213.72 325.915 213.31 326 212.851 326H209.219L216.403 317.024ZM241.91 302.864V304.576C241.91 305.088 241.856 305.504 241.75 305.824C241.643 306.133 241.536 306.395 241.43 306.608L232.661 324.656C232.48 325.029 232.224 325.349 231.894 325.616C231.563 325.872 231.12 326 230.566 326H227.702L236.646 308.32C236.848 307.957 237.046 307.627 237.238 307.328C237.44 307.019 237.664 306.725 237.91 306.448H226.838C226.592 306.448 226.379 306.357 226.198 306.176C226.016 305.995 225.926 305.781 225.926 305.536V302.864H241.91Z" fill="#FFC300"/>
<path d="M172.707 313.707C173.098 313.317 173.098 312.683 172.707 312.293L166.343 305.929C165.953 305.538 165.319 305.538 164.929 305.929C164.538 306.319 164.538 306.953 164.929 307.343L170.586 313L164.929 318.657C164.538 319.047 164.538 319.681 164.929 320.071C165.319 320.462 165.953 320.462 166.343 320.071L172.707 313.707ZM124 314H172V312H124V314Z" fill="#FFC300"/>
</svg>
