<svg width="1125" height="878" viewBox="0 0 1125 878" fill="none" xmlns="http://www.w3.org/2000/svg">
<g opacity="0.5">
<path d="M770.574 -419.29C767.027 -418.58 767.838 -416.349 772.297 -414.22C774.527 -413.206 776.351 -412.09 776.351 -411.685C776.351 -411.279 775.135 -410.062 773.615 -408.845C769.561 -405.6 768.243 -403.369 767.128 -396.981C766.52 -393.736 765.405 -390.085 764.595 -388.868C763.378 -386.84 756.385 -382.48 754.459 -382.48C754.054 -382.48 754.155 -385.623 754.459 -389.578C755.068 -395.865 754.966 -396.677 753.142 -397.893C751.216 -399.11 751.216 -399.11 753.243 -402.051C755.878 -405.702 756.993 -413.916 754.966 -413.916C753.142 -413.916 752.635 -413.104 740.574 -390.592C725.068 -361.489 723.953 -360.069 721.723 -366.356C720.101 -371.122 720.304 -373.759 723.041 -379.64C724.459 -382.581 726.487 -387.55 727.703 -390.592C728.818 -393.634 731.959 -399.313 734.595 -403.065C739.155 -409.758 739.257 -410.062 737.331 -411.482C734.392 -413.611 731.858 -413.206 730.541 -410.366C729.223 -407.324 728.108 -407.121 727.196 -409.758C726.182 -413.104 722.534 -416.958 720.507 -416.958C718.176 -416.958 717.061 -414.626 715.541 -406.614C714.932 -403.471 713.716 -400.327 712.804 -399.516C709.865 -397.184 708.446 -392.215 709.459 -388.463C709.966 -386.637 710.27 -385.015 710.068 -384.812C709.865 -384.609 707.939 -385.522 705.912 -387.043C703.784 -388.463 701.757 -389.578 701.25 -389.578C699.223 -389.578 695.068 -382.378 695.068 -378.931C695.068 -375.99 694.561 -375.077 692.128 -373.759C688.885 -372.136 688.48 -370.21 690.608 -365.139C691.318 -363.213 692.23 -360.475 692.635 -358.852C693.243 -356.317 693.142 -356.114 690.811 -356.723C688.987 -357.128 687.264 -356.621 685.034 -354.999C681.892 -352.768 681.892 -352.768 682.5 -354.897C683.007 -356.317 682.5 -357.635 680.98 -359.055C679.662 -360.272 678.446 -361.184 678.142 -361.184C677.838 -361.184 676.824 -361.691 676.014 -362.198C674.696 -363.01 674.797 -363.314 676.52 -364.632C679.257 -366.559 677.939 -367.573 674.392 -366.255C672.162 -365.342 671.858 -364.936 672.973 -364.227C674.493 -363.314 674.595 -363.314 669.426 -361.691C667.399 -361.083 667.5 -362.198 669.628 -363.72C671.149 -364.835 670.946 -365.139 667.399 -366.153C661.926 -367.674 660 -367.674 661.622 -366.052C662.331 -365.342 662.838 -362.503 662.838 -359.562C662.838 -356.723 663.547 -352.666 664.358 -350.74C665.169 -348.711 665.878 -346.582 665.878 -345.974C665.878 -343.945 662.737 -344.959 661.622 -347.495C660.507 -349.928 656.25 -352.058 652.196 -352.058C650.98 -352.058 647.838 -350.942 645.101 -349.523C642.264 -348.002 639.527 -347.19 638.311 -347.596C635.574 -348.407 633.446 -346.278 633.446 -342.323C633.446 -337.861 634.662 -334.819 638.007 -331.574C641.351 -328.227 640.845 -328.025 635.473 -330.763C630.203 -333.399 627.365 -333.399 627.365 -330.763C627.365 -328.329 624.426 -322.346 621.385 -318.594C618.75 -315.349 618.75 -316.16 621.284 -321.839C624.831 -329.85 627.77 -352.058 625.439 -353.478C623.919 -354.492 622.5 -351.754 620.27 -343.641C619.155 -339.281 615.608 -330.763 612.365 -324.78L606.588 -313.828L603.446 -317.276C600.912 -319.912 599.493 -320.622 596.351 -320.622C594.122 -320.622 591.385 -319.912 590.169 -319.101C587.939 -317.58 587.939 -317.58 588.041 -321.129C588.243 -325.996 586.216 -328.025 584.797 -324.273C584.291 -322.751 583.784 -319.912 583.784 -317.985C583.784 -313.422 582.162 -310.481 579.73 -310.481C577.095 -310.481 570.608 -304.701 570.608 -302.267C570.608 -301.253 571.52 -299.935 572.737 -299.327C573.851 -298.617 574.561 -297.501 574.257 -296.791C574.054 -296.082 574.662 -294.662 575.777 -293.648C577.703 -291.924 577.601 -291.823 570.405 -289.693C551.959 -284.318 540.203 -273.975 552.466 -273.975C555.507 -273.975 554.797 -272.657 550.338 -270.122C546.081 -267.688 545.169 -265.051 547.804 -262.82C549.831 -261.096 549.73 -259.778 547.095 -257.04C545.068 -254.911 545.068 -254.606 546.588 -252.883C551.25 -247.812 546.892 -244.77 533.209 -243.452C522.162 -242.438 519.02 -241.626 516.993 -239.091C513.547 -234.934 519.527 -232.703 524.291 -236.455C527.23 -238.787 531.385 -239.091 533.007 -237.063C534.527 -235.238 532.601 -233.717 528.041 -233.21C525 -232.906 524.493 -232.5 524.189 -230.066C523.784 -226.618 525.709 -225.706 531.081 -227.125C536.25 -228.444 536.858 -227.43 534.122 -221.751C531.689 -216.782 530.98 -216.376 529.054 -218.709C528.345 -219.52 526.824 -220.23 525.709 -220.23C524.595 -220.23 522.568 -221.142 521.351 -222.359C519.932 -223.678 518.412 -224.286 517.196 -223.88C514.966 -223.171 506.149 -214.45 506.858 -213.638C507.162 -213.436 511.216 -212.421 515.878 -211.509C525.608 -209.683 527.534 -208.872 529.155 -205.931C530.777 -202.889 529.561 -202.484 526.419 -204.917C520.034 -209.886 509.797 -209.886 504.73 -204.917C503.108 -203.295 501.182 -201.977 500.473 -201.977C499.662 -201.977 497.534 -200.456 495.709 -198.529L492.365 -195.081L495.304 -192.444L498.142 -189.808H494.291C489.527 -189.808 489.426 -188.287 494.088 -186.664C498.649 -184.94 498.649 -183.723 494.088 -183.723C490.034 -183.723 489.628 -182.811 492.568 -180.884C495.203 -179.262 494.493 -178.045 489.223 -175.611C486.892 -174.496 483.649 -172.467 481.926 -171.149C477.061 -167.194 479.291 -166.282 493.074 -166.687L504.932 -166.991L499.561 -162.124C496.52 -159.386 492.77 -156.547 491.25 -155.634C488.615 -154.316 488.108 -154.316 486.588 -155.735C484.155 -157.966 482.128 -157.763 479.595 -155.026C476.655 -151.882 476.757 -150.462 480.507 -145.899C483.75 -141.944 483.547 -141.336 479.392 -143.668C474.831 -146.305 472.703 -145.595 470.372 -140.829C466.723 -133.325 466.622 -130.485 469.764 -125.82L472.5 -121.561L469.662 -122.271C468.041 -122.677 466.014 -123.184 465.101 -123.488C462.872 -124.097 460.034 -121.257 460.845 -119.026C461.858 -115.984 465.507 -112.739 467.635 -112.739C468.851 -112.739 471.487 -114.159 473.615 -115.883C475.642 -117.607 477.365 -118.621 477.365 -118.114C477.365 -116.39 467.939 -106.553 460.541 -100.469C456.385 -97.1225 453.243 -93.9789 453.547 -93.4719C453.851 -93.0663 451.419 -90.3283 448.277 -87.4889L442.399 -82.3172H448.277C454.865 -82.3172 455.676 -81.3032 450.405 -79.3764C448.074 -78.5652 446.959 -77.5511 447.365 -76.7399C447.872 -75.2188 444.426 -70.1485 442.804 -70.1485C442.196 -70.1485 440.574 -71.5681 439.155 -73.1906C436.115 -76.8413 432.669 -77.3483 433.074 -74.0019C433.176 -72.3794 432.568 -71.6696 430.034 -70.9597C425.777 -69.8442 422.027 -65.0782 420 -58.3853C419.088 -55.2417 417.061 -51.1855 415.338 -49.2588L412.297 -45.811H415.338C419.493 -45.811 420.203 -44.2899 417.568 -40.9435L415.338 -38.2055L417.466 -37.9013C420.405 -37.3942 426.385 -39.4224 431.047 -42.3631C435.811 -45.5067 435.912 -47.1292 431.25 -46.6222C429.324 -46.4194 427.703 -46.5208 427.703 -46.9264C427.703 -48.1433 436.115 -54.7347 439.054 -55.8502C442.905 -57.2699 444.932 -55.0389 444.932 -49.3602C444.932 -46.0138 444.324 -44.2899 442.703 -42.7688C441.487 -41.6533 440.169 -40.7406 439.764 -40.7406C438.142 -40.7406 435.811 -37.3942 434.797 -33.7436C433.682 -29.3831 432.162 -28.5719 424.561 -28.5719C418.885 -28.5719 418.074 -27.8621 420.912 -25.4283L423.142 -23.5016L418.074 -23.7044L413.007 -24.0086L413.311 -28.1663C413.716 -33.0338 411.892 -35.0619 408.142 -34.1492C404.797 -33.2366 400.237 -28.5719 402.669 -28.5719C408.243 -28.5719 400.642 -21.3721 389.797 -16.3017C386.149 -14.5778 383.108 -12.9553 383.108 -12.6511C383.108 -12.3469 384.223 -11.2314 385.642 -10.116C387.466 -8.69627 388.176 -7.17517 388.176 -4.53862V-0.989395L384.73 -3.22034C380.27 -5.8569 379.358 -4.53862 382.601 0.227478L385.034 3.8781H376.216C366.182 3.8781 363.142 4.99358 366.385 7.52873C368.209 8.94841 367.601 9.04982 358.277 8.94841C340.946 8.6442 340.541 8.6442 340.541 10.9765C340.541 12.7005 341.25 13.0047 344.899 13.0047C349.561 13.0047 355.845 16.4525 357.872 20.2045C358.784 21.9284 358.48 23.0439 356.149 26.2889C354.628 28.4184 353.007 30.2437 352.601 30.2437C352.095 30.2437 351.689 28.1142 351.689 25.579C351.689 16.9595 348.142 14.83 341.554 19.2919C336.689 22.6383 335.676 24.6664 337.804 26.9987C338.716 28.0128 339.527 29.1283 339.527 29.4325C339.527 29.7367 336.689 29.7367 333.243 29.5339C327.77 29.1283 326.453 29.3311 324.02 31.2578C318.243 35.8211 319.966 36.6323 338.818 37.8492C348.041 38.4576 350.676 39.0661 350.676 40.283C350.676 41.804 345.405 43.4265 340.541 43.4265C336.892 43.4265 335.27 43.9336 334.662 45.1505C333.75 46.6715 333.243 46.3673 330.101 43.1223C325.541 38.1534 321.385 38.3562 317.027 43.8322C314.595 46.7729 314.797 47.28 317.939 47.6856C319.865 47.8884 320.878 48.6997 321.081 50.018C321.284 51.1334 322.095 52.5531 323.007 53.263C324.324 54.277 324.02 54.6826 321.081 56.2037L317.737 58.0291L322.703 58.9417L327.568 59.9558L319.865 62.8965C308.311 67.3584 309.223 68.1697 327.365 69.2851C333.243 69.5894 338.412 70.2992 338.818 70.8062C340.034 71.8203 334.764 73.4428 325.338 74.8625C321.182 75.4709 317.331 76.3836 316.824 76.8906C314.696 79.0201 323.716 87.1326 326.453 85.5101C327.973 84.4961 330.405 86.9298 330.405 89.465C330.405 90.5805 329.696 93.6226 328.784 96.1578C327.162 100.721 327.568 106.704 329.493 107.921C330.101 108.225 332.331 107.11 334.561 105.284C336.791 103.459 338.919 102.344 339.223 102.648C340.338 103.763 336.081 112.991 332.939 116.135C330.608 118.467 330 119.684 330.811 120.394C332.838 122.118 336.993 122.625 339.831 121.611C343.48 120.191 343.378 121.814 339.628 125.667C338.007 127.29 335.574 128.608 334.257 128.608C332.939 128.608 329.392 130.839 325.845 133.78C318.953 139.762 316.824 142.399 317.737 143.819C319.257 146.354 327.365 143.717 327.365 140.675C327.365 137.43 338.108 131.65 344.189 131.65C347.534 131.65 347.23 133.475 343.378 137.43C340.338 140.574 340.237 140.777 342.365 140.777C345.507 140.777 345.101 142.298 341.453 144.934C339.324 146.455 338.514 147.672 338.818 149.092C339.122 150.309 338.615 151.424 337.399 152.235C334.966 153.757 334.865 155.278 337.297 154.568C338.209 154.365 341.047 153.757 343.581 153.452L348.142 152.742L343.784 155.886C341.149 157.813 339.527 159.841 339.527 161.159V163.187L336.892 161.159C333.446 158.421 331.419 158.421 331.419 161.261V163.39L328.885 161.058L326.351 158.725V162.072C326.351 166.737 329.088 170.59 338.412 179.108C343.074 183.266 346.622 187.423 346.824 188.742C347.128 190.871 347.534 190.973 356.351 190.973C364.662 190.973 366.081 190.668 371.554 187.829C374.797 186.105 378.142 184.888 378.75 185.091C379.459 185.395 383.514 182.252 387.669 178.094C392.939 172.821 395.473 169.677 395.878 167.345C396.385 165.013 397.399 163.593 399.122 162.985C400.439 162.477 403.885 159.942 406.723 157.407C410.777 153.757 412.297 152.945 414.426 153.452C417.872 154.162 419.189 153.148 421.115 148.585C422.128 146.05 422.635 141.993 422.534 135.909C422.432 131.042 422.737 125.971 423.142 124.552C424.865 118.771 429.932 116.439 431.149 120.698C431.453 122.016 431.757 127.29 431.757 132.461C431.757 137.633 432.264 142.805 432.872 143.92C433.378 145.036 436.318 146.962 439.358 148.281C442.804 149.903 445.338 151.728 446.25 153.554L447.669 156.393L449.088 153.858C450 152.235 450.507 147.875 450.507 141.182C450.608 133.171 451.014 130.23 452.432 128.202C453.345 126.681 453.851 125.059 453.547 124.45C453.142 123.943 454.865 121.307 457.297 118.569C464.291 110.76 466.318 100.417 463.784 86.0172C461.655 74.4569 461.655 74.2541 465.101 73.0372C468.547 71.8203 470.98 68.5753 471.892 64.012C472.399 61.274 471.892 60.1586 467.939 55.8995C465.507 53.263 462.669 49.5109 461.655 47.5842C459.122 42.5139 458.007 27.9114 458.007 -2.20627C458.007 -31.1071 458.615 -35.5689 463.682 -44.3913C467.128 -50.2728 474.426 -56.6614 479.291 -57.9797C481.622 -58.5882 485.676 -58.791 488.412 -58.3853C495.304 -57.4727 498.142 -58.3853 499.662 -61.9346C501.385 -66.1936 500.068 -70.5541 495.507 -75.8272C490.845 -81.2018 490.743 -80.2891 497.838 -96.4127C504.527 -111.826 506.453 -120.243 507.568 -139.308C508.581 -156.547 509.189 -158.372 514.054 -158.372C518.108 -158.372 523.581 -160.806 524.899 -163.239C525.507 -164.456 525.709 -167.296 525.405 -170.034C524.797 -173.887 525.101 -175.003 526.824 -176.929C530.574 -180.986 545.27 -205.222 545.27 -207.453C545.27 -208.568 543.851 -211.61 542.23 -214.145C540.608 -216.681 539.189 -219.418 539.189 -220.23C539.189 -221.142 541.014 -223.678 543.345 -225.807C545.777 -228.241 549.122 -233.311 551.554 -238.28C556.014 -247.609 561.993 -254.708 565.439 -254.708C566.655 -254.708 568.987 -253.998 570.709 -253.085C577.095 -249.84 580.034 -253.795 581.149 -267.384C581.554 -271.846 582.365 -276.814 582.973 -278.336C583.987 -280.972 584.493 -281.175 587.737 -280.769C589.764 -280.566 597.061 -277.828 604.054 -274.685C621.385 -267.079 620.676 -267.079 621.385 -274.482C621.791 -277.828 623.007 -282.797 624.223 -285.434C626.959 -291.62 626.858 -292.634 623.919 -299.935C622.601 -303.18 621.689 -306.222 621.892 -306.526C622.095 -306.831 624.324 -307.439 626.959 -307.845C630 -308.25 633.851 -309.873 637.703 -312.509C645.203 -317.478 650.777 -319.202 653.919 -317.478C656.554 -316.059 657.669 -314.74 663.75 -304.904C671.149 -292.938 677.737 -287.158 683.919 -287.158C685.439 -287.158 689.392 -288.78 692.635 -290.707C695.878 -292.634 699.628 -294.256 701.047 -294.256C702.365 -294.256 706.52 -292.431 710.27 -290.2C718.987 -284.927 721.318 -285.028 724.358 -291.316C726.588 -296.082 728.919 -298.414 734.696 -301.558L737.737 -303.281L737.635 -313.219C737.635 -322.346 737.838 -323.968 741.182 -332.486C743.209 -337.658 745.135 -343.54 745.541 -345.466C746.25 -349.523 746.858 -349.928 760.338 -354.593C764.595 -356.013 771.385 -359.258 775.439 -361.793C779.493 -364.328 783.345 -366.153 783.953 -365.849C784.662 -365.646 789.73 -361.59 795.203 -356.824C813.649 -341.106 815.777 -334.616 807.061 -320.419C803.209 -314.233 802.905 -309.974 806.149 -309.974C807.466 -309.974 808.48 -311.191 809.493 -314.031C811.216 -318.999 814.764 -322.853 821.655 -327.416C827.939 -331.371 828.953 -334.109 826.419 -339.382C824.189 -344.148 822.77 -344.655 818.615 -342.019C816.689 -340.802 814.865 -339.889 814.459 -339.889C812.939 -339.889 814.054 -343.236 816.385 -345.466C820.338 -349.523 820.135 -351.449 815.574 -351.855C813.547 -352.058 812.027 -352.565 812.331 -353.072C813.446 -354.897 810.709 -358.142 804.831 -362.097C799.054 -366.052 797.027 -368.587 798.243 -370.412C799.257 -372.136 803.818 -371.325 811.622 -368.283C820.845 -364.531 820.845 -364.531 835.135 -373.759L845.372 -380.452L842.128 -384.609C838.074 -389.781 833.514 -391.911 829.155 -390.592C825.405 -389.578 825.405 -389.781 828.041 -394.243C830.169 -397.589 830.169 -397.589 828.142 -398.603C825.101 -400.226 823.176 -399.922 822.466 -397.691C821.858 -395.663 821.858 -395.663 819.122 -397.691C817.601 -398.908 814.764 -400.834 812.838 -402.051C810.709 -403.369 808.885 -405.702 808.176 -407.628C806.554 -412.8 805.439 -413.307 801.993 -410.468C800.068 -408.845 797.737 -405.093 796.115 -401.037C792.973 -393.026 789.426 -388.057 786.487 -387.246C783.345 -386.435 783.142 -387.956 785.574 -393.634C786.791 -396.474 787.5 -399.11 787.095 -399.415C786.791 -399.82 784.358 -399.11 781.926 -397.893C779.392 -396.677 777.061 -395.663 776.858 -395.663C776.655 -395.663 777.568 -397.386 778.987 -399.415C780.709 -402.051 781.318 -403.978 780.912 -405.905C780.405 -408.136 780.709 -408.744 782.635 -409.251C783.953 -409.555 785.878 -409.859 787.095 -409.859C789.831 -409.859 792.872 -413.206 792.365 -415.64C792.162 -416.654 790.541 -417.972 788.514 -418.682C785.068 -419.797 775.135 -420.203 770.574 -419.29ZM346.622 24.1594C349.054 28.9254 349.054 29.2297 347.23 29.2297C345.912 29.2297 343.581 24.3622 343.581 21.5228C343.581 19.1904 344.493 19.9003 346.622 24.1594Z" fill="#003566"/>
<path d="M772.297 -357.534C767.027 -354.492 760.845 -351.449 758.615 -350.841C756.385 -350.233 753.75 -349.016 752.838 -348.204C749.899 -345.771 746.25 -338.672 743.311 -330.154C741.081 -323.461 740.574 -320.52 740.676 -312.205L740.777 -302.267L737.737 -300.543C730.135 -296.386 726.689 -291.721 725.27 -283.913C724.865 -281.783 724.257 -280.059 723.953 -280.059C723.547 -280.059 718.885 -282.595 713.412 -285.637C708.041 -288.679 702.365 -291.214 700.743 -291.214C699.223 -291.214 695.878 -289.896 693.345 -288.273C686.757 -284.116 683.108 -283.609 677.737 -285.941C672.365 -288.273 667.905 -293.546 659.899 -306.425C654.426 -315.349 653.818 -316.059 651.081 -315.754C646.014 -315.146 643.277 -312.712 643.784 -309.366C644.392 -305.512 643.48 -305.005 638.818 -306.324C636.588 -306.932 634.662 -307.033 634.155 -306.526C632.433 -304.802 642.669 -295.27 657.264 -284.825C675 -272.048 684.73 -262.516 689.189 -253.288C692.23 -247.204 692.635 -245.277 693.243 -234.224C693.851 -224.59 694.358 -221.649 695.676 -220.737C696.892 -219.824 697.297 -217.897 697.297 -213.435C697.297 -208.974 698.007 -205.729 699.933 -201.47C702.466 -195.892 702.568 -195.081 701.757 -186.867C701.25 -182.101 700.946 -173.38 700.946 -167.498C700.946 -157.561 701.149 -156.344 704.291 -149.651C708.142 -141.133 712.905 -136.164 720.608 -132.31C724.054 -130.587 726.689 -128.356 727.5 -126.733C729.122 -123.184 731.655 -109.088 731.96 -101.077L732.264 -94.993H726.993C722.331 -94.993 721.318 -94.5873 718.074 -91.4437C716.047 -89.517 709.865 -81.3031 704.392 -73.1906C693.547 -57.1684 689.696 -52.808 683.818 -50.3742C677.838 -47.9405 670.034 -35.7717 669.933 -28.9775C669.933 -24.9212 668.615 -23.8058 661.926 -22.3861C656.453 -21.2706 655.642 -20.358 654.324 -14.2736C654.02 -12.7525 651.892 -9.10187 649.662 -6.16109C647.433 -3.1189 645.304 0.227509 645 1.34298C644.696 2.45844 645.405 7.22454 646.52 11.9906C647.737 16.7567 648.649 23.8552 648.649 27.81C648.649 33.0831 649.358 36.6324 651.183 41.1956C654.02 48.2941 654.324 53.6686 652.297 61.6797C650.372 69.3866 648.243 89.3636 649.054 92.5072C649.865 95.7522 652.297 97.0705 659.595 97.9831C665.27 98.693 665.372 98.7944 665.372 102.039C665.372 107.211 667.804 107.921 675.405 105.386C678.851 104.169 681.993 103.256 682.399 103.256C682.804 103.256 682.804 105.893 682.5 109.138C681.791 115.628 683.108 119.481 685.946 119.481C690.811 119.481 716.554 112.079 723.041 108.834C726.993 106.907 732.872 104.879 735.912 104.372C738.953 103.865 745.642 101.837 750.811 99.8084C756.588 97.4761 763.074 95.8536 768.243 95.2452C774.527 94.5353 777.365 93.7241 780.406 91.5945C785.068 88.3495 820.034 50.525 829.662 38.3563C838.885 26.5931 848.514 12.5991 851.96 5.90626C858.041 -5.95827 855.203 -15.3891 843.041 -23.603C835.743 -28.5719 829.764 -34.352 825.507 -40.6392C823.074 -44.1884 822.77 -45.1011 823.987 -45.8109C828.547 -48.3461 834.324 -53.315 835.338 -55.4445C836.96 -58.9937 835.642 -62.4416 830.574 -68.1203C826.115 -73.1906 825.912 -73.4948 826.115 -79.3764C826.318 -84.2439 825.912 -85.9678 824.088 -88.1987C820.338 -92.9648 819.628 -95.7028 819.122 -107.77C818.615 -121.663 820.034 -129.877 823.581 -133.73C827.939 -138.395 827.23 -141.133 814.662 -172.873L805.439 -195.892L809.392 -202.281C811.52 -205.729 815.878 -213.537 819.122 -219.621L824.899 -230.573L820.743 -237.367C815.574 -245.885 810.71 -250.956 804.122 -254.708C800.878 -256.533 798.547 -258.663 797.838 -260.488C794.189 -269.817 793.683 -278.944 796.318 -287.158C797.635 -291.315 797.737 -292.837 796.824 -294.358C795.101 -297.096 795.304 -298.211 798.345 -302.572C800.169 -305.208 800.98 -307.642 800.878 -310.177C800.777 -312.814 801.993 -316.16 804.933 -321.433C812.433 -335.022 810.304 -341.512 793.885 -355.1C788.514 -359.562 783.649 -363.111 783.041 -363.111C782.433 -363.01 777.568 -360.475 772.297 -357.534Z" fill="#003566"/>
<path d="M626.757 -304.295C626.453 -303.687 626.858 -300.543 627.872 -297.298L629.696 -291.315L626.453 -284.724C623.716 -279.045 623.412 -277.727 624.527 -276.003C625.642 -274.38 625.541 -273.468 624.122 -271.237C620.878 -265.862 619.459 -265.66 611.655 -269.006C607.804 -270.73 601.622 -272.758 597.973 -273.468C593.514 -274.482 590.878 -275.597 589.966 -277.017C588.243 -279.552 586.216 -279.654 585.304 -277.321C585 -276.307 584.189 -271.44 583.682 -266.471C582.669 -257.04 579.932 -249.029 577.196 -248.015C576.284 -247.609 573.243 -248.623 570.405 -250.144L565.338 -252.882L562.703 -250.956C560.068 -248.928 557.027 -243.756 551.25 -231.08C548.615 -225.3 547.703 -224.083 545.169 -223.576C543.547 -223.272 541.926 -222.562 541.622 -222.055C541.318 -221.649 542.736 -218.201 544.764 -214.551C547.297 -209.988 548.311 -207.148 547.905 -205.627C547.601 -204.309 544.561 -199.036 541.216 -193.965C533.311 -181.797 530.372 -175.915 528.649 -168.512C526.824 -160.907 526.115 -159.994 520.135 -157.763C511.824 -154.721 511.723 -154.417 510.203 -136.367C508.682 -117.708 507.466 -112.536 500.676 -96.6153C494.189 -80.9988 493.885 -80.0861 496.824 -78.7679C498.142 -78.1594 499.966 -75.7256 501.081 -73.0891C503.209 -67.7146 502.804 -63.4555 499.662 -58.1824L497.635 -54.836L487.399 -55.5458L477.264 -56.2556L471.892 -50.6783C464.899 -43.4785 462.365 -36.8871 460.946 -22.0818C459.831 -10.0144 460.541 22.9426 462.264 36.8353C463.378 45.4548 464.189 47.1787 470.98 55.494C474.628 59.9559 475.135 61.2742 474.73 64.0121C473.716 69.4881 470.878 74.2542 468.041 75.6739C464.696 77.1949 464.797 76.8907 466.824 85.7131C468.547 93.2171 468.243 103.865 466.115 110.659C465.405 112.789 463.074 116.338 460.946 118.569C458.108 121.408 457.095 123.436 457.095 125.667C457.095 127.492 456.385 129.419 455.574 130.028C454.459 130.839 453.75 134.388 453.142 142.399C451.824 158.624 448.885 163.086 443.108 157.712L440.574 155.481L441.182 163.187C442.5 178.5 448.074 194.826 461.351 221.293C464.696 228.087 468.953 235.794 470.777 238.634C472.601 241.473 474.426 245.732 474.73 248.369C475.541 253.54 474.122 261.349 472.196 262.464C471.385 263.073 472.196 265.608 475.338 271.895C478.277 277.776 479.392 281.224 478.885 282.644C478.074 285.382 479.088 288.526 481.014 289.235C482.736 289.945 498.446 286.092 500.473 284.571C501.081 283.962 501.689 281.63 501.689 279.196C501.689 271.084 504.527 266.52 509.595 266.52C510.912 266.52 512.027 265.405 512.736 263.377L513.851 260.233L524.493 260.943C536.858 261.754 536.959 261.754 541.216 253.338C544.764 246.341 546.892 238.938 548.311 229C548.919 224.842 550.034 218.15 550.845 214.296C551.554 210.341 552.669 201.925 553.378 195.536C555.203 175.965 555.608 174.951 564.73 165.418C569.392 160.551 572.635 156.292 572.635 155.075C572.635 152.641 574.155 152.236 575.068 154.467C575.574 155.886 575.98 155.886 578.615 154.467C582.365 152.641 584.797 149.193 584.797 146.05C584.797 144.123 585.101 143.92 586.723 144.833C592.5 147.875 595.642 144.224 590.878 139.763C589.257 138.242 587.838 136.518 587.838 136.011C587.838 135.504 589.358 134.388 591.182 133.475C596.351 131.042 601.014 126.58 601.014 124.247C601.014 117.149 580.439 94.0284 571.622 91.0876C564.426 88.6539 563.108 85.0032 563.007 66.7501C563.007 52.5532 563.209 51.6406 566.858 40.0803C570.608 28.1143 571.52 21.8271 569.595 20.6103C567.264 19.1906 568.885 16.047 574.257 11.9908C578.007 9.15137 580.439 6.31198 581.655 3.57404C586.014 -6.46518 604.865 -25.9352 620.27 -36.1772C632.432 -44.3911 633.446 -45.4052 638.412 -55.6472C640.642 -60.2105 643.986 -65.6864 645.912 -67.816C653.108 -76.0299 653.108 -76.0299 648.649 -80.9988C643.378 -86.6775 643.277 -90.4296 648.142 -99.2519C650.068 -102.801 651.689 -107.06 651.689 -108.581C651.689 -111.421 653.412 -113.854 662.838 -125.009C665.169 -127.646 666.182 -130.282 666.993 -135.048C668.209 -142.654 668.615 -143.465 670.642 -142.755C671.554 -142.35 672.365 -142.857 672.669 -144.175C673.378 -146.71 673.48 -146.71 679.459 -143.668C683.514 -141.64 685.946 -141.133 692.432 -141.133C698.919 -141.133 700.541 -141.437 701.047 -142.755C701.351 -143.668 700.642 -148.637 699.426 -153.707C697.095 -163.645 696.689 -172.467 698.412 -179.667C700.338 -188.084 699.831 -195.892 696.892 -201.976C695.27 -205.526 694.257 -209.278 694.257 -212.421C694.257 -215.058 693.851 -217.187 693.345 -217.187C691.824 -217.187 691.216 -220.027 690.709 -231.688C690.304 -237.976 689.595 -244.871 688.986 -247.102C686.453 -257.04 677.635 -266.876 659.797 -279.856C645.101 -290.504 639.73 -294.865 634.358 -300.543C629.595 -305.512 628.074 -306.323 626.757 -304.295Z" fill="#003566"/>
<path d="M617.534 104.98C615.608 105.69 615.912 111.267 617.838 112.079C619.966 112.89 622.297 109.949 622.297 106.603C622.297 104.27 620.574 103.662 617.534 104.98Z" fill="#003566"/>
<path d="M672.568 110.456C669.628 112.788 669.223 113.904 671.351 114.715C673.176 115.425 678.041 111.774 678.041 109.746C678.041 107.718 675.709 108.022 672.568 110.456Z" fill="#003566"/>
<path d="M732.669 134.996C731.25 135.808 726.385 136.619 722.027 136.923C713.615 137.43 706.216 140.168 705 143.312C704.696 144.123 702.365 145.745 699.932 146.861C693.953 149.396 692.635 151.83 694.257 157.61C694.966 160.044 696.182 162.579 696.892 163.187C698.818 164.81 698.615 165.824 696.385 166.432C693.75 167.142 694.459 169.576 699.223 175.863C703.074 181.035 706.926 182.759 708.041 179.919C708.953 177.587 712.196 177.891 713.615 180.426C714.223 181.745 714.426 184.381 714.122 186.916C713.209 192.595 715.236 194.522 719.899 192.595C726.081 190.06 728.311 190.161 733.986 193.102C736.926 194.725 742.601 199.085 746.554 202.837C750.507 206.691 754.358 209.733 754.966 209.733C755.574 209.733 757.297 209.023 758.615 208.11C760.338 206.995 762.263 206.691 764.493 207.096C768.75 207.907 773.716 204.764 776.453 199.694C778.176 196.449 778.176 196.144 776.149 191.074C771.486 179.514 774.223 163.492 783.243 148.281L787.5 141.284L775.034 140.675C766.115 140.27 760.135 139.357 753.547 137.43C741.081 133.881 735.912 133.272 732.669 134.996Z" fill="#003566"/>
<path d="M671.047 156.393C669.223 158.523 671.351 162.072 674.493 162.072C677.635 162.072 679.763 158.523 677.939 156.393C677.331 155.582 675.709 154.973 674.493 154.973C673.277 154.973 671.655 155.582 671.047 156.393Z" fill="#003566"/>
<path d="M671.351 173.328C669.628 173.835 667.5 175.052 666.486 176.167C664.257 178.703 664.662 183.773 667.196 184.178C669.426 184.584 679.358 179.717 681.791 177.08C683.513 175.153 683.513 175.052 681.588 173.632C679.459 172.01 676.115 171.908 671.351 173.328Z" fill="#003566"/>
<path d="M108.649 178.5C107.534 181.44 106.115 186.409 105.304 189.452C103.885 195.739 102.263 198.172 99.0203 198.984C96.1824 199.694 93.2432 204.561 93.2432 208.516C93.2432 213.789 94.8648 216.527 98.3108 217.135L101.453 217.845L99.0203 221.09C96.0811 224.944 91.3176 234.375 90.2027 238.329C89.5946 240.155 89.8986 241.676 90.9121 243.095C92.2297 245.022 92.1284 245.225 90.304 245.225C84.8311 245.225 83.3108 248.977 87.5676 251.816C91.3176 254.352 94.5608 252.83 101.453 245.428C104.899 241.777 107.534 239.141 107.23 239.749C101.655 251.411 100.338 254.554 99.3243 258.205C98.5135 261.551 98.5135 263.478 99.4257 266.216C100.541 269.765 100.642 269.765 101.757 267.636C102.872 265.709 103.176 265.608 104.899 267.027C106.013 267.839 108.851 268.548 111.284 268.548H115.541L114.932 274.024C114.527 277.574 114.628 279.703 115.439 280.109C117.466 281.427 116.554 286.497 113.007 294.001C111.081 298.159 109.459 302.418 109.459 303.534C109.459 305.866 117.061 313.877 117.77 312.457C118.074 312.052 118.581 310.328 118.986 308.807C119.493 306.576 120.101 306.069 121.419 306.576C127.196 309.01 128.615 309.314 131.047 308.807C133.48 308.097 134.392 307.387 137.635 303.534C138.953 301.911 148.986 301.303 148.986 302.824C148.986 303.331 147.669 304.953 145.946 306.576C137.838 314.384 138.446 327.364 146.959 328.581C148.378 328.784 150 330.001 150.709 331.42C152.635 335.172 152.331 345.212 150.304 348.659C148.784 351.397 148.784 351.702 150.304 353.933C155.473 361.031 155.372 360.727 154.054 362.451C151.318 365.696 148.986 366.203 146.655 364.073C141.892 359.611 130.845 360.524 126.081 365.594C122.736 369.245 122.939 371.679 126.791 372.49C129.02 372.997 129.73 373.605 129.223 374.721C128.919 375.633 129.324 377.155 130.236 378.067C131.655 379.588 131.655 380.298 130.034 385.064C127.601 392.568 121.926 398.754 114.73 401.391C111.588 402.608 108.446 404.027 107.736 404.636C106.419 405.751 106.013 411.43 107.027 415.283L107.635 417.413L112.297 414.979C115.135 413.458 117.872 412.647 119.088 413.052C120.203 413.357 123.953 414.066 127.5 414.573C132.669 415.283 134.595 416.095 137.838 419.035C141.588 422.382 141.993 422.483 145.135 421.469C149.189 420.151 153.345 417.413 158.007 413.154L161.351 410.01L159.831 413.052C157.297 418.021 152.23 424.511 149.493 426.337C148.074 427.249 143.412 428.365 139.155 428.872C133.074 429.582 130.338 430.393 127.196 432.624C120.608 437.187 102.061 460.308 103.682 461.829C104.088 462.234 107.635 461.119 111.689 459.395C121.723 455.035 123.446 454.832 128.615 456.657C135.304 458.989 136.419 458.685 139.257 453.818C140.676 451.384 143.007 448.443 144.324 447.125C147.568 444.083 153.851 443.271 157.804 445.401C159.527 446.212 162.77 447.226 165.101 447.632C168.851 448.24 169.257 448.038 169.257 446.212C169.257 443.373 171.081 443.069 196.115 441.953C218.615 440.939 222.973 440.229 229.764 436.274C233.716 434.043 238.176 429.48 238.176 427.756C238.176 427.351 235.541 426.641 232.399 426.337C221.149 425.018 217.905 421.875 223.885 418.427C225.507 417.514 227.027 415.79 227.23 414.472C227.432 412.951 229.662 410.619 233.514 407.982C247.095 398.45 249.223 383.036 237.669 377.966C231.182 375.126 222.568 375.126 219.426 378.067C217.601 379.791 216.385 380.095 213.851 379.588C209.595 378.676 209.088 376.749 212.23 372.693C218.919 363.972 215.372 356.062 202.601 351.093C196.216 348.659 195.912 348.051 198.851 344.907C202.5 340.953 205.743 335.375 205.743 332.84C205.743 329.291 202.196 325.843 194.696 321.888C190.743 319.86 186.892 317.122 185.98 315.905C184.459 313.877 180 300.289 177.365 289.945C175.946 284.571 168.851 276.56 161.655 272.503C157.399 270.07 155.473 269.562 149.189 269.562C141.689 269.562 134.088 267.433 135.203 265.608C135.608 265.101 137.534 264.087 139.662 263.478C150.101 260.03 157.905 253.236 149.392 254.757C147.466 255.163 145.135 255.771 144.324 256.075C141.081 257.292 143.209 254.656 148.176 251.309C154.966 246.645 160.236 239.85 165.709 228.594C171.182 217.338 173.412 209.023 171.182 207.705C166.013 204.46 143.615 205.981 133.378 210.341C122.23 215.006 121.723 214.803 126.284 206.893C127.703 204.46 129.122 200.708 129.324 198.68C129.527 195.536 130.946 193.812 139.054 186.207C148.074 177.688 148.378 177.283 146.655 175.559C145.135 173.936 142.5 173.734 127.804 173.429L110.676 173.125L108.649 178.5Z" fill="#003566"/>
<path d="M721.216 195.536C718.48 196.651 715.236 198.477 713.919 199.694C711.791 201.62 711.588 202.634 711.791 210.645C711.993 218.555 711.689 219.873 709.257 224.132C705.507 230.521 698.818 233.867 693.446 232.144C688.176 230.521 686.858 229.203 683.716 223.118C680.068 215.919 673.074 208.719 669.628 208.719C665.574 208.719 655.642 212.775 653.209 215.412C651.689 217.034 650.777 219.772 650.27 223.524C649.966 226.566 647.939 233.36 645.912 238.431C643.378 245.124 642.162 249.89 641.757 255.264L641.25 262.87L645.912 260.03C657.872 253.135 660.203 252.323 669.02 252.323C673.682 252.323 684.932 253.033 693.953 253.946C710.372 255.568 710.372 255.568 714.527 253.439C716.757 252.323 718.784 251.309 719.088 251.309C719.291 251.309 721.622 253.135 724.155 255.366C726.689 257.597 729.527 259.422 730.338 259.422C733.378 259.422 738.345 262.87 746.047 270.171C750.405 274.329 754.358 277.675 754.865 277.675C755.372 277.675 757.095 276.661 758.514 275.545C760.338 274.126 763.48 273.112 767.534 272.706C770.98 272.3 774.932 271.286 776.351 270.272C779.696 267.94 785.372 260.639 786.081 257.698C787.5 252.121 783.547 240.357 779.493 238.127C777.669 237.214 777.568 236.301 778.074 228.087L778.682 219.062L774.426 216.02C768.041 211.355 763.885 210.24 758.615 211.761C753.345 213.181 752.027 212.471 742.905 203.04C737.635 197.665 731.047 193.508 727.703 193.609C726.892 193.609 723.953 194.522 721.216 195.536Z" fill="#003566"/>
<path d="M597.466 196.347C591.892 199.795 586.115 208.11 584.392 215.107C583.682 218.15 585.304 225.958 586.723 225.958C588.547 225.958 592.703 221.8 594.324 218.454C595.236 216.527 595.946 212.876 595.946 210.341C595.946 205.677 596.453 204.764 601.926 200.302C604.358 198.375 604.459 195.232 602.027 194.826C601.216 194.623 599.088 195.333 597.466 196.347Z" fill="#003566"/>
<path d="M419.088 211.355C417.466 212.167 414.223 214.6 411.993 216.73C405.203 223.118 402.466 224.741 396.791 225.958C393.851 226.566 389.493 228.392 387.263 230.014C380.676 234.882 379.763 237.518 379.257 254.96C378.547 276.661 379.257 280.819 384.122 285.686C387.162 288.728 388.176 290.554 388.682 294.508C389.088 297.246 389.595 300.289 389.899 301.303C390.608 304.041 394.459 306.069 399.932 306.677C403.885 307.083 405.608 306.779 408.345 305.055C410.676 303.635 411.385 302.621 410.574 302.114C406.013 299.275 406.622 277.675 411.385 276.357C412.5 276.154 413.513 274.836 413.716 273.517C413.919 271.996 414.932 270.982 416.554 270.577C418.682 270.07 419.189 269.258 419.696 265.506C420.405 260.537 423.75 256.988 426.791 257.901C428.615 258.509 433.784 254.554 433.784 252.526C433.784 252.019 431.959 251.309 429.831 250.904C423.851 249.991 421.622 246.543 421.622 238.532C421.622 234.882 422.534 228.696 423.649 224.741C425.98 216.324 426.182 212.674 424.459 210.95C422.939 209.429 422.736 209.429 419.088 211.355Z" fill="#003566"/>
<path d="M715.338 256.583C712.804 258.611 712.196 258.611 701.655 257.495C695.676 256.887 683.311 256.38 674.291 256.278C656.047 256.278 654.324 256.684 648.75 262.971C646.216 265.912 645.608 267.433 645.608 271.388C645.608 277.371 648.041 287.207 650.676 291.365C653.311 295.624 659.595 298.97 664.966 298.97C670.743 299.072 677.737 302.215 679.257 305.562C680.169 307.488 680.169 309.314 679.257 313.167C678.649 315.905 678.345 318.745 678.547 319.454C678.851 320.164 681.081 322.091 683.615 323.612C686.047 325.235 689.088 328.074 690.304 330.001C693.446 335.071 698.818 337.505 707.027 337.505C713.21 337.505 713.919 337.302 716.655 334.361C718.176 332.637 721.216 330.812 723.142 330.305C730.642 328.175 737.838 319.353 739.358 310.429C739.966 306.779 740.574 305.866 743.716 304.345C746.047 303.229 747.669 301.607 747.973 299.984C748.378 298.362 749.595 297.145 751.52 296.435C755.574 295.218 755.777 294.914 754.054 293.9C753.142 293.292 752.635 291.466 752.737 288.728C752.838 286.295 752.128 282.948 751.014 280.819C746.655 272.199 735.405 262.464 729.932 262.464C728.412 262.464 725.878 260.943 723.446 258.408C721.216 256.177 719.088 254.352 718.682 254.453C718.378 254.453 716.858 255.366 715.338 256.583Z" fill="#003566"/>
<path d="M784.257 268.346C776.96 275.14 775.034 276.052 769.155 275.241C764.595 274.633 764.189 274.734 761.757 277.979C758.412 282.34 757.399 287.207 759.122 290.452C760.845 293.596 759.426 298.26 756.588 298.767C751.52 299.782 741.892 310.226 741.892 314.79C741.892 316.007 740.777 318.44 739.358 320.063C737.432 322.395 736.926 323.815 737.432 326.046C738.041 328.987 737.838 329.088 733.885 329.798C727.095 330.812 721.723 333.448 720.405 336.288C718.784 339.634 714.628 340.75 707.128 340.141C698.919 339.33 697.297 340.445 697.297 346.631C697.297 349.369 698.007 354.642 698.919 358.496C699.831 362.248 700.642 368.839 700.642 373.098C700.743 382.022 699.122 385.47 694.561 386.687C687.568 388.411 687.365 392.365 693.851 398.247C698.311 402.303 698.514 402.709 697.905 406.664C696.791 413.762 700.439 415.486 707.23 411.024C712.804 407.374 718.378 406.562 735.507 406.461C752.635 406.461 765.101 408.286 769.46 411.531C773.514 414.573 778.885 415.385 802.196 417.109C828.345 418.934 829.257 419.035 832.399 422.28C835.237 425.12 835.338 425.12 836.655 417.109C838.074 408.996 843.547 402.709 851.858 399.667C856.622 397.943 856.926 397.537 857.23 393.785C857.534 389.83 856.622 384.861 853.682 375.329C852.872 372.388 852.365 368.941 852.77 367.622C853.581 364.073 857.23 362.755 861.385 364.479C865.743 366.304 868.987 366.304 872.939 364.276C879.831 360.727 881.149 358.192 877.804 355.048C876.689 354.034 875.676 351.904 875.473 350.18C875.169 347.341 874.764 347.138 869.595 346.327C863.108 345.313 861.892 344.502 860.98 340.851C860.676 339.431 858.649 336.186 856.419 333.753C851.25 327.871 843.142 311.646 843.041 307.083C843.041 305.156 843.345 301.505 843.75 298.97C844.966 290.756 838.987 281.427 829.561 277.067C823.378 274.126 821.453 274.024 818.21 276.661C814.054 279.906 811.824 279.399 811.824 275.14C811.824 270.678 808.277 267.94 803.514 268.954C801.081 269.461 800.068 269.157 798.953 267.534C797.838 266.013 796.824 265.709 794.899 266.115C792.973 266.622 791.858 266.317 790.946 264.999C789.73 263.377 789.223 263.681 784.257 268.346Z" fill="#003566"/>
<path d="M458.108 267.94C452.128 270.171 442.399 275.343 440.878 277.168C439.763 278.588 439.763 279.602 441.284 283.759C442.297 286.497 442.804 289.134 442.5 289.742C441.182 291.77 460.135 305.359 461.858 303.635C462.162 303.331 461.655 301.911 460.743 300.593C458.513 297.044 458.716 296.232 462.162 294.407L465.203 292.785L462.973 289.844C460.034 285.788 461.25 281.528 465.709 280.717C468.547 280.21 468.75 279.805 468.649 275.951C468.547 271.185 466.013 266.52 463.378 266.622C462.466 266.622 460.034 267.23 458.108 267.94Z" fill="#003566"/>
<path d="M52.9054 295.421C42.8716 300.491 42.5676 300.796 39.1216 307.59C36.1824 313.37 36.9932 313.978 45.9121 312.356C53.2094 310.936 57.1621 307.59 61.2162 299.477C65.777 290.047 64.7635 289.438 52.9054 295.421Z" fill="#003566"/>
<path d="M638.412 299.173C633.649 304.142 633.75 304.649 639.527 304.142C640.946 304.041 642.669 303.229 643.378 302.317C644.696 300.491 645.101 295.218 643.885 294.711C643.378 294.508 640.946 296.537 638.412 299.173Z" fill="#003566"/>
<path d="M512.838 296.435C512.838 298.362 516.487 302.013 518.412 302.013C520.439 302.013 520.338 300.796 517.804 297.551C515.574 294.61 512.838 294.001 512.838 296.435Z" fill="#003566"/>
<path d="M75.2027 297.956C69.4257 300.289 54.8311 312.762 51.1824 318.542C49.4594 321.28 49.4594 321.381 52.0946 325.133C56.8581 331.725 58.8851 333.854 59.5946 332.84C62.2297 328.885 68.4121 322.294 69.4257 322.294C70.1351 322.294 71.25 323.713 71.9594 325.437C73.5811 329.392 79.5608 333.448 83.8176 333.448C85.7432 333.448 88.1757 332.434 90 330.913C95.3716 326.451 97.9054 316.209 93.6486 316.209C91.9257 316.209 90.6081 313.269 89.6959 307.691C89.2905 305.055 87.8716 302.52 85.6419 300.289C82.1959 296.841 79.5608 296.232 75.2027 297.956Z" fill="#003566"/>
<path d="M389.595 309.719C390.709 311.342 392.736 314.384 394.155 316.615L396.689 320.57L393.446 323.308C389.696 326.451 389.493 326.958 392.23 327.668C393.345 327.973 394.257 328.987 394.257 329.899C394.257 333.347 406.926 347.848 414.527 353.121L417.061 354.947L413.514 354.237C409.459 353.425 402.77 350.18 401.858 348.659C400.946 347.138 394.358 343.995 390.304 343.082L386.959 342.372L387.264 348.152C387.568 352.614 387.264 354.237 386.047 355.048C383.716 356.569 377.331 355.048 376.723 352.817C375.912 349.775 363.041 348.355 359.392 350.992C357.77 352.209 357.77 352.918 358.784 358.8C361.014 370.969 357.77 382.732 351.791 384.152C348.041 385.064 348.142 386.687 352.196 389.83C355.439 392.264 355.845 393.075 355.338 395.712C354.324 400.579 349.865 405.447 343.986 408.083L338.514 410.517V416.297C338.514 419.542 337.804 425.221 336.791 428.872C335.169 435.463 335.169 435.666 337.399 442.055C343.378 458.482 342.973 456.758 340.743 460.308L338.716 463.553L341.655 469.738C343.277 473.186 344.595 477.547 344.595 479.372C344.595 485.152 348.142 487.789 364.764 494.279C372.872 497.524 379.662 500.16 379.764 500.262C379.966 500.363 378.649 503 376.926 506.143C373.277 512.938 368.108 526.83 366.892 533.016C365.878 538.695 366.689 538.999 377.432 536.869C388.885 534.638 396.284 534.537 397.5 536.565C398.108 537.681 399.223 538.086 401.149 537.681C403.074 537.275 406.318 538.39 412.399 541.433L420.912 545.692L430.642 543.968C436.014 542.954 445.135 541.128 451.014 539.709C463.885 536.768 468.142 536.667 473.311 539.303C478.074 541.737 478.277 541.23 475.338 532.712C474.223 529.365 473.615 525.816 473.919 524.396C474.324 522.977 478.682 518.413 484.054 513.749L493.581 505.535L481.115 492.656C467.939 478.865 462.061 470.55 461.959 465.175C461.858 462.539 462.568 461.22 465.405 458.787C470.169 454.73 491.25 443.677 499.662 441.04C507.973 438.303 513.345 434.753 515.473 430.596C517.601 426.539 516.993 419.441 513.345 404.433C510 390.439 507.162 383.543 502.804 378.777L499.257 374.822L501.081 370.158C505.439 358.597 505.135 350.383 500.068 340.344C497.331 334.868 494.595 333.043 490.642 333.753C488.919 334.158 486.892 333.651 485.27 332.637C473.514 324.626 472.905 324.423 470.372 325.032C465.811 326.046 451.723 333.753 447.669 337.403C444.223 340.547 443.514 340.75 439.257 340.141C430.135 338.924 428.007 335.274 434.291 331.522C440.473 327.871 439.054 326.857 426.284 326.046C421.419 325.64 418.885 325.032 417.973 323.916C417.365 323.004 415.439 322.294 413.818 322.294C409.561 322.294 408.953 321.178 411.993 318.846C416.959 314.891 412.5 311.443 399.223 309.111C395.676 308.503 391.622 307.691 390.203 307.387L387.77 306.779L389.595 309.719Z" fill="#003566"/>
<path d="M568.581 313.776C557.736 317.021 552.162 319.454 545.777 323.916C542.736 325.944 534.02 329.696 525 332.941C516.385 335.984 508.48 339.33 507.365 340.445C505.541 342.372 505.439 342.879 506.655 349.673C508.074 357.583 507.568 362.349 504.628 368.129C502.095 373.098 502.196 374.924 505.135 377.966C511.419 384.557 517.297 403.013 518.919 421.165C519.932 432.218 520.541 434.855 522.365 434.855C522.973 434.855 525.405 436.579 527.736 438.81C530.676 441.446 534.02 443.271 538.074 444.387C541.318 445.3 545.27 447.023 546.791 448.24C549.527 450.37 549.527 450.471 547.399 451.181C544.459 452.297 544.662 453.513 548.818 457.671C554.088 462.843 558.243 462.032 556.723 456.049C556.115 454.02 556.318 453.919 559.054 454.527C568.277 456.657 592.399 470.651 597.568 476.735C601.318 481.299 602.635 481.806 605.473 479.98C608.615 477.952 610.135 478.662 616.013 484.949C618.446 487.485 620.98 489.614 621.791 489.614C622.5 489.614 625.743 488.194 628.885 486.572C633.953 483.935 635.676 483.53 642.973 483.53C652.601 483.53 658.784 485.355 669.628 491.237C673.581 493.467 677.23 494.887 677.635 494.38C678.041 493.975 677.635 492.048 676.723 490.121C672.973 482.313 673.986 480.589 693.446 460.612C705.405 448.342 705.304 448.545 701.047 440.331C697.804 434.043 696.081 426.742 694.764 414.675L693.446 402.202L689.291 397.943C686.959 395.61 685.135 393.278 685.135 392.67C685.135 392.163 687.466 389.425 690.304 386.687C693.142 383.847 696.284 379.892 697.399 377.864C699.324 374.112 699.324 374.011 696.791 362.146C694.358 350.383 688.986 332.232 687.264 329.595C685.743 327.161 670.946 326.249 641.959 326.756C626.351 327.06 611.149 327.567 608.108 327.871C603.243 328.378 601.824 328.074 596.959 325.64C592.297 323.308 591.182 322.091 590.068 318.744C587.331 310.226 583.48 309.415 568.581 313.776Z" fill="#003566"/>
<path d="M481.419 318.238C481.419 318.846 482.128 320.874 482.838 322.801C484.459 326.553 486.689 326.756 488.514 323.308C489.324 321.787 488.919 320.975 486.892 319.353C483.953 317.021 481.419 316.615 481.419 318.238Z" fill="#003566"/>
<path d="M37.804 324.93L38.3108 329.696L31.723 328.987C25.6419 328.378 25.1351 328.48 24.6284 330.406C24.1216 332.434 24.0203 332.434 21.6892 329.899C18.9527 326.958 16.1149 326.654 12.1622 328.987C9.42567 330.71 6.08107 335.274 6.08107 337.403C6.08107 338.012 7.39864 338.519 9.02026 338.519C16.9257 338.519 17.3311 342.474 10.1351 349.673C7.39864 352.513 5.06756 355.251 5.06756 355.758C5.06756 357.989 10.4392 360.017 18.6486 360.828C23.4122 361.335 27.8716 362.045 28.4797 362.349C30.304 363.566 29.0878 365.493 24.3243 369.143C20.8784 371.78 19.6622 373.301 19.4595 375.836C19.1554 378.574 19.5608 379.284 21.7905 380.095C23.2095 380.704 25.8446 381.109 27.6689 381.109C31.723 381.109 30.4054 382.225 22.804 385.064C13.9865 388.309 12.1622 389.729 12.1622 393.38C12.1622 397.639 9.93243 401.593 4.86486 405.954C2.43243 407.982 1.31756 409.402 2.22972 409.098C3.24324 408.793 6.28378 408.286 9.12161 407.881C13.8851 407.272 14.1892 407.374 14.1892 409.503C14.1892 410.821 15 411.937 16.2162 412.241C17.6351 412.647 18.2432 413.661 18.2432 415.689C18.2432 418.021 18.6486 418.63 20.5743 418.63C23.7162 418.63 34.7635 413.255 37.3986 410.416C38.9189 408.692 40.5405 408.185 42.973 408.286C45.7094 408.489 47.4324 407.678 51.1824 404.433C56.7567 399.667 58.1757 398.856 62.8378 397.841C64.7635 397.436 67.3986 396.219 68.5135 395.103C70.6419 393.177 70.9459 393.177 73.9865 394.799C78.2432 396.929 79.3581 395.915 82.1959 387.397C87.973 369.853 84.6284 345.11 75 333.955C72.8716 331.42 70.7432 328.378 70.3378 327.161C69.7297 325.032 69.3243 325.235 64.2567 330.913L58.8851 336.896L52.6013 330.102C46.4189 323.308 42.1622 320.266 38.9189 320.266C37.5 320.266 37.2973 321.077 37.804 324.93Z" fill="#003566"/>
<path d="M330.405 359.814C324.831 361.132 322.5 365.189 323.108 372.287C323.209 373.301 324.628 375.228 326.25 376.648C329.595 379.487 332.736 386.484 331.926 389.323C330.811 392.771 325.439 396.32 321.385 396.32C315.608 396.32 313.784 393.684 313.378 384.861C313.176 380.805 312.872 376.952 312.669 376.343C311.858 373.808 309.324 376.242 308.209 380.4C307.703 382.833 304.459 390.236 301.115 397.03L295.034 409.402L303.345 411.126L311.554 412.951L304.662 416.196C300.811 418.021 297.568 419.644 297.365 419.847C297.264 420.049 300.203 420.049 304.155 419.847C310.845 419.441 311.453 419.542 318.041 423.599C321.791 425.83 326.351 428.263 328.277 428.872C331.419 429.987 331.926 429.886 333.75 427.655C335.372 425.627 335.574 424.308 335.068 419.644C333.75 408.692 333.547 409.503 338.716 407.475C345.203 405.041 348.953 402.202 351.182 397.943L353.108 394.292L349.865 390.946C345.912 386.89 345.912 386.18 349.257 383.036C353.209 379.487 357.77 371.983 357.77 369.143C357.77 365.898 352.905 361.234 348.041 359.916C343.48 358.699 335.574 358.597 330.405 359.814Z" fill="#003566"/>
<path d="M891.892 393.988C891.081 394.292 889.561 395.205 888.649 396.118C887.432 397.132 885.709 397.436 882.973 396.929C879.831 396.523 878.412 396.827 876.486 398.349C873.446 400.681 866.858 402.303 860.372 402.405C853.277 402.405 845.777 405.041 842.939 408.489C841.013 410.72 840.203 413.154 839.696 418.326C838.48 429.48 836.047 431.711 832.196 425.12C830.068 421.469 829.865 421.469 825.203 422.078C821.655 422.585 818.919 422.179 814.155 420.455C807.973 418.326 807.77 418.326 804.426 420.151C801.588 421.672 800.473 421.773 797.432 420.759C795.507 420.151 789.02 419.137 783.04 418.63C773.919 417.819 771.284 417.21 766.926 414.675C763.986 413.052 759.324 411.227 756.486 410.619C747.669 408.793 730.743 408.185 721.622 409.402C714.426 410.314 712.196 411.126 707.838 414.066C705 415.993 702.162 417.616 701.554 417.616C699.527 417.616 698.108 421.773 698.716 425.931C699.122 428.162 700.845 432.725 702.568 436.173C705.101 441.243 705.709 443.576 705.608 448.342C705.405 455.44 705.304 455.643 700.743 457.773C696.993 459.598 685.845 471.057 680.878 478.257L677.838 482.719L679.459 489.107C681.892 498.944 681.79 499.755 677.635 499.045C674.493 498.538 673.885 498.842 672.061 501.783C667.399 509.49 668.919 518.414 675.608 522.267C680.878 525.309 693.953 528.149 702.872 528.149C711.79 528.149 717.061 529.467 717.973 531.799C719.696 536.16 745.743 528.25 752.23 521.354C756.588 516.588 759.932 515.574 770.27 515.574C785.169 515.676 800.878 520.746 808.581 527.946C811.622 530.785 811.824 531.495 811.824 537.579C811.824 544.069 811.824 544.069 815.169 544.982C818.108 545.895 818.513 546.503 819.527 551.472C820.743 557.658 822.061 560.599 824.392 562.627C825.405 563.336 826.013 565.466 826.013 567.798C826.013 571.246 826.419 571.956 828.851 572.869L831.588 573.984L828.547 575.404C826.926 576.114 823.581 576.722 821.351 576.824C817.905 576.824 816.993 576.418 816.588 574.694C816.081 572.97 815.676 572.767 814.054 573.68C810.203 575.708 795.608 600.147 795.608 604.406C795.608 606.231 796.013 606.434 798.953 605.826C804.73 604.812 820.236 596.395 827.128 590.615C834.73 584.328 837.568 580.778 839.392 575.201C840.608 571.652 841.318 571.043 846.284 569.319C849.628 568.204 854.899 567.393 859.459 567.291C865.845 567.19 867.568 567.596 870.405 569.522C874.257 572.362 874.459 573.984 871.115 575.809C869.696 576.519 868.581 577.533 868.581 577.939C868.581 579.257 874.662 580.677 885.304 581.894C906.486 584.429 907.601 588.891 889.561 597.815L881.655 601.769L889.257 606.637C893.513 609.274 897.466 612.316 897.973 613.33C898.581 614.344 898.986 618.096 898.986 621.645C898.986 632.09 900.608 632.597 913.784 626.006C918.75 623.572 923.615 621.442 924.527 621.442C927.669 621.442 931.013 619.313 932.838 616.169L934.662 613.127L942.568 613.837C951.081 614.547 956.047 613.127 956.959 609.578C958.176 604.812 955.845 604.203 945.608 606.941C941.959 607.854 937.804 608.259 936.486 607.955C935.068 607.651 931.115 604.609 927.77 601.161C924.02 597.612 920.676 595.077 919.358 595.077C914.696 595.077 917.432 588.08 925.034 580.677C929.189 576.519 932.128 574.998 944.29 570.232C952.196 567.19 959.696 564.655 961.013 564.655C962.331 564.655 964.966 563.539 966.892 562.221C968.919 560.903 974.29 558.57 979.054 557.049C990.912 553.094 992.838 552.08 993.547 548.734C994.257 545.388 1003.38 534.841 1007.53 532.712C1009.26 531.799 1012.8 531.191 1016.55 531.292C1024.26 531.495 1025.37 530.481 1026.89 522.368C1027.8 517.197 1027.8 515.574 1026.39 512.025C1023.45 504.825 1024.66 499.349 1030.84 491.541L1034.09 487.485L1031.66 484.949C1026.49 479.372 998.108 468.42 992.534 469.84C990.811 470.246 989.595 469.434 986.959 466.189C976.622 453.311 975.709 453.006 967.601 458.178C961.622 461.93 960.608 461.93 956.047 458.381C953.007 456.15 951.385 455.643 947.23 455.846C944.392 455.846 941.25 455.542 940.236 454.933C937.905 453.716 935.27 447.733 936.081 445.604C937.095 443.069 935.777 439.621 932.331 435.26C928.277 430.19 927.162 429.582 920.676 429.277C917.635 429.176 914.595 428.466 913.784 427.858C911.351 425.83 909.932 416.906 911.25 413.052C912.669 409.3 911.554 405.447 907.905 400.782C904.662 396.726 895.439 392.771 891.892 393.988Z" fill="#003566"/>
<path d="M298.48 426.337C289.257 430.089 289.054 430.089 279.122 428.162C272.635 426.945 264.932 433.334 265.743 439.215C266.047 441.243 266.554 441.446 271.318 441.142C276.486 440.939 276.689 440.939 278.615 444.691C281.047 449.457 282.872 451.181 289.561 454.528C295.642 457.57 298.48 461.119 297.77 464.77C297.466 466.189 297.568 467.609 298.074 467.913C299.189 468.522 302.635 466.798 306.385 463.654C309.831 460.713 311.149 460.612 311.149 463.046C311.149 466.696 316.419 475.519 320.068 477.952C326.959 482.617 331.014 480.589 330.101 473.186C329.291 467.71 331.318 461.626 333.75 461.829C336.486 462.133 338.818 457.874 338.007 454.223C337.196 450.471 333.142 446.009 330.608 446.009C327.872 446.009 326.655 444.285 325.845 438.911C324.932 433.435 323.311 431.305 317.128 428.263C314.595 426.945 311.959 425.12 311.25 424.308C309.426 422.179 309.02 422.179 298.48 426.337Z" fill="#003566"/>
<path d="M251.959 438.911C247.095 441.345 245.372 443.677 245.27 447.632C245.169 458.888 238.581 467.71 224.493 475.214C215.98 479.778 215.372 480.386 215.068 483.631C214.561 489.006 213.446 489.614 204.831 489.614C194.493 489.614 187.095 487.586 184.358 484.138C183.243 482.617 180.507 480.488 178.277 479.473C173.716 477.141 173.412 477.648 175.845 484.442C176.655 486.876 178.074 492.758 178.885 497.524C179.797 502.391 180.811 507.157 181.014 508.07C181.52 509.591 180.912 509.895 177.162 509.895C172.601 509.895 162.264 511.315 158.412 512.532C156.689 513.039 155.068 512.025 150.709 507.969C144.831 502.391 143.818 501.986 141.791 504.419C139.459 507.259 134.493 509.186 126.791 509.997C122.331 510.504 118.581 511.518 117.669 512.431C116.25 513.85 116.453 514.256 120 517.197C123.851 520.34 123.851 520.442 123.345 526.323L122.838 532.205H126.182C128.007 532.205 133.378 533.827 138.041 535.855C142.601 537.883 149.696 540.317 153.547 541.23C160.135 542.852 160.642 543.157 160.642 545.793C160.743 547.72 162.061 549.748 165 552.486C168.345 555.63 169.257 557.151 169.257 559.889C169.257 565.162 174.122 571.55 182.635 577.432L190.034 582.502L189.73 589.601C188.716 613.735 185.068 639.391 180.507 653.892C177.872 662.309 177.872 662.715 180.912 663.424C182.736 663.931 183.446 664.743 183.446 666.568C183.446 672.044 196.318 676.202 213.142 676.202C231.588 676.202 241.723 678.433 248.209 683.909C252.162 687.154 258.345 688.066 264.02 686.139C268.277 684.72 269.899 682.489 271.622 675.492C272.939 670.219 277.601 665.453 285.811 661.092C294.426 656.427 298.986 656.732 317.23 662.613C325.338 665.25 333.142 667.582 334.561 667.785C338.007 668.393 341.554 666.568 350.27 659.267C354.223 656.022 358.885 652.574 360.608 651.661C363.649 650.039 367.905 644.461 367.905 642.231C367.905 641.521 366.486 641.318 364.459 641.521C361.824 641.825 360.304 641.216 357.365 638.58C352.399 634.321 350.676 630.67 350.676 624.789C350.574 622.152 349.966 618.806 349.155 617.386C346.926 613.533 347.331 612.62 351.791 609.578C356.351 606.536 356.351 606.536 352.601 596.801C350.777 591.933 350.574 590.412 351.486 588.891C353.209 586.153 353.007 583.922 350.473 580.17C347.534 575.911 345.507 576.012 338.514 580.373C335.473 582.198 332.838 583.618 332.635 583.516C332.534 583.313 333.345 581.59 334.459 579.561C335.878 577.229 336.385 575.1 335.98 573.477C335.473 571.449 335.98 570.435 338.818 568.305C340.743 566.784 342.669 564.452 342.973 563.134C343.378 561.714 345.709 558.266 348.243 555.427C350.676 552.587 353.007 549.038 353.412 547.416C353.716 545.388 354.831 544.171 356.757 543.461C360.203 542.345 361.723 539.607 365.169 528.453C366.689 523.991 369.02 517.298 370.439 513.749C374.088 505.231 374.899 502.188 374.088 501.174C373.784 500.667 370.743 499.248 367.399 498.132C364.054 496.915 355.845 493.67 349.054 490.831C342.365 488.093 334.155 485.152 330.811 484.442C326.655 483.53 322.399 481.4 316.723 477.547C307.703 471.462 303.345 469.333 299.595 469.333C296.554 469.333 295.642 468.116 294.932 462.741C294.426 458.989 294.223 458.685 290.169 457.975C284.493 457.063 280.236 453.716 277.601 448.342L275.473 443.981L270.507 444.59L265.439 445.3L263.818 441.041C262.399 437.39 261.791 436.883 259.054 436.883C257.331 436.984 254.189 437.796 251.959 438.911Z" fill="#003566"/>
<path d="M506.757 441.852C491.453 446.009 471.385 455.846 466.723 461.423C463.581 465.074 463.885 467.71 468.041 473.693C474.831 483.733 495.101 504.014 501.689 507.36C506.25 509.693 507.466 509.287 513.953 503.101L520.034 497.321L524.797 498.639C527.432 499.45 531.892 500.667 534.628 501.479C542.23 503.71 559.459 504.521 560.878 502.695C561.588 501.783 563.818 501.276 566.655 501.276C572.534 501.276 579.223 497.118 581.351 492.048C582.466 489.513 584.595 487.383 588.851 484.747C596.554 479.98 596.858 477.75 590.27 473.085C584.088 468.623 565.642 459.192 563.209 459.192C562.095 459.192 559.966 460.308 558.243 461.727C556.622 463.147 554.797 464.263 554.291 464.263C552.466 464.263 543.243 454.832 542.635 452.398C541.824 449.457 538.581 447.733 530.676 445.908C526.216 444.792 524.595 443.981 523.885 442.156C523.176 440.229 522.264 439.925 518.209 440.026C515.473 440.026 510.405 440.838 506.757 441.852Z" fill="#003566"/>
<path d="M333.041 467.001C331.216 471.665 333.142 481.096 336.081 482.211C338.311 483.023 341.554 479.068 341.554 475.519C341.554 469.941 334.561 462.944 333.041 467.001Z" fill="#003566"/>
<path d="M604.155 484.24C601.318 486.47 600.507 486.673 598.784 485.659C597.568 484.949 595.541 484.645 593.716 485.051C590.068 485.862 583.784 491.237 583.784 493.569C583.784 497.22 571.723 505.738 566.453 505.839C563.615 505.839 559.561 509.895 558.953 513.343C557.737 519.833 563.919 529.264 572.128 533.219C576.284 535.247 577.095 535.247 584.797 534.131C592.905 533.016 595.946 531.495 595.946 528.554C595.946 526.729 599.088 525.41 605.27 524.599C607.804 524.295 610.541 523.281 611.25 522.47C612.061 521.456 613.987 520.949 616.622 521.05C623.108 521.354 623.21 521.253 627.365 516.791C630.608 513.242 632.027 512.43 636.182 511.923C642.973 511.214 652.5 512.43 654.628 514.357C657.466 516.892 660.405 516.284 663.547 512.43C666.182 509.185 672.669 494.989 671.858 494.38C671.655 494.177 668.311 492.656 664.358 490.932C648.75 484.138 638.919 483.935 627.872 490.121C619.662 494.684 617.331 494.482 615.507 489.208C613.885 484.442 611.453 481.502 609.223 481.502C608.311 481.502 606.081 482.718 604.155 484.24Z" fill="#003566"/>
<path d="M513.851 506.346C507.466 511.619 505.237 512.431 501.284 511.011C495.709 508.881 493.378 509.693 484.662 516.487C475.541 523.687 475.135 524.599 477.872 532.205C479.696 537.478 479.797 542.041 478.176 542.65C477.466 542.852 475.237 542.447 473.311 541.636C468.446 539.607 462.77 539.81 452.838 542.244C448.176 543.359 440.372 545.083 435.304 545.895C430.338 546.807 424.865 547.821 423.345 548.126C421.622 548.43 418.885 547.923 416.554 546.909C410.98 544.373 409.459 545.286 409.459 550.965C409.459 554.616 410.068 556.238 412.095 558.266C414.73 560.903 415.237 560.903 422.838 559.077C424.865 558.57 426.284 558.976 428.311 560.497C431.655 563.134 433.784 563.134 438.041 560.598C441.385 558.672 454.054 555.325 459.02 555.123C460.845 555.021 462.365 556.137 464.595 559.28C468.345 564.351 473.108 566.784 483.953 569.218C496.014 571.855 507.162 571.652 520.541 568.508C541.216 563.641 547.196 559.28 547.399 548.937C547.601 540.621 548.311 538.999 553.784 536.464L558.75 534.03L558.142 527.844C557.331 519.833 554.797 511.315 552.466 508.983C551.351 507.867 548.412 506.955 544.662 506.549C541.419 506.245 535.946 505.028 532.703 503.811C523.378 500.566 520.338 500.972 513.851 506.346Z" fill="#003566"/>
<path d="M636.284 514.864C634.054 515.371 630.709 517.298 627.973 519.833C623.818 523.687 622.804 524.092 618.243 524.092C615.507 524.092 613.176 524.498 613.176 525.005C613.176 526.222 607.5 528.148 604.054 528.148C601.419 528.148 597.973 530.785 597.973 532.915C597.973 535.145 591.284 536.768 582.162 536.768C573.649 536.768 572.635 536.565 568.682 533.827C566.351 532.205 564.324 531.089 564.223 531.292C564.02 531.495 563.108 533.016 562.095 534.537C561.081 536.16 558.75 538.086 556.824 538.898C554.088 540.013 553.378 540.824 553.885 542.244C554.189 543.258 553.784 544.678 552.872 545.388C552.061 546.097 550.642 549.241 549.73 552.283C547.5 559.99 548.311 567.494 552.061 572.767C555.811 578.243 567.466 585.95 577.703 589.905C585.304 592.846 586.115 593.048 588.649 591.629C597.162 586.863 600.811 585.95 628.682 580.88C645.811 577.838 645.608 577.939 648.547 567.19C650.98 557.962 670.642 532.205 675.101 532.205C678.75 532.205 678.345 529.771 673.986 525.918C669.932 522.267 662.027 519.022 657.365 519.022C656.25 519.022 654.426 518.109 653.209 516.994C650.777 514.763 642.162 513.647 636.284 514.864Z" fill="#003566"/>
<path d="M767.432 518.211C764.088 518.92 763.176 519.529 763.581 520.746C764.797 523.991 780.811 550.052 783.953 554.007C788.108 559.28 788.311 560.193 789.628 579.359C790.135 588.282 791.047 595.989 791.554 596.496C793.277 598.22 797.432 593.048 802.703 582.705C805.541 577.229 808.682 572.362 809.797 571.753C810.811 571.246 813.649 571.043 816.081 571.348C819.527 571.855 820.946 571.55 822.264 570.232C824.493 568.001 824.493 564.959 822.162 564.249C821.149 563.945 819.122 561.105 817.601 557.962C815.98 554.818 812.939 550.052 810.71 547.416C806.149 542.041 805.946 540.621 808.885 536.869C811.52 533.523 810.811 531.292 806.757 530.481C805.034 530.177 803.21 529.061 802.601 528.047C801.892 526.627 800.473 526.12 797.737 526.12C795.203 526.12 793.581 525.613 793.277 524.599C792.466 522.571 785.98 519.529 779.595 518.109C773.514 516.892 773.412 516.892 767.432 518.211Z" fill="#003566"/>
<path d="M752.534 524.701C748.682 527.743 736.318 533.117 728.311 535.247C720.608 537.174 720.101 537.174 717.77 535.45C712.297 531.596 710.98 531.191 706.926 531.698C704.696 532.002 699.02 531.495 694.459 530.684C689.797 529.771 685.034 529.365 683.818 529.771C682.601 530.075 679.257 532.205 676.318 534.436C673.378 536.667 670.642 538.188 670.034 537.883C668.716 537.072 658.581 552.993 652.703 565.162C647.027 576.722 645.608 578.446 636.791 582.806C633.243 584.53 630.405 586.153 630.405 586.356C630.405 586.457 632.23 588.485 634.459 590.818C636.689 593.048 638.514 595.685 638.514 596.598C638.514 599.944 641.655 604.203 645.608 606.231C649.966 608.462 652.196 611.606 651.284 614.04C649.561 618.4 658.581 624.383 666.993 624.484C674.797 624.484 680.878 627.527 676.52 629.149C674.088 630.163 674.696 631.887 679.054 636.146C681.791 638.783 683.108 641.014 683.108 642.839C683.108 645.678 685.034 646.794 690.203 646.794C691.622 646.794 695.574 647.808 698.818 648.923C704.189 650.85 706.318 651.053 717.568 650.546C732.466 649.836 735.507 649.126 746.959 643.447C754.764 639.594 756.284 639.188 762.669 639.29C771.993 639.391 781.115 642.129 784.358 645.881C786.385 648.112 787.804 648.822 790.743 648.822C794.899 648.822 796.622 646.895 796.622 642.129C796.622 635.233 803.311 615.358 805.642 615.358C806.149 615.358 807.365 616.372 808.277 617.589C809.696 619.82 810 619.82 812.534 618.4C814.054 617.487 816.385 615.256 817.601 613.431C819.73 610.389 819.831 609.679 818.514 607.854C816.588 604.812 810.709 604.507 806.351 607.144C801.588 610.085 794.595 609.983 791.858 606.941C788.919 603.696 788.716 602.682 786.993 585.139C786.081 576.418 784.865 567.393 784.358 565.162C782.128 557.049 767.736 531.596 762.061 525.816C758.919 522.774 755.574 522.368 752.534 524.701Z" fill="#003566"/>
<path d="M385.642 541.433C374.088 542.852 366.689 544.576 361.824 546.909C356.047 549.849 347.331 558.976 345.709 563.945C344.899 566.379 343.378 568.305 341.453 569.218C336.284 571.956 338.209 574.187 345.608 574.288C349.561 574.288 350.372 574.694 352.196 577.635C358.581 587.978 357.973 587.471 363.547 587.471C369.932 587.37 373.581 585.544 374.899 581.792C375.912 578.953 381.284 574.795 383.919 574.795C384.628 574.795 385.845 576.316 386.655 578.142C387.466 580.068 388.784 582.097 389.595 582.806C391.926 584.733 395.574 582.097 399.426 575.809C401.149 572.97 403.074 570.739 403.682 570.739C404.392 570.739 406.013 571.652 407.432 572.767C408.851 573.883 410.473 574.795 410.98 574.795C412.5 574.795 419.189 569.117 421.622 565.669L423.75 562.627L419.189 563.235C414.932 563.843 414.324 563.641 411.081 560.396C407.736 557.049 405.405 551.37 405.405 546.604C405.405 545.286 404.899 543.359 404.392 542.244C403.176 540.114 398.615 539.912 385.642 541.433Z" fill="#003566"/>
<path d="M445.135 560.497C443.311 561.004 440.169 562.525 438.041 563.945C435.203 565.872 433.378 566.379 430.642 565.973C427.196 565.466 426.892 565.669 426.182 568.508C425.878 570.232 424.459 572.362 423.041 573.173C421.723 574.085 420.608 575.708 420.608 576.823C420.608 579.46 416.554 581.387 413.007 580.474C411.486 580.068 409.155 578.649 407.635 577.128L405 574.491L402.264 577.635C399.628 580.575 397.297 586.457 397.297 590.209C397.297 593.454 394.764 592.136 387.973 585.443C380.473 577.939 378.041 577.128 378.041 582.198C378.041 587.167 375.304 588.992 365.169 591.223C360.304 592.237 355.845 593.555 355.338 594.063C354.628 594.772 355.034 596.598 356.554 599.64C357.77 602.175 358.784 604.913 358.784 605.623C358.784 606.434 356.959 608.564 354.73 610.288C352.5 612.011 350.676 613.938 350.676 614.445C350.676 614.952 351.993 617.487 353.716 620.225L356.655 624.991L354.527 626.715L352.297 628.338L354.932 632.293C357.466 636.146 362.939 639.695 366.182 639.695C368.311 639.695 370.034 642.23 369.324 644.157C368.007 647.605 372.568 645.577 381.993 638.377C387.264 634.422 392.23 630.67 392.939 630.265C394.865 629.048 412.297 637.566 417.264 642.129C421.52 645.983 423.953 651.661 425.574 661.701C426.486 667.886 428.311 670.421 442.905 686.241C454.459 698.815 466.622 709.767 472.297 712.708C474.223 713.722 478.581 715.04 481.926 715.75C491.351 717.677 494.899 719.502 499.966 724.877C502.601 727.615 505.946 730.15 507.466 730.555C512.736 731.671 514.358 733.091 517.399 738.871C519.831 743.535 521.351 745.056 525.507 747.186C529.155 749.011 531.182 750.938 533.007 754.183C535.946 759.456 540 771.219 541.318 778.013C542.128 782.577 542.027 783.388 539.595 786.836C536.655 791.196 534.223 797.281 534.122 800.728C534.122 803.466 537.872 805.393 540 803.669C542.736 801.438 547.5 793.529 549.122 788.56C550.541 784.098 551.554 782.881 555.405 780.65C559.358 778.318 559.966 777.506 560.27 774.16C560.574 770.611 560.169 769.8 554.392 764.425L548.209 758.442L549.831 754.791C550.642 752.763 553.682 748.099 556.52 744.549C562.601 736.944 564.324 736.538 572.23 741C577.095 743.84 582.973 749.518 584.088 752.459C584.392 753.473 585.101 753.27 586.824 751.648C588.953 749.62 588.953 749.316 587.432 746.375C585.101 741.811 575.372 734.307 560.068 725.282C544.155 715.851 538.48 711.998 537.669 709.868C537.365 709.057 538.074 707.333 539.392 705.914C542.939 702.162 540.709 701.046 529.257 701.046C519.73 701.046 519.122 700.945 513.446 697.497C505.743 692.934 499.561 685.024 495.608 674.68C488.716 656.833 485.676 652.878 475.034 647.706C470.473 645.475 470.27 645.475 468.851 647.301C466.318 650.749 464.493 648.518 463.784 641.014C461.959 622.76 461.959 620.732 463.074 620.023C464.493 619.11 464.493 614.141 462.973 609.172C461.149 602.885 462.568 601.06 473.311 596.598C478.48 594.468 483.345 592.034 484.054 591.223C485.878 589.398 485.878 579.866 484.054 575.404C482.838 572.463 481.824 571.753 475.743 569.826C469.155 567.9 467.331 566.886 460.946 562.322C457.905 560.193 449.899 559.28 445.135 560.497Z" fill="#003566"/>
<path d="M531.182 568.204C524.291 570.435 512.534 572.767 499.764 574.288C490.034 575.607 488.311 580.17 493.682 590.817C498.446 600.35 503.412 603.392 507.264 599.133C509.595 596.598 511.926 596.598 516.993 599.234C522.162 601.769 523.378 601.364 523.378 597.003C523.48 594.062 523.987 593.353 527.331 591.832C529.358 590.817 531.081 589.398 531.182 588.688C531.182 588.08 531.284 585.95 531.385 584.023C531.588 580.981 532.399 579.866 537.466 576.012C549.831 566.581 547.095 563.134 531.182 568.204Z" fill="#003566"/>
<path d="M539.493 578.243C535.541 580.068 533.716 583.212 534.527 587.066C535.236 590.513 534.426 593.048 532.601 593.048C531.892 593.048 530.068 595.077 528.547 597.713C524.493 604.609 517.703 606.028 513.649 600.857C512.23 599.031 511.723 598.93 510.405 600.046C507.872 602.175 508.48 605.724 512.331 610.389C516.791 615.662 517.5 616.879 518.311 621.544C518.716 623.775 520.642 627.121 523.074 629.96C526.723 634.118 527.128 635.031 526.622 638.174C526.014 641.318 526.318 642.129 530.372 646.084C536.959 652.777 542.939 655.819 550.946 656.833C554.797 657.34 558.041 657.644 558.041 657.543C558.142 657.543 554.088 651.458 548.919 644.157C539.189 630.265 533.108 619.211 533.108 615.459C533.108 614.242 533.615 612.316 534.122 611.2C535.135 609.476 536.351 609.273 546.081 609.273C564.122 609.273 589.257 612.011 595.236 614.547C598.074 615.763 600.507 616.372 600.709 615.865C602.331 610.795 604.764 607.752 607.095 607.752C610.642 607.752 611.047 610.997 607.601 612.316C605.372 613.127 605.169 613.634 606.081 615.256C606.588 616.372 607.601 617.589 608.108 617.893C609.628 618.806 609.223 624.687 607.601 626.918C604.966 630.366 605.777 633.712 610.439 638.478L614.696 642.839L611.149 645.78L607.601 648.619L610.439 651.256C612.77 653.385 613.074 654.196 612.162 655.92C611.554 657.137 610.034 657.948 608.615 657.948C606.993 657.948 605.27 659.165 603.446 661.498C601.622 663.931 600 665.047 598.682 664.844C597.061 664.641 596.351 665.351 595.743 667.988C595.135 670.117 594.02 671.537 592.703 671.943C590.98 672.348 590.777 672.957 591.284 676.506C592.095 681.171 598.682 691.717 601.115 692.224C602.128 692.427 604.764 690.5 607.196 687.762C609.628 685.227 612.669 682.692 613.885 682.185C619.054 680.258 631.014 686.951 632.128 692.528C632.432 694.252 633.345 695.874 634.155 696.179C634.966 696.483 638.615 695.367 642.365 693.643C647.331 691.311 651.791 690.196 658.784 689.384C670.236 688.168 672.061 686.748 671.25 680.258C670.743 676.506 671.047 675.897 675.405 671.638C680.372 666.669 680.98 665.351 678.547 664.438C676.115 663.526 671.25 655.211 669.932 649.937C668.919 645.78 669.02 644.461 670.338 641.825C672.162 638.377 672.466 629.859 670.946 627.527C670.034 626.208 669.527 626.411 667.601 628.743C666.284 630.366 664.966 631.583 664.662 631.583C664.257 631.583 661.014 629.555 657.466 627.02C653.007 623.977 650.574 621.442 649.764 619.211C647.23 612.518 645.405 609.679 641.25 606.637C638.209 604.305 636.486 602.074 635.27 598.524C634.257 595.584 631.824 591.933 629.392 589.499C625.743 585.95 624.73 585.443 620.473 585.544C614.392 585.544 604.865 587.674 602.432 589.499C600.608 590.818 600.608 591.02 602.331 597.713C603.851 603.595 603.851 604.812 602.736 606.028C600.304 608.462 597.973 604.913 597.973 598.727C597.973 593.556 596.757 591.02 594.324 591.02C593.716 591.02 592.905 591.933 592.601 593.048C591.385 597.713 579.02 594.265 561.486 584.429C548.311 577.128 544.459 576.012 539.493 578.243Z" fill="#003566"/>
<path d="M535.845 610.997C534.426 612.417 535.236 616.676 538.074 622.355C543.142 632.293 554.899 649.025 560.878 654.703C564.02 657.746 566.554 660.991 566.554 661.903C566.554 665.25 572.432 671.942 579.831 677.216C583.885 679.954 587.736 682.286 588.345 682.286C589.257 682.286 589.459 680.968 589.155 677.824C588.345 670.523 594.831 660.889 599.392 662.613C600.709 663.12 600.912 662.512 600.709 659.267C600.507 655.616 600.709 655.413 603.547 655.109C609.223 654.602 609.527 654.196 607.095 650.444C605.676 648.011 605.068 645.577 605.27 642.737C605.372 639.695 604.966 638.174 603.851 637.566C600.405 635.639 600.912 626.512 604.561 626.512C606.182 626.512 607.703 622.253 606.588 620.53C606.182 619.82 604.358 619.617 602.128 620.022C599.291 620.428 597.162 620.022 594.122 618.501C588.75 615.763 583.581 614.749 566.25 612.823C547.703 610.795 548.412 610.795 547.196 614.344C546.588 615.966 545.878 617.386 545.676 617.386C545.372 617.386 543.851 615.763 542.128 613.837C539.088 610.389 537.264 609.578 535.845 610.997Z" fill="#003566"/>
<path d="M674.595 641.825C672.77 643.244 671.959 644.867 671.959 647.098C671.959 651.357 677.432 660.788 681.182 662.816C685.946 665.554 684.831 672.145 679.459 672.145C676.318 672.145 675.304 673.869 674.595 681.272C673.784 689.486 675 693.542 679.561 698.612C683.108 702.567 683.513 703.683 683.108 708.854C683.007 710.984 683.615 711.998 685.54 712.809C687.669 713.823 689.797 713.62 696.79 711.897C707.939 709.057 711.79 709.057 720.101 712.201C728.818 715.547 737.736 715.75 744.223 712.911C747.77 711.39 749.392 709.767 751.52 705.812C756.081 697.497 766.115 693.948 773.311 698.105C776.655 700.133 778.986 699.525 780.507 696.077C782.128 692.629 779.696 687.863 776.351 687.863C773.311 687.762 773.311 685.227 776.453 681.272C778.277 679.041 780.811 673.971 784.966 664.236C785.98 662.005 787.905 660.281 790.946 658.76C797.432 655.616 798.041 651.965 792.162 651.864C791.047 651.864 785.574 649.734 780 646.997C770.574 642.636 769.155 642.23 762.162 642.23C754.966 642.23 754.155 642.433 745.439 647.301L736.318 652.371L718.581 652.27C692.23 652.168 680.777 649.836 680.372 644.766C680.372 643.346 680.27 641.622 680.169 640.912C680.068 639.087 677.635 639.391 674.595 641.825Z" fill="#003566"/>
<path d="M45.6081 654.703C43.3784 655.718 41.9594 657.34 41.7567 658.658C41.25 662.309 36.8919 665.047 31.4189 665.047C26.6554 665.047 24.4257 666.467 23.0067 670.32C22.7027 671.334 23.7162 674.579 25.5405 677.926C27.3648 681.171 29.2905 686.545 29.8986 689.891L31.0135 695.976H37.0946C41.8581 695.976 43.4797 696.381 45.304 698.207C48.6486 701.553 55.2365 702.162 60.8108 699.626C66.3851 697.091 75.2027 696.787 77.4324 699.119C78.3446 699.931 79.054 701.756 79.054 703.074C79.054 704.291 79.9662 706.421 80.9797 707.739C83.2094 710.578 82.804 712.201 77.4324 720.313C74.1892 725.079 73.5811 727.006 72.973 733.8C72.5676 738.668 71.554 742.724 70.4392 744.448C69.3243 746.172 68.9189 748.2 69.223 750.025C69.8311 753.169 67.1959 760.065 64.5608 762.296C62.2297 764.222 62.4324 766.859 65.1689 771.321C69.0203 777.506 69.1216 778.318 65.777 784.605L62.6351 790.588L64.7635 795.354C67.5 801.438 67.3986 802.148 64.4594 804.886C63.0405 806.204 61.2162 808.841 60.304 810.768C58.7838 813.911 58.7838 814.418 60.2027 816.751C61.1149 818.069 64.4594 820.503 67.7027 822.125C74.8986 825.776 77.5338 828.615 84.0203 839.668C89.1892 848.491 94.054 853.358 96.7905 852.243C97.6013 851.939 98.9189 850.215 99.9324 848.389C102.568 843.116 105.304 840.683 110.372 839.06C117.669 836.626 132.973 834.497 147.973 833.787C164.088 832.976 166.52 832.164 172.804 824.762C178.176 818.475 183.75 814.418 188.919 812.999C191.655 812.289 192.669 811.275 193.176 809.247C194.392 804.379 197.432 799.207 203.311 792.312C209.899 784.503 210 783.388 204.73 772.031L201.486 764.932L211.318 750.735C216.791 742.927 222.568 734.105 224.189 731.164C227.838 724.877 231.385 722.544 245.98 717.271C257.23 713.215 267.061 707.029 271.115 701.553C274.662 696.787 274.662 686.342 271.014 686.342C270.304 686.342 269.189 687.255 268.581 688.37C267.669 690.094 266.453 690.398 260.676 690.398C256.622 690.398 252.669 689.79 250.946 688.877C249.324 687.965 246.385 687.458 244.358 687.559C241.216 687.863 240.709 687.559 239.797 684.821C239.189 683.097 238.277 681.475 237.669 681.069C237.162 680.663 231.892 680.258 226.014 680.258C204.02 680.258 189.02 676.911 181.52 670.421C175.439 665.351 170.27 664.337 139.966 663.019C115.743 661.903 104.493 660.686 94.7635 658.05C92.5338 657.441 84.9324 657.036 77.9392 657.036C66.9932 657.036 64.3581 656.732 60.5067 655.008C54.8311 652.371 50.2703 652.27 45.6081 654.703Z" fill="#003566"/>
<path d="M393.041 684.415C390.912 685.937 390.203 687.356 390.203 689.891C390.203 696.381 392.432 709.159 393.851 710.578C395.068 711.897 395.574 711.795 397.905 709.564C403.987 703.885 407.534 692.021 405 685.937C403.581 682.692 403.074 682.286 399.628 682.286C397.399 682.387 394.662 683.199 393.041 684.415Z" fill="#003566"/>
<path d="M613.074 685.531C608.818 686.951 607.601 691.108 609.527 697.598C611.554 704.19 611.655 722.747 609.73 728.122C608.615 731.164 608.615 732.482 609.73 735.727C610.541 737.857 611.149 740.797 611.149 742.318C611.149 744.245 612.162 745.665 614.493 747.287C618.953 750.33 621.284 753.372 621.284 756.008C621.284 757.327 621.689 758.341 622.196 758.341C623.818 758.341 630 750.431 633.446 744.042C635.169 740.696 637.297 737.654 638.108 737.35C640.338 736.538 639.831 734.612 635.27 725.789C631.014 717.778 630.912 717.271 630.912 707.84C630.912 700.742 630.405 697.193 629.189 694.962C625.642 688.37 617.939 683.807 613.074 685.531Z" fill="#003566"/>
<path d="M647.838 694.556C646.622 695.773 645.304 696.584 645 696.179C643.48 694.759 638.716 698.714 636.081 703.581C632.736 709.767 632.432 714.128 634.865 719.502C636.892 724.065 640.541 726.6 645.608 726.905C652.297 727.412 654.426 726.905 659.189 723.66C662.128 721.834 666.182 720.11 669.324 719.705C678.649 718.184 681.892 710.173 676.723 701.148C673.378 695.063 669.122 693.136 658.784 692.629C650.574 692.224 649.764 692.325 647.838 694.556Z" fill="#003566"/>
<path d="M34.6622 699.728C32.8378 700.235 31.0135 701.35 30.7095 702.162C30.4054 702.973 30.9122 706.725 31.9257 710.375C35.777 724.572 31.2162 752.763 22.1959 769.698C19.8649 774.16 19.2568 776.594 19.4595 779.839C19.6622 782.881 20.1689 784.098 21.1824 783.895C23.7162 783.388 28.9865 785.72 31.723 788.56C34.2568 791.196 34.4595 791.805 33.5473 796.469C31.9257 805.495 31.2162 818.576 32.3311 821.314C33.0405 823.443 34.3581 824.255 38.4122 825.269C47.1284 827.297 50.2703 826.993 53.7162 823.748C56.1486 821.415 56.7568 819.996 56.7568 816.649C56.7568 813.81 57.7703 810.362 59.7973 806.711C63.3446 800.12 63.5473 797.889 61.1149 793.731C59.3919 790.791 59.3919 790.588 62.1284 785.822C65.777 779.23 65.5743 776.695 60.9122 768.684C58.7838 764.932 56.8581 761.484 56.8581 760.977C56.7568 760.47 58.8851 759.355 61.5203 758.442L66.3851 756.82V751.242C66.3851 747.592 66.9932 744.752 68.2095 743.13C69.3243 741.507 69.9324 738.668 69.9324 734.51C69.9324 728.527 70.8446 725.992 76.1149 716.764C78.6487 712.302 78.1419 706.421 74.8987 702.973C71.8581 699.728 65.2703 699.626 61.723 702.669C59.5946 704.494 58.277 704.697 51.7905 704.393C45.8108 704.088 44.0878 703.581 42.6689 701.959C40.4392 699.221 38.6149 698.714 34.6622 699.728Z" fill="#003566"/>
<path d="M760.439 700.032C755.98 701.959 753.649 705.711 754.561 709.666C755.068 711.795 754.763 713.62 753.649 715.243C750.203 720.516 752.736 731.062 758.108 734.003C761.25 735.727 763.986 734.713 770.068 729.541C776.453 724.065 780 722.95 794.899 722.037L806.25 721.226L799.662 718.082C792.061 714.432 789.932 712.708 785.878 707.13C782.128 701.959 781.419 701.452 778.784 702.06C777.669 702.263 775.034 701.654 773.007 700.539C768.649 698.207 765 698.004 760.439 700.032Z" fill="#003566"/>
<path d="M918.75 699.626C916.52 700.032 911.149 700.438 906.791 700.438C889.662 700.641 863.412 710.578 853.784 720.516L849.324 725.282L840.405 723.964C829.561 722.341 811.52 721.327 809.291 722.139C805.541 723.66 814.358 730.961 819.932 730.961C823.885 730.961 821.858 732.888 815.676 734.916C807.365 737.755 805.743 738.769 807.669 739.986C809.696 741.304 806.047 741.71 784.966 743.028C763.987 744.245 755.878 746.273 751.014 751.851C748.48 754.791 747.973 756.211 748.176 759.152L748.48 762.904L756.385 762.701C760.642 762.498 764.189 762.6 764.189 762.904C764.189 763.107 763.277 764.831 762.162 766.757L760.034 770.307L763.682 774.566C765.608 776.898 767.23 779.129 767.23 779.535C767.23 779.94 766.115 781.766 764.696 783.692C763.277 785.619 762.162 787.241 762.162 787.444C762.162 787.647 763.378 788.965 764.797 790.284C766.318 791.703 767.027 792.819 766.419 792.819C764.696 792.819 762.162 795.861 762.162 798.092C762.162 799.512 763.378 800.526 766.216 801.641C769.662 803.061 770.27 803.771 770.27 806.204C770.27 807.827 769.662 809.348 768.75 809.652C766.318 810.565 766.926 812.086 771.791 817.258C774.223 819.894 776.554 823.139 776.858 824.458C777.466 826.79 777.77 826.891 782.23 826.181C789.932 824.863 790.439 825.066 795.507 829.832C798.243 832.367 801.385 834.395 802.601 834.395C804.02 834.395 805.439 835.511 806.554 837.539C811.622 846.868 816.689 849.505 825 846.97C829.966 845.55 836.149 839.973 836.149 836.931C836.149 833.686 838.581 830.339 840.912 830.339C847.703 830.339 867.365 839.263 875.878 846.158C881.858 851.127 884.899 851.634 892.905 849.201C901.52 846.564 906.791 843.725 912.061 839.06C914.899 836.525 918.446 834.091 919.865 833.787C923.716 832.773 931.216 833.888 933.345 835.815C935.878 838.147 937.703 837.843 942.061 834.395C946.723 830.643 949.054 829.933 951.689 831.353C954.527 832.874 954.223 835.308 950.676 840.581C945.304 848.592 947.331 857.11 953.311 851.533C957.061 848.085 958.784 844.232 958.784 839.466C958.784 837.133 959.291 834.395 959.797 833.28C961.115 830.948 965.27 830.745 968.919 832.874C972.466 834.902 976.216 834.801 986.047 832.164L994.459 829.933L1004.29 832.164C1009.66 833.381 1015.03 834.395 1016.35 834.395C1017.57 834.395 1023.55 832.773 1029.53 830.846C1043.92 826.283 1048.68 825.269 1060.34 824.255C1066.72 823.748 1071.18 822.835 1073.21 821.618C1076.15 819.894 1076.45 819.894 1079.29 821.517C1081.93 823.038 1082.53 823.038 1085.88 821.72C1088.61 820.604 1093.68 820.198 1106.66 820.198C1117.7 820.198 1124.09 819.793 1124.49 819.083C1125.81 817.055 1123.89 812.694 1120.24 809.449C1116.89 806.306 1116.69 805.799 1117.7 803.466C1120.14 798.193 1118.72 784.605 1114.26 771.726C1112.64 766.96 1113.04 765.439 1115.68 765.439C1119.32 765.439 1121.96 762.498 1121.96 758.341C1121.96 753.879 1120.14 752.256 1114.97 752.256C1109.49 752.256 1107.16 750.634 1104.93 745.361C1102.4 739.479 1102.2 737.755 1103.92 735.017C1105.64 732.279 1103.21 727.817 1095.71 720.009C1089.02 713.012 1086.79 712.302 1075.54 713.722C1066.01 714.939 1062.47 716.156 1054.56 720.415C1043.82 726.296 1032.57 728.223 1023.24 725.688C1019.59 724.775 1016.96 724.877 1008.55 726.296C995.676 728.629 989.493 727.919 973.48 722.747C966.791 720.618 960.203 718.792 958.885 718.792C957.061 718.792 954.73 717.068 950.98 713.012C946.824 708.55 945.304 707.536 944.392 708.449C942.669 710.173 937.399 709.97 934.662 708.043C933.345 707.131 931.216 704.697 929.797 702.466C927.162 698.207 926.25 698.004 918.75 699.626Z" fill="#003566"/>
<path d="M700.338 714.33C697.804 715.142 692.432 716.156 688.277 716.663C682.5 717.372 680.372 718.082 679.155 719.705C677.939 721.226 675.709 722.037 670.642 722.747C664.155 723.66 658.378 726.195 655.743 729.44C654.932 730.352 652.703 730.961 650.169 730.961C644.189 730.961 642.568 731.772 642.568 734.612C642.568 735.93 641.25 738.465 639.628 740.392C638.007 742.217 636.284 745.259 635.777 747.186C635.068 749.62 634.155 750.837 632.331 751.242C630.101 751.851 629.899 752.358 630 757.529C630.203 766.453 635.878 774.971 642.77 776.594L646.115 777.405L642.872 778.115C637.905 779.23 637.095 780.751 639.02 785.315C641.453 791.196 642.77 791.703 654.932 791.805C660.912 791.805 668.209 792.312 671.149 792.92C678.041 794.34 693.75 801.945 699.02 806.509C701.25 808.435 703.378 809.754 703.682 809.449C704.696 808.435 702.466 801.844 700.034 798.599C697.5 795.354 693.041 792.007 680.574 784.098L674.493 780.346L677.838 779.433C681.182 778.52 681.182 778.52 679.561 775.985C678.649 774.566 678.041 772.436 678.243 771.219C678.547 769.292 679.155 768.988 682.905 769.191C686.453 769.394 687.264 769.09 686.959 767.771C686.757 766.859 685.236 765.743 683.412 765.236C680.27 764.425 679.966 763.918 678.547 757.935C678.243 756.211 677.027 753.676 675.912 752.155C674.899 750.634 673.986 748.403 673.986 747.287C673.986 744.752 676.115 739.479 678.345 736.538C679.865 734.612 679.966 734.612 680.676 737.552C681.689 742.014 684.02 744.144 687.77 744.144C693.953 744.144 695.98 742.724 696.689 737.755C697.095 735.22 698.311 732.381 699.426 731.468C701.757 729.237 717.669 725.992 725.777 725.891C728.818 725.891 733.784 726.6 736.723 727.513C739.662 728.324 743.716 728.933 745.743 728.73C749.291 728.426 749.493 728.223 749.291 724.877C749.189 722.95 748.48 720.922 747.568 720.212C746.655 719.603 741.993 718.792 737.128 718.488C732.162 718.082 724.358 716.663 719.696 715.243C709.966 712.404 706.824 712.201 700.338 714.33Z" fill="#003566"/>
<path d="M389.493 728.02C383.513 730.86 383.108 731.265 383.108 734.51C383.108 736.437 383.818 740.595 384.628 743.84C386.554 751.344 386.554 756.921 384.426 764.628L382.703 770.814L386.655 774.261C388.784 776.087 391.216 777.608 391.926 777.608C392.736 777.608 394.561 776.188 395.98 774.464C397.399 772.842 399.223 771.625 399.932 771.929C402.872 773.045 406.52 763.715 407.939 751.445C409.155 740.595 403.277 724.877 398.007 724.877C396.791 724.877 392.939 726.296 389.493 728.02Z" fill="#003566"/>
<path d="M657.264 797.078C656.149 797.686 652.804 800.019 649.865 802.25L644.595 806.306L650.676 812.694C656.554 818.779 657.872 821.415 655.743 822.734C654.223 823.646 654.527 828.919 656.149 830.238C657.264 831.252 658.176 831.252 659.797 830.339C662.939 828.615 664.459 829.629 667.399 835.409C668.818 838.147 670.338 840.48 670.743 840.48C671.25 840.48 672.365 838.756 673.378 836.728L675.203 832.874L677.128 835.308C678.243 836.626 679.662 837.438 680.574 837.032C683.007 836.119 682.399 829.832 678.953 822.024C677.23 818.17 676.115 814.723 676.419 814.317C676.723 814.013 679.257 814.824 681.892 816.041C687.568 818.677 692.534 818.576 693.041 815.737C693.345 814.215 693.041 813.911 691.216 814.418C689.595 814.824 687.872 814.013 684.831 811.173C678.75 805.799 674.189 802.554 668.412 799.714C661.52 796.165 659.595 795.76 657.264 797.078Z" fill="#003566"/>
<path d="M478.378 802.452C477.568 803.365 475.743 803.973 473.716 803.771C471.791 803.669 469.662 804.176 469.054 804.886C466.014 807.928 484.662 820.503 497.128 823.748C503.818 825.472 507.061 827.297 509.291 830.745C510.203 832.063 512.331 833.787 513.953 834.395C516.588 835.511 517.399 835.409 519.73 833.685C523.176 831.15 523.581 828.514 521.554 822.429C519.831 817.156 520.338 814.114 524.392 806.509C527.737 800.221 528.142 800.323 509.291 802.452C497.838 803.669 495.304 803.669 490.034 802.452C482.23 800.627 479.899 800.627 478.378 802.452Z" fill="#003566"/>
<path d="M698.311 868.671C698.311 869.887 702.973 871.409 709.155 872.321C711.487 872.625 715.541 874.045 718.176 875.465C726.588 879.927 740.372 878 734.493 873.132C731.554 870.699 698.311 866.541 698.311 868.671Z" fill="#003566"/>
</g>
</svg>
