<svg width="497" height="341" viewBox="0 0 497 341" fill="none" xmlns="http://www.w3.org/2000/svg">
<rect opacity="0.7" x="157.202" y="227.434" width="260.842" height="4" transform="rotate(-47.1618 157.202 227.434)" fill="#D9D9D9" stroke="#565656"/>
<rect opacity="0.4" x="156.496" y="227.46" width="261.842" height="5" transform="rotate(-47.1618 156.496 227.46)" fill="#D60A0A"/>
<rect opacity="0.7" x="61.5978" y="97.4045" width="280.803" height="4" transform="rotate(-12.7153 61.5978 97.4045)" fill="#D9D9D9" stroke="#565656"/>
<rect opacity="0.7" x="346.387" y="286.93" width="251.53" height="4" transform="rotate(-92.9312 346.387 286.93)" fill="#D9D9D9" stroke="#565656"/>
<rect opacity="0.7" x="345.913" y="287.455" width="252.53" height="5" transform="rotate(-92.9312 345.913 287.455)" fill="#FFC300"/>
<rect opacity="0.7" x="158.836" y="225.628" width="196.207" height="4" transform="rotate(17.5851 158.836 225.628)" fill="#D9D9D9" stroke="#565656"/>
<rect opacity="0.7" x="158.511" y="225" width="197.207" height="5" transform="rotate(17.5851 158.511 225)" fill="#FFC300"/>
<rect opacity="0.7" x="64.9037" y="98.6998" width="159.81" height="4" transform="rotate(53.2214 64.9037 98.6998)" fill="#D9D9D9" stroke="#565656"/>
<circle cx="159" cy="227" r="6" fill="#E0AC00"/>
<circle cx="159" cy="227" r="4.8" fill="#FFD60A"/>
<path d="M185.016 221.392V233H182.896V225.872C182.896 225.723 182.899 225.563 182.904 225.392C182.915 225.221 182.931 225.048 182.952 224.872L179.632 231.168C179.451 231.515 179.171 231.688 178.792 231.688H178.456C178.269 231.688 178.104 231.645 177.96 231.56C177.816 231.469 177.701 231.339 177.616 231.168L174.28 224.848C174.296 225.035 174.309 225.216 174.32 225.392C174.331 225.563 174.336 225.723 174.336 225.872V233H172.216V221.392H174.04C174.141 221.392 174.232 221.395 174.312 221.4C174.392 221.405 174.461 221.421 174.52 221.448C174.584 221.469 174.64 221.507 174.688 221.56C174.741 221.608 174.792 221.677 174.84 221.768L178.088 227.96C178.189 228.147 178.283 228.339 178.368 228.536C178.459 228.733 178.544 228.936 178.624 229.144C178.704 228.931 178.787 228.723 178.872 228.52C178.963 228.317 179.059 228.123 179.16 227.936L182.384 221.768C182.432 221.677 182.483 221.608 182.536 221.56C182.589 221.507 182.645 221.469 182.704 221.448C182.768 221.421 182.837 221.405 182.912 221.4C182.992 221.395 183.085 221.392 183.192 221.392H185.016ZM194.323 231.048V233H187.435V221.392H189.835V231.048H194.323ZM201.922 228.592L200.666 225.04C200.591 224.853 200.511 224.635 200.426 224.384C200.346 224.133 200.269 223.861 200.194 223.568C200.119 223.867 200.039 224.144 199.954 224.4C199.874 224.651 199.797 224.869 199.722 225.056L198.474 228.592H201.922ZM205.954 233H204.09C203.882 233 203.711 232.952 203.578 232.856C203.45 232.755 203.354 232.627 203.29 232.472L202.506 230.256H197.882L197.098 232.472C197.045 232.605 196.951 232.728 196.818 232.84C196.685 232.947 196.517 233 196.314 233H194.434L198.97 221.392H201.426L205.954 233Z" fill="#FFC300"/>
<circle cx="335" cy="36" r="6" fill="#E0AC00"/>
<circle cx="335" cy="36" r="4.8" fill="#FFD60A"/>
<path d="M363.832 30.392L360.232 42H358.064L355.688 34.408C355.651 34.3013 355.613 34.184 355.576 34.056C355.539 33.928 355.504 33.792 355.472 33.648C355.44 33.792 355.405 33.928 355.368 34.056C355.331 34.184 355.293 34.3013 355.256 34.408L352.856 42H350.68L347.088 30.392H349.104C349.312 30.392 349.485 30.44 349.624 30.536C349.768 30.632 349.861 30.76 349.904 30.92L351.704 37.464C351.747 37.6453 351.789 37.8427 351.832 38.056C351.88 38.264 351.925 38.4853 351.968 38.72C352.016 38.48 352.067 38.256 352.12 38.048C352.173 37.84 352.232 37.6453 352.296 37.464L354.392 30.92C354.435 30.7867 354.525 30.6667 354.664 30.56C354.808 30.448 354.981 30.392 355.184 30.392H355.888C356.096 30.392 356.264 30.4427 356.392 30.544C356.525 30.64 356.624 30.7653 356.688 30.92L358.776 37.464C358.84 37.6347 358.899 37.8213 358.952 38.024C359.005 38.2213 359.056 38.432 359.104 38.656C359.147 38.432 359.187 38.2213 359.224 38.024C359.267 37.8213 359.309 37.6347 359.352 37.464L361.152 30.92C361.189 30.7813 361.28 30.6587 361.424 30.552C361.568 30.4453 361.741 30.392 361.944 30.392H363.832ZM370.469 37.592L369.213 34.04C369.138 33.8533 369.058 33.6347 368.973 33.384C368.893 33.1333 368.816 32.8613 368.741 32.568C368.666 32.8667 368.586 33.144 368.501 33.4C368.421 33.6507 368.344 33.8693 368.269 34.056L367.021 37.592H370.469ZM374.501 42H372.637C372.429 42 372.258 41.952 372.125 41.856C371.997 41.7547 371.901 41.6267 371.837 41.472L371.053 39.256H366.429L365.645 41.472C365.592 41.6053 365.498 41.728 365.365 41.84C365.232 41.9467 365.064 42 364.861 42H362.981L367.517 30.392H369.973L374.501 42ZM390.395 30.392L386.795 42H384.627L382.251 34.408C382.213 34.3013 382.176 34.184 382.139 34.056C382.101 33.928 382.067 33.792 382.035 33.648C382.003 33.792 381.968 33.928 381.931 34.056C381.893 34.184 381.856 34.3013 381.819 34.408L379.419 42H377.243L373.651 30.392H375.667C375.875 30.392 376.048 30.44 376.187 30.536C376.331 30.632 376.424 30.76 376.467 30.92L378.266 37.464C378.309 37.6453 378.352 37.8427 378.395 38.056C378.443 38.264 378.488 38.4853 378.531 38.72C378.579 38.48 378.629 38.256 378.683 38.048C378.736 37.84 378.795 37.6453 378.859 37.464L380.955 30.92C380.997 30.7867 381.088 30.6667 381.227 30.56C381.371 30.448 381.544 30.392 381.747 30.392H382.451C382.659 30.392 382.827 30.4427 382.955 30.544C383.088 30.64 383.187 30.7653 383.251 30.92L385.339 37.464C385.403 37.6347 385.461 37.8213 385.515 38.024C385.568 38.2213 385.619 38.432 385.667 38.656C385.709 38.432 385.749 38.2213 385.787 38.024C385.829 37.8213 385.872 37.6347 385.915 37.464L387.715 30.92C387.752 30.7813 387.843 30.6587 387.987 30.552C388.131 30.4453 388.304 30.392 388.507 30.392H390.395Z" fill="#FFC300"/>
<circle cx="64" cy="98" r="6" fill="#E0AC00"/>
<circle cx="64" cy="98" r="4.8" fill="#FFD60A"/>
<path d="M81.672 102.16C82.056 102.16 82.3707 102.115 82.616 102.024C82.8667 101.928 83.0667 101.803 83.216 101.648C83.3653 101.493 83.4693 101.317 83.528 101.12C83.5867 100.917 83.616 100.709 83.616 100.496C83.616 100.261 83.5813 100.051 83.512 99.864C83.4427 99.6773 83.3307 99.52 83.176 99.392C83.0213 99.2587 82.8187 99.1573 82.568 99.088C82.3227 99.0187 82.0187 98.984 81.656 98.984H79.616V102.16H81.672ZM79.616 94.216V97.352H81.192C81.528 97.352 81.8267 97.3253 82.088 97.272C82.3493 97.2133 82.568 97.1227 82.744 97C82.92 96.8773 83.0533 96.7173 83.144 96.52C83.24 96.3173 83.288 96.0747 83.288 95.792C83.288 95.504 83.248 95.2587 83.168 95.056C83.0933 94.8533 82.976 94.6907 82.816 94.568C82.656 94.4453 82.4533 94.3573 82.208 94.304C81.9627 94.2453 81.672 94.216 81.336 94.216H79.616ZM81.336 92.392C82.1147 92.392 82.7787 92.4667 83.328 92.616C83.8827 92.76 84.3333 92.968 84.68 93.24C85.032 93.5067 85.288 93.832 85.448 94.216C85.608 94.6 85.688 95.0293 85.688 95.504C85.688 95.7707 85.648 96.0267 85.568 96.272C85.4933 96.5173 85.3733 96.7493 85.208 96.968C85.048 97.1813 84.84 97.376 84.584 97.552C84.328 97.728 84.024 97.8773 83.672 98C84.4613 98.1867 85.0453 98.4907 85.424 98.912C85.8027 99.3333 85.992 99.88 85.992 100.552C85.992 101.043 85.896 101.499 85.704 101.92C85.5173 102.341 85.2427 102.707 84.88 103.016C84.5173 103.325 84.0693 103.568 83.536 103.744C83.008 103.915 82.4 104 81.712 104H77.216V92.392H81.336ZM95.7294 101.144C95.8627 101.144 95.9747 101.192 96.0654 101.288L97.0174 102.304C96.548 102.901 95.964 103.355 95.2654 103.664C94.572 103.973 93.7454 104.128 92.7854 104.128C91.916 104.128 91.1347 103.981 90.4414 103.688C89.748 103.389 89.1587 102.976 88.6734 102.448C88.188 101.92 87.8147 101.293 87.5534 100.568C87.292 99.8427 87.1614 99.0507 87.1614 98.192C87.1614 97.616 87.2227 97.0693 87.3454 96.552C87.4734 96.0293 87.6574 95.5493 87.8974 95.112C88.1374 94.6747 88.4254 94.28 88.7614 93.928C89.1027 93.576 89.4867 93.2773 89.9134 93.032C90.34 92.7813 90.804 92.592 91.3054 92.464C91.812 92.3307 92.3507 92.264 92.9214 92.264C93.348 92.264 93.7507 92.3013 94.1294 92.376C94.5134 92.4507 94.8707 92.5547 95.2014 92.688C95.532 92.8213 95.836 92.984 96.1134 93.176C96.396 93.3627 96.6494 93.568 96.8734 93.792L96.0654 94.896C96.0174 94.9653 95.956 95.0267 95.8814 95.08C95.8067 95.1333 95.7054 95.16 95.5774 95.16C95.4494 95.16 95.3187 95.1147 95.1854 95.024C95.0574 94.9333 94.8974 94.832 94.7054 94.72C94.5187 94.608 94.2814 94.5067 93.9934 94.416C93.7107 94.3253 93.3507 94.28 92.9134 94.28C92.428 94.28 91.9827 94.368 91.5774 94.544C91.172 94.72 90.8227 94.976 90.5294 95.312C90.2414 95.6427 90.0174 96.0507 89.8574 96.536C89.6974 97.0213 89.6174 97.5733 89.6174 98.192C89.6174 98.816 89.7027 99.3733 89.8734 99.864C90.0494 100.349 90.2867 100.76 90.5854 101.096C90.8894 101.432 91.2414 101.688 91.6414 101.864C92.0467 102.035 92.4787 102.12 92.9374 102.12C93.2094 102.12 93.4547 102.107 93.6734 102.08C93.8974 102.053 94.1027 102.008 94.2894 101.944C94.4814 101.88 94.66 101.797 94.8254 101.696C94.996 101.595 95.1667 101.467 95.3374 101.312C95.396 101.264 95.4574 101.224 95.5214 101.192C95.5854 101.16 95.6547 101.144 95.7294 101.144ZM108.316 92.392V104H107.076C106.89 104 106.732 103.971 106.604 103.912C106.476 103.848 106.351 103.741 106.228 103.592L100.444 96.232C100.46 96.4187 100.471 96.6027 100.476 96.784C100.487 96.9653 100.492 97.1333 100.492 97.288V104H98.3723V92.392H99.6363C99.7376 92.392 99.8229 92.3973 99.8923 92.408C99.9669 92.4133 100.034 92.432 100.092 92.464C100.151 92.4907 100.207 92.528 100.26 92.576C100.314 92.624 100.372 92.688 100.436 92.768L106.26 100.16C106.239 99.9573 106.223 99.7627 106.212 99.576C106.202 99.384 106.196 99.2027 106.196 99.032V92.392H108.316Z" fill="#FFC300"/>
<circle cx="350" cy="287" r="6" fill="#E0AC00"/>
<circle cx="350" cy="287" r="4.8" fill="#FFD60A"/>
<path d="M370.104 291.048V293H363.216V281.392H365.616V291.048H370.104ZM379.12 290.144C379.253 290.144 379.365 290.192 379.456 290.288L380.408 291.304C379.939 291.901 379.355 292.355 378.656 292.664C377.963 292.973 377.136 293.128 376.176 293.128C375.307 293.128 374.525 292.981 373.832 292.688C373.139 292.389 372.549 291.976 372.064 291.448C371.579 290.92 371.205 290.293 370.944 289.568C370.683 288.843 370.552 288.051 370.552 287.192C370.552 286.616 370.613 286.069 370.736 285.552C370.864 285.029 371.048 284.549 371.288 284.112C371.528 283.675 371.816 283.28 372.152 282.928C372.493 282.576 372.877 282.277 373.304 282.032C373.731 281.781 374.195 281.592 374.696 281.464C375.203 281.331 375.741 281.264 376.312 281.264C376.739 281.264 377.141 281.301 377.52 281.376C377.904 281.451 378.261 281.555 378.592 281.688C378.923 281.821 379.227 281.984 379.504 282.176C379.787 282.363 380.04 282.568 380.264 282.792L379.456 283.896C379.408 283.965 379.347 284.027 379.272 284.08C379.197 284.133 379.096 284.16 378.968 284.16C378.84 284.16 378.709 284.115 378.576 284.024C378.448 283.933 378.288 283.832 378.096 283.72C377.909 283.608 377.672 283.507 377.384 283.416C377.101 283.325 376.741 283.28 376.304 283.28C375.819 283.28 375.373 283.368 374.968 283.544C374.563 283.72 374.213 283.976 373.92 284.312C373.632 284.643 373.408 285.051 373.248 285.536C373.088 286.021 373.008 286.573 373.008 287.192C373.008 287.816 373.093 288.373 373.264 288.864C373.44 289.349 373.677 289.76 373.976 290.096C374.28 290.432 374.632 290.688 375.032 290.864C375.437 291.035 375.869 291.12 376.328 291.12C376.6 291.12 376.845 291.107 377.064 291.08C377.288 291.053 377.493 291.008 377.68 290.944C377.872 290.88 378.051 290.797 378.216 290.696C378.387 290.595 378.557 290.467 378.728 290.312C378.787 290.264 378.848 290.224 378.912 290.192C378.976 290.16 379.045 290.144 379.12 290.144ZM387.891 288.592L386.635 285.04C386.56 284.853 386.48 284.635 386.395 284.384C386.315 284.133 386.238 283.861 386.163 283.568C386.088 283.867 386.008 284.144 385.923 284.4C385.843 284.651 385.766 284.869 385.691 285.056L384.443 288.592H387.891ZM391.923 293H390.059C389.851 293 389.68 292.952 389.547 292.856C389.419 292.755 389.323 292.627 389.259 292.472L388.475 290.256H383.851L383.067 292.472C383.014 292.605 382.92 292.728 382.787 292.84C382.654 292.947 382.486 293 382.283 293H380.403L384.939 281.392H387.395L391.923 293Z" fill="#FFC300"/>
<rect x="171" y="37" width="56" height="25" rx="5" fill="#D9D9D9"/>
<path d="M199.5 68L191.273 61.25L207.727 61.25L199.5 68Z" fill="#D9D9D9"/>
<path d="M193.914 54.376V56H187.402V54.376H189.706V48.024C189.706 47.8853 189.709 47.744 189.714 47.6C189.719 47.456 189.727 47.3093 189.738 47.16L188.218 48.424C188.111 48.504 188.007 48.5547 187.906 48.576C187.805 48.5973 187.709 48.6 187.618 48.584C187.527 48.5627 187.447 48.5307 187.378 48.488C187.309 48.44 187.255 48.392 187.218 48.344L186.522 47.408L190.09 44.384H191.906V54.376H193.914ZM195.651 47.664C195.737 47.0987 195.897 46.6027 196.131 46.176C196.366 45.7493 196.659 45.3947 197.011 45.112C197.363 44.8293 197.763 44.6187 198.211 44.48C198.665 44.336 199.153 44.264 199.675 44.264C200.23 44.264 200.726 44.344 201.163 44.504C201.606 44.6587 201.979 44.872 202.283 45.144C202.587 45.416 202.819 45.7333 202.979 46.096C203.145 46.4587 203.227 46.848 203.227 47.264C203.227 47.632 203.187 47.9573 203.107 48.24C203.033 48.5173 202.918 48.76 202.763 48.968C202.614 49.176 202.427 49.352 202.203 49.496C201.985 49.64 201.731 49.76 201.443 49.856C202.777 50.2933 203.443 51.1813 203.443 52.52C203.443 53.112 203.334 53.6347 203.115 54.088C202.897 54.536 202.603 54.912 202.235 55.216C201.867 55.52 201.438 55.7493 200.947 55.904C200.462 56.0533 199.953 56.128 199.419 56.128C198.854 56.128 198.355 56.064 197.923 55.936C197.491 55.808 197.11 55.616 196.779 55.36C196.454 55.104 196.174 54.784 195.939 54.4C195.705 54.0107 195.499 53.5573 195.323 53.04L196.299 52.64C196.555 52.5333 196.793 52.504 197.011 52.552C197.235 52.6 197.395 52.7173 197.491 52.904C197.598 53.1067 197.71 53.2933 197.827 53.464C197.95 53.6347 198.086 53.784 198.235 53.912C198.385 54.0347 198.553 54.1307 198.739 54.2C198.931 54.2693 199.15 54.304 199.395 54.304C199.705 54.304 199.974 54.2533 200.203 54.152C200.433 54.0507 200.625 53.92 200.779 53.76C200.934 53.5947 201.049 53.4107 201.123 53.208C201.203 53 201.243 52.7947 201.243 52.592C201.243 52.3253 201.219 52.0853 201.171 51.872C201.123 51.6533 201.011 51.4693 200.835 51.32C200.665 51.1653 200.409 51.048 200.067 50.968C199.731 50.8827 199.273 50.84 198.691 50.84V49.288C199.177 49.288 199.574 49.248 199.883 49.168C200.193 49.088 200.435 48.976 200.611 48.832C200.787 48.688 200.907 48.5147 200.971 48.312C201.041 48.1093 201.075 47.888 201.075 47.648C201.075 47.1413 200.942 46.7547 200.675 46.488C200.414 46.2213 200.041 46.088 199.555 46.088C199.342 46.088 199.145 46.12 198.963 46.184C198.787 46.2427 198.627 46.3253 198.483 46.432C198.345 46.5387 198.225 46.664 198.123 46.808C198.022 46.952 197.947 47.1093 197.899 47.28C197.798 47.5467 197.667 47.7253 197.507 47.816C197.347 47.9013 197.115 47.92 196.811 47.872L195.651 47.664ZM206.941 47.904C206.941 48.5173 207.09 48.984 207.389 49.304C207.693 49.624 208.135 49.784 208.717 49.784C209.01 49.784 209.271 49.7387 209.501 49.648C209.735 49.552 209.93 49.4213 210.085 49.256C210.239 49.0907 210.357 48.8933 210.437 48.664C210.522 48.4347 210.565 48.184 210.565 47.912C210.565 47.608 210.519 47.3413 210.429 47.112C210.338 46.8773 210.21 46.68 210.045 46.52C209.885 46.36 209.693 46.24 209.469 46.16C209.245 46.0747 208.997 46.032 208.725 46.032C208.447 46.032 208.199 46.08 207.981 46.176C207.762 46.2667 207.575 46.3973 207.421 46.568C207.266 46.7333 207.146 46.9307 207.061 47.16C206.981 47.3893 206.941 47.6373 206.941 47.904ZM209.269 51.544C209.349 51.4427 209.426 51.344 209.501 51.248C209.575 51.152 209.65 51.056 209.725 50.96C209.469 51.1093 209.189 51.224 208.885 51.304C208.586 51.3787 208.269 51.416 207.933 51.416C207.543 51.416 207.157 51.3467 206.773 51.208C206.394 51.0693 206.053 50.8613 205.749 50.584C205.445 50.3067 205.199 49.96 205.013 49.544C204.826 49.1227 204.733 48.6293 204.733 48.064C204.733 47.5467 204.829 47.0587 205.021 46.6C205.213 46.136 205.485 45.7333 205.837 45.392C206.189 45.0453 206.61 44.7707 207.101 44.568C207.597 44.3653 208.146 44.264 208.749 44.264C209.357 44.264 209.903 44.36 210.389 44.552C210.874 44.7387 211.285 45.0027 211.621 45.344C211.957 45.6853 212.215 46.0933 212.397 46.568C212.578 47.0373 212.669 47.5547 212.669 48.12C212.669 48.488 212.639 48.8373 212.581 49.168C212.522 49.4987 212.437 49.8133 212.325 50.112C212.213 50.4107 212.077 50.7013 211.917 50.984C211.762 51.2667 211.586 51.544 211.389 51.816L208.805 55.504C208.698 55.6427 208.543 55.76 208.341 55.856C208.143 55.952 207.917 56 207.661 56H205.629L209.269 51.544Z" fill="black"/>
<rect x="314" y="136" width="56" height="25" rx="5" fill="#FFD60A"/>
<path d="M342.5 167L334.273 160.25L350.727 160.25L342.5 167Z" fill="#FFD60A"/>
<path d="M341.995 143.392V144.336C341.995 144.613 341.963 144.837 341.899 145.008C341.84 145.179 341.781 145.323 341.723 145.44L337.499 154.264C337.392 154.467 337.248 154.64 337.067 154.784C336.885 154.928 336.64 155 336.331 155H334.731L339.059 146.384C339.165 146.181 339.275 145.997 339.387 145.832C339.499 145.667 339.624 145.509 339.763 145.36H334.411C334.283 145.36 334.165 145.309 334.059 145.208C333.957 145.107 333.907 144.992 333.907 144.864V143.392H341.995ZM345.3 146.904C345.3 147.517 345.449 147.984 345.748 148.304C346.052 148.624 346.495 148.784 347.076 148.784C347.369 148.784 347.631 148.739 347.86 148.648C348.095 148.552 348.289 148.421 348.444 148.256C348.599 148.091 348.716 147.893 348.796 147.664C348.881 147.435 348.924 147.184 348.924 146.912C348.924 146.608 348.879 146.341 348.788 146.112C348.697 145.877 348.569 145.68 348.404 145.52C348.244 145.36 348.052 145.24 347.828 145.16C347.604 145.075 347.356 145.032 347.084 145.032C346.807 145.032 346.559 145.08 346.34 145.176C346.121 145.267 345.935 145.397 345.78 145.568C345.625 145.733 345.505 145.931 345.42 146.16C345.34 146.389 345.3 146.637 345.3 146.904ZM347.628 150.544C347.708 150.443 347.785 150.344 347.86 150.248C347.935 150.152 348.009 150.056 348.084 149.96C347.828 150.109 347.548 150.224 347.244 150.304C346.945 150.379 346.628 150.416 346.292 150.416C345.903 150.416 345.516 150.347 345.132 150.208C344.753 150.069 344.412 149.861 344.108 149.584C343.804 149.307 343.559 148.96 343.372 148.544C343.185 148.123 343.092 147.629 343.092 147.064C343.092 146.547 343.188 146.059 343.38 145.6C343.572 145.136 343.844 144.733 344.196 144.392C344.548 144.045 344.969 143.771 345.46 143.568C345.956 143.365 346.505 143.264 347.108 143.264C347.716 143.264 348.263 143.36 348.748 143.552C349.233 143.739 349.644 144.003 349.98 144.344C350.316 144.685 350.575 145.093 350.756 145.568C350.937 146.037 351.028 146.555 351.028 147.12C351.028 147.488 350.999 147.837 350.94 148.168C350.881 148.499 350.796 148.813 350.684 149.112C350.572 149.411 350.436 149.701 350.276 149.984C350.121 150.267 349.945 150.544 349.748 150.816L347.164 154.504C347.057 154.643 346.903 154.76 346.7 154.856C346.503 154.952 346.276 155 346.02 155H343.988L347.628 150.544Z" fill="#003566"/>
<rect x="234" y="230" width="56" height="25" rx="5" fill="#FFD60A"/>
<path d="M262.5 261L254.273 254.25L270.727 254.25L262.5 261Z" fill="#FFD60A"/>
<path d="M254.011 240.664C254.096 240.099 254.256 239.603 254.491 239.176C254.725 238.749 255.019 238.395 255.371 238.112C255.723 237.829 256.123 237.619 256.571 237.48C257.024 237.336 257.512 237.264 258.035 237.264C258.589 237.264 259.085 237.344 259.523 237.504C259.965 237.659 260.339 237.872 260.643 238.144C260.947 238.416 261.179 238.733 261.339 239.096C261.504 239.459 261.587 239.848 261.587 240.264C261.587 240.632 261.547 240.957 261.467 241.24C261.392 241.517 261.277 241.76 261.123 241.968C260.973 242.176 260.787 242.352 260.563 242.496C260.344 242.64 260.091 242.76 259.803 242.856C261.136 243.293 261.803 244.181 261.803 245.52C261.803 246.112 261.693 246.635 261.475 247.088C261.256 247.536 260.963 247.912 260.595 248.216C260.227 248.52 259.797 248.749 259.307 248.904C258.821 249.053 258.312 249.128 257.779 249.128C257.213 249.128 256.715 249.064 256.283 248.936C255.851 248.808 255.469 248.616 255.139 248.36C254.813 248.104 254.533 247.784 254.299 247.4C254.064 247.011 253.859 246.557 253.683 246.04L254.659 245.64C254.915 245.533 255.152 245.504 255.371 245.552C255.595 245.6 255.755 245.717 255.851 245.904C255.957 246.107 256.069 246.293 256.187 246.464C256.309 246.635 256.445 246.784 256.595 246.912C256.744 247.035 256.912 247.131 257.099 247.2C257.291 247.269 257.509 247.304 257.755 247.304C258.064 247.304 258.333 247.253 258.563 247.152C258.792 247.051 258.984 246.92 259.139 246.76C259.293 246.595 259.408 246.411 259.483 246.208C259.563 246 259.603 245.795 259.603 245.592C259.603 245.325 259.579 245.085 259.531 244.872C259.483 244.653 259.371 244.469 259.195 244.32C259.024 244.165 258.768 244.048 258.427 243.968C258.091 243.883 257.632 243.84 257.051 243.84V242.288C257.536 242.288 257.933 242.248 258.243 242.168C258.552 242.088 258.795 241.976 258.971 241.832C259.147 241.688 259.267 241.515 259.331 241.312C259.4 241.109 259.435 240.888 259.435 240.648C259.435 240.141 259.301 239.755 259.035 239.488C258.773 239.221 258.4 239.088 257.915 239.088C257.701 239.088 257.504 239.12 257.323 239.184C257.147 239.243 256.987 239.325 256.843 239.432C256.704 239.539 256.584 239.664 256.483 239.808C256.381 239.952 256.307 240.109 256.259 240.28C256.157 240.547 256.027 240.725 255.867 240.816C255.707 240.901 255.475 240.92 255.171 240.872L254.011 240.664ZM265.3 240.904C265.3 241.517 265.449 241.984 265.748 242.304C266.052 242.624 266.495 242.784 267.076 242.784C267.369 242.784 267.631 242.739 267.86 242.648C268.095 242.552 268.289 242.421 268.444 242.256C268.599 242.091 268.716 241.893 268.796 241.664C268.881 241.435 268.924 241.184 268.924 240.912C268.924 240.608 268.879 240.341 268.788 240.112C268.697 239.877 268.569 239.68 268.404 239.52C268.244 239.36 268.052 239.24 267.828 239.16C267.604 239.075 267.356 239.032 267.084 239.032C266.807 239.032 266.559 239.08 266.34 239.176C266.121 239.267 265.935 239.397 265.78 239.568C265.625 239.733 265.505 239.931 265.42 240.16C265.34 240.389 265.3 240.637 265.3 240.904ZM267.628 244.544C267.708 244.443 267.785 244.344 267.86 244.248C267.935 244.152 268.009 244.056 268.084 243.96C267.828 244.109 267.548 244.224 267.244 244.304C266.945 244.379 266.628 244.416 266.292 244.416C265.903 244.416 265.516 244.347 265.132 244.208C264.753 244.069 264.412 243.861 264.108 243.584C263.804 243.307 263.559 242.96 263.372 242.544C263.185 242.123 263.092 241.629 263.092 241.064C263.092 240.547 263.188 240.059 263.38 239.6C263.572 239.136 263.844 238.733 264.196 238.392C264.548 238.045 264.969 237.771 265.46 237.568C265.956 237.365 266.505 237.264 267.108 237.264C267.716 237.264 268.263 237.36 268.748 237.552C269.233 237.739 269.644 238.003 269.98 238.344C270.316 238.685 270.575 239.093 270.756 239.568C270.937 240.037 271.028 240.555 271.028 241.12C271.028 241.488 270.999 241.837 270.94 242.168C270.881 242.499 270.796 242.813 270.684 243.112C270.572 243.411 270.436 243.701 270.276 243.984C270.121 244.267 269.945 244.544 269.748 244.816L267.164 248.504C267.057 248.643 266.903 248.76 266.7 248.856C266.503 248.952 266.276 249 266.02 249H263.988L267.628 244.544Z" fill="#003566"/>
<rect x="87" y="136" width="56" height="25" rx="5" fill="#D9D9D9"/>
<path d="M115.5 167L107.273 160.25L123.727 160.25L115.5 167Z" fill="#D9D9D9"/>
<path d="M107.011 146.664C107.096 146.099 107.256 145.603 107.491 145.176C107.725 144.749 108.019 144.395 108.371 144.112C108.723 143.829 109.123 143.619 109.571 143.48C110.024 143.336 110.512 143.264 111.035 143.264C111.589 143.264 112.085 143.344 112.523 143.504C112.965 143.659 113.339 143.872 113.643 144.144C113.947 144.416 114.179 144.733 114.339 145.096C114.504 145.459 114.587 145.848 114.587 146.264C114.587 146.632 114.547 146.957 114.467 147.24C114.392 147.517 114.277 147.76 114.123 147.968C113.973 148.176 113.787 148.352 113.563 148.496C113.344 148.64 113.091 148.76 112.803 148.856C114.136 149.293 114.803 150.181 114.803 151.52C114.803 152.112 114.693 152.635 114.475 153.088C114.256 153.536 113.963 153.912 113.595 154.216C113.227 154.52 112.797 154.749 112.307 154.904C111.821 155.053 111.312 155.128 110.779 155.128C110.213 155.128 109.715 155.064 109.283 154.936C108.851 154.808 108.469 154.616 108.139 154.36C107.813 154.104 107.533 153.784 107.299 153.4C107.064 153.011 106.859 152.557 106.683 152.04L107.659 151.64C107.915 151.533 108.152 151.504 108.371 151.552C108.595 151.6 108.755 151.717 108.851 151.904C108.957 152.107 109.069 152.293 109.187 152.464C109.309 152.635 109.445 152.784 109.595 152.912C109.744 153.035 109.912 153.131 110.099 153.2C110.291 153.269 110.509 153.304 110.755 153.304C111.064 153.304 111.333 153.253 111.563 153.152C111.792 153.051 111.984 152.92 112.139 152.76C112.293 152.595 112.408 152.411 112.483 152.208C112.563 152 112.603 151.795 112.603 151.592C112.603 151.325 112.579 151.085 112.531 150.872C112.483 150.653 112.371 150.469 112.195 150.32C112.024 150.165 111.768 150.048 111.427 149.968C111.091 149.883 110.632 149.84 110.051 149.84V148.288C110.536 148.288 110.933 148.248 111.243 148.168C111.552 148.088 111.795 147.976 111.971 147.832C112.147 147.688 112.267 147.515 112.331 147.312C112.4 147.109 112.435 146.888 112.435 146.648C112.435 146.141 112.301 145.755 112.035 145.488C111.773 145.221 111.4 145.088 110.915 145.088C110.701 145.088 110.504 145.12 110.323 145.184C110.147 145.243 109.987 145.325 109.843 145.432C109.704 145.539 109.584 145.664 109.483 145.808C109.381 145.952 109.307 146.109 109.259 146.28C109.157 146.547 109.027 146.725 108.867 146.816C108.707 146.901 108.475 146.92 108.171 146.872L107.011 146.664ZM118.3 146.904C118.3 147.517 118.449 147.984 118.748 148.304C119.052 148.624 119.495 148.784 120.076 148.784C120.369 148.784 120.631 148.739 120.86 148.648C121.095 148.552 121.289 148.421 121.444 148.256C121.599 148.091 121.716 147.893 121.796 147.664C121.881 147.435 121.924 147.184 121.924 146.912C121.924 146.608 121.879 146.341 121.788 146.112C121.697 145.877 121.569 145.68 121.404 145.52C121.244 145.36 121.052 145.24 120.828 145.16C120.604 145.075 120.356 145.032 120.084 145.032C119.807 145.032 119.559 145.08 119.34 145.176C119.121 145.267 118.935 145.397 118.78 145.568C118.625 145.733 118.505 145.931 118.42 146.16C118.34 146.389 118.3 146.637 118.3 146.904ZM120.628 150.544C120.708 150.443 120.785 150.344 120.86 150.248C120.935 150.152 121.009 150.056 121.084 149.96C120.828 150.109 120.548 150.224 120.244 150.304C119.945 150.379 119.628 150.416 119.292 150.416C118.903 150.416 118.516 150.347 118.132 150.208C117.753 150.069 117.412 149.861 117.108 149.584C116.804 149.307 116.559 148.96 116.372 148.544C116.185 148.123 116.092 147.629 116.092 147.064C116.092 146.547 116.188 146.059 116.38 145.6C116.572 145.136 116.844 144.733 117.196 144.392C117.548 144.045 117.969 143.771 118.46 143.568C118.956 143.365 119.505 143.264 120.108 143.264C120.716 143.264 121.263 143.36 121.748 143.552C122.233 143.739 122.644 144.003 122.98 144.344C123.316 144.685 123.575 145.093 123.756 145.568C123.937 146.037 124.028 146.555 124.028 147.12C124.028 147.488 123.999 147.837 123.94 148.168C123.881 148.499 123.796 148.813 123.684 149.112C123.572 149.411 123.436 149.701 123.276 149.984C123.121 150.267 122.945 150.544 122.748 150.816L120.164 154.504C120.057 154.643 119.903 154.76 119.7 154.856C119.503 154.952 119.276 155 119.02 155H116.988L120.628 150.544Z" fill="black"/>
<rect x="210" y="109" width="56" height="25" rx="5" fill="#F38080"/>
<path d="M238.5 140L230.273 133.25L246.727 133.25L238.5 140Z" fill="#F38080"/>
<path d="M228.914 120.56L228.562 120.984C228.765 120.893 228.983 120.824 229.218 120.776C229.453 120.728 229.706 120.704 229.978 120.704C230.41 120.704 230.831 120.776 231.242 120.92C231.653 121.064 232.018 121.28 232.338 121.568C232.658 121.856 232.914 122.219 233.106 122.656C233.303 123.088 233.402 123.597 233.402 124.184C233.402 124.723 233.301 125.232 233.098 125.712C232.901 126.192 232.618 126.611 232.25 126.968C231.887 127.325 231.45 127.608 230.938 127.816C230.431 128.024 229.866 128.128 229.242 128.128C228.607 128.128 228.039 128.029 227.538 127.832C227.037 127.629 226.61 127.347 226.258 126.984C225.906 126.621 225.637 126.189 225.45 125.688C225.263 125.181 225.17 124.624 225.17 124.016C225.17 123.456 225.279 122.888 225.498 122.312C225.722 121.736 226.061 121.144 226.514 120.536L229.21 116.904C229.317 116.765 229.474 116.645 229.682 116.544C229.89 116.443 230.127 116.392 230.394 116.392H232.354L228.914 120.56ZM229.202 126.352C229.49 126.352 229.757 126.301 230.002 126.2C230.247 126.099 230.458 125.957 230.634 125.776C230.81 125.595 230.949 125.384 231.05 125.144C231.151 124.899 231.202 124.632 231.202 124.344C231.202 124.029 231.154 123.747 231.058 123.496C230.962 123.245 230.826 123.035 230.65 122.864C230.474 122.688 230.263 122.555 230.018 122.464C229.773 122.373 229.501 122.328 229.202 122.328C228.919 122.328 228.661 122.379 228.426 122.48C228.191 122.576 227.989 122.715 227.818 122.896C227.653 123.072 227.522 123.283 227.426 123.528C227.335 123.773 227.29 124.043 227.29 124.336C227.29 124.64 227.33 124.917 227.41 125.168C227.49 125.413 227.61 125.624 227.77 125.8C227.93 125.976 228.127 126.112 228.362 126.208C228.602 126.304 228.882 126.352 229.202 126.352ZM242.635 116.392V117.336C242.635 117.613 242.603 117.837 242.539 118.008C242.481 118.179 242.422 118.323 242.363 118.44L238.139 127.264C238.033 127.467 237.889 127.64 237.707 127.784C237.526 127.928 237.281 128 236.971 128H235.371L239.699 119.384C239.806 119.181 239.915 118.997 240.027 118.832C240.139 118.667 240.265 118.509 240.403 118.36H235.051C234.923 118.36 234.806 118.309 234.699 118.208C234.598 118.107 234.547 117.992 234.547 117.864V116.392H242.635ZM245.941 119.904C245.941 120.517 246.09 120.984 246.389 121.304C246.693 121.624 247.135 121.784 247.717 121.784C248.01 121.784 248.271 121.739 248.501 121.648C248.735 121.552 248.93 121.421 249.085 121.256C249.239 121.091 249.357 120.893 249.437 120.664C249.522 120.435 249.565 120.184 249.565 119.912C249.565 119.608 249.519 119.341 249.429 119.112C249.338 118.877 249.21 118.68 249.045 118.52C248.885 118.36 248.693 118.24 248.469 118.16C248.245 118.075 247.997 118.032 247.725 118.032C247.447 118.032 247.199 118.08 246.981 118.176C246.762 118.267 246.575 118.397 246.421 118.568C246.266 118.733 246.146 118.931 246.061 119.16C245.981 119.389 245.941 119.637 245.941 119.904ZM248.269 123.544C248.349 123.443 248.426 123.344 248.501 123.248C248.575 123.152 248.65 123.056 248.725 122.96C248.469 123.109 248.189 123.224 247.885 123.304C247.586 123.379 247.269 123.416 246.933 123.416C246.543 123.416 246.157 123.347 245.773 123.208C245.394 123.069 245.053 122.861 244.749 122.584C244.445 122.307 244.199 121.96 244.013 121.544C243.826 121.123 243.733 120.629 243.733 120.064C243.733 119.547 243.829 119.059 244.021 118.6C244.213 118.136 244.485 117.733 244.837 117.392C245.189 117.045 245.61 116.771 246.101 116.568C246.597 116.365 247.146 116.264 247.749 116.264C248.357 116.264 248.903 116.36 249.389 116.552C249.874 116.739 250.285 117.003 250.621 117.344C250.957 117.685 251.215 118.093 251.397 118.568C251.578 119.037 251.669 119.555 251.669 120.12C251.669 120.488 251.639 120.837 251.581 121.168C251.522 121.499 251.437 121.813 251.325 122.112C251.213 122.411 251.077 122.701 250.917 122.984C250.762 123.267 250.586 123.544 250.389 123.816L247.805 127.504C247.698 127.643 247.543 127.76 247.341 127.856C247.143 127.952 246.917 128 246.661 128H244.629L248.269 123.544Z" fill="#A85656"/>
</svg>
